VelekaWorld-Bold.ufo
<glyph name="parenright" format="2">
  <advance width="392"/>
  <unicode hex="0029"/>
  <outline>
    <contour>
      <point x="34" y="-142" type="curve"/>
      <point x="34" y="-88" type="line"/>
      <point x="174" y="-69"/>
      <point x="206" y="83"/>
      <point x="206" y="288" type="curve" smooth="yes"/>
      <point x="206" y="493"/>
      <point x="174" y="644"/>
      <point x="34" y="663" type="curve"/>
      <point x="34" y="717" type="line"/>
      <point x="230" y="711"/>
      <point x="333" y="549"/>
      <point x="333" y="288" type="curve" smooth="yes"/>
      <point x="333" y="27"/>
      <point x="230" y="-137"/>
    </contour>
  </outline>
</glyph>
<glyph name="comma" format="2">
  <advance width="317"/>
  <unicode hex="002C"/>
  <outline>
    <contour>
      <point x="35" y="-127" type="line"/>
      <point x="86" y="-119"/>
      <point x="155" y="-73"/>
      <point x="155" y="7" type="curve"/>
      <point x="94" y="7" type="line"/>
      <point x="70" y="26"/>
      <point x="63" y="51"/>
      <point x="63" y="71" type="curve" smooth="yes"/>
      <point x="63" y="121"/>
      <point x="92" y="155"/>
      <point x="153" y="155" type="curve" smooth="yes"/>
      <point x="209" y="155"/>
      <point x="242" y="117"/>
      <point x="242" y="59" type="curve" smooth="yes"/>
      <point x="242" y="-65"/>
      <point x="131" y="-169"/>
      <point x="35" y="-176" type="curve"/>
    </contour>
  </outline>
</glyph>
<glyph name="five" format="2">
  <advance width="586"/>
  <unicode hex="0035"/>
  <outline>
    <contour>
      <point x="41" y="115" type="curve" smooth="yes"/>
      <point x="41" y="145"/>
      <point x="66" y="180"/>
      <point x="114" y="180" type="curve" smooth="yes"/>
      <point x="127" y="180"/>
      <point x="141" y="177"/>
      <point x="159" y="171" type="curve"/>
      <point x="191" y="52" type="line"/>
      <point x="199" y="49"/>
      <point x="229" y="44"/>
      <point x="243" y="44" type="curve" smooth="yes"/>
      <point x="359" y="44"/>
      <point x="404" y="146"/>
      <point x="404" y="193" type="curve" smooth="yes"/>
      <point x="404" y="282"/>
      <point x="324" y="337"/>
      <point x="226" y="337" type="curve" smooth="yes"/>
      <point x="158" y="337"/>
      <point x="79" y="321"/>
      <point x="79" y="321" type="curve"/>
      <point x="79" y="671" type="line"/>
      <point x="509" y="671" type="line"/>
      <point x="509" y="560" type="line"/>
      <point x="164" y="560" type="line"/>
      <point x="164" y="399" type="line"/>
      <point x="164" y="399"/>
      <point x="235" y="423"/>
      <point x="302" y="423" type="curve" smooth="yes"/>
      <point x="445" y="423"/>
      <point x="547" y="343"/>
      <point x="547" y="227" type="curve" smooth="yes"/>
      <point x="547" y="76"/>
      <point x="401" y="-16"/>
      <point x="248" y="-16" type="curve" smooth="yes"/>
      <point x="146" y="-16"/>
      <point x="41" y="29"/>
    </contour>
  </outline>
</glyph>
<glyph name="six" format="2">
  <advance width="586"/>
  <unicode hex="0036"/>
  <outline>
    <contour>
      <point x="36" y="291" type="curve" smooth="yes"/>
      <point x="36" y="541"/>
      <point x="195" y="687"/>
      <point x="467" y="687" type="curve"/>
      <point x="467" y="609" type="line"/>
      <point x="423" y="614" type="line"/>
      <point x="286" y="605"/>
      <point x="208" y="532"/>
      <point x="187" y="394" type="curve"/>
      <point x="187" y="394"/>
      <point x="257" y="444"/>
      <point x="342" y="444" type="curve" smooth="yes"/>
      <point x="461" y="444"/>
      <point x="552" y="356"/>
      <point x="552" y="241" type="curve" smooth="yes"/>
      <point x="552" y="94"/>
      <point x="446" y="-16"/>
      <point x="303" y="-16" type="curve" smooth="yes"/>
      <point x="133" y="-16"/>
      <point x="36" y="95"/>
    </contour>
    <contour>
      <point x="181" y="254" type="line" smooth="yes"/>
      <point x="181" y="135"/>
      <point x="232" y="49"/>
      <point x="304" y="49" type="curve" smooth="yes"/>
      <point x="367" y="49"/>
      <point x="409" y="115"/>
      <point x="409" y="211" type="curve" smooth="yes"/>
      <point x="409" y="306"/>
      <point x="362" y="359"/>
      <point x="278" y="359" type="curve" smooth="yes"/>
      <point x="221" y="359"/>
      <point x="181" y="338"/>
      <point x="181" y="338" type="curve"/>
    </contour>
  </outline>
</glyph>
<glyph name="eight" format="2">
  <advance width="586"/>
  <unicode hex="0038"/>
  <outline>
    <contour>
      <point x="36" y="181" type="curve" smooth="yes"/>
      <point x="36" y="255"/>
      <point x="83" y="307"/>
      <point x="175" y="335" type="curve"/>
      <point x="112" y="359"/>
      <point x="63" y="424"/>
      <point x="63" y="485" type="curve" smooth="yes"/>
      <point x="63" y="609"/>
      <point x="158" y="687"/>
      <point x="308" y="687" type="curve" smooth="yes"/>
      <point x="434" y="687"/>
      <point x="525" y="613"/>
      <point x="525" y="511" type="curve" smooth="yes"/>
      <point x="525" y="444"/>
      <point x="487" y="396"/>
      <point x="401" y="357" type="curve"/>
      <point x="487" y="335"/>
      <point x="551" y="261"/>
      <point x="551" y="184" type="curve" smooth="yes"/>
      <point x="551" y="65"/>
      <point x="444" y="-16"/>
      <point x="287" y="-16" type="curve" smooth="yes"/>
      <point x="143" y="-16"/>
      <point x="36" y="68"/>
    </contour>
    <contour>
      <point x="164" y="191" type="curve" smooth="yes"/>
      <point x="164" y="113"/>
      <point x="223" y="48"/>
      <point x="295" y="48" type="curve" smooth="yes"/>
      <point x="365" y="48"/>
      <point x="415" y="90"/>
      <point x="415" y="149" type="curve" smooth="yes"/>
      <point x="415" y="214"/>
      <point x="349" y="269"/>
      <point x="222" y="310" type="curve"/>
      <point x="185" y="279"/>
      <point x="164" y="236"/>
    </contour>
    <contour>
      <point x="200" y="528" type="curve" smooth="yes"/>
      <point x="200" y="468"/>
      <point x="241" y="429"/>
      <point x="353" y="381" type="curve"/>
      <point x="383" y="413"/>
      <point x="402" y="459"/>
      <point x="402" y="503" type="curve" smooth="yes"/>
      <point x="402" y="571"/>
      <point x="355" y="624"/>
      <point x="296" y="624" type="curve" smooth="yes"/>
      <point x="243" y="624"/>
      <point x="200" y="581"/>
    </contour>
  </outline>
</glyph>
<glyph name="nine" format="2">
  <advance width="586"/>
  <unicode hex="0039"/>
  <outline>
    <contour>
      <point x="36" y="429" type="curve" smooth="yes"/>
      <point x="36" y="584"/>
      <point x="150" y="687"/>
      <point x="285" y="687" type="curve" smooth="yes"/>
      <point x="452" y="687"/>
      <point x="552" y="577"/>
      <point x="552" y="379" type="curve" smooth="yes"/>
      <point x="552" y="120"/>
      <point x="383" y="-16"/>
      <point x="129" y="-16" type="curve" smooth="yes"/>
      <point x="121" y="-16" type="line"/>
      <point x="121" y="62" type="line"/>
      <point x="165" y="57" type="line"/>
      <point x="310" y="67"/>
      <point x="380" y="146"/>
      <point x="400" y="276" type="curve"/>
      <point x="371" y="250"/>
      <point x="296" y="226"/>
      <point x="246" y="226" type="curve" smooth="yes"/>
      <point x="105" y="226"/>
      <point x="36" y="334"/>
    </contour>
    <contour>
      <point x="179" y="459" type="curve" smooth="yes"/>
      <point x="179" y="371"/>
      <point x="220" y="311"/>
      <point x="310" y="311" type="curve" smooth="yes"/>
      <point x="366" y="311"/>
      <point x="407" y="332"/>
      <point x="407" y="332" type="curve"/>
      <point x="407" y="416" type="line" smooth="yes"/>
      <point x="407" y="536"/>
      <point x="356" y="622"/>
      <point x="284" y="622" type="curve" smooth="yes"/>
      <point x="214" y="622"/>
      <point x="179" y="544"/>
    </contour>
  </outline>
</glyph>
<glyph name="question" format="2">
  <advance width="521"/>
  <unicode hex="003F"/>
  <outline>
    <contour>
      <point x="44" y="568" type="curve" smooth="yes"/>
      <point x="44" y="637"/>
      <point x="122" y="687"/>
      <point x="231" y="687" type="curve" smooth="yes"/>
      <point x="365" y="687"/>
      <point x="458" y="609"/>
      <point x="458" y="497" type="curve" smooth="yes"/>
      <point x="458" y="327"/>
      <point x="241" y="283"/>
      <point x="241" y="283" type="curve"/>
      <point x="241" y="198" type="line"/>
      <point x="173" y="198" type="line"/>
      <point x="173" y="331" type="line"/>
      <point x="173" y="331"/>
      <point x="318" y="362"/>
      <point x="318" y="499" type="curve" smooth="yes"/>
      <point x="318" y="579"/>
      <point x="270" y="626"/>
      <point x="187" y="626" type="curve"/>
      <point x="142" y="506" type="line"/>
      <point x="142" y="506"/>
      <point x="140" y="504"/>
      <point x="130" y="504" type="curve" smooth="yes"/>
      <point x="75" y="504"/>
      <point x="44" y="527"/>
    </contour>
    <contour>
      <point x="131" y="69" type="curve" smooth="yes"/>
      <point x="131" y="113"/>
      <point x="165" y="149"/>
      <point x="208" y="149" type="curve" smooth="yes"/>
      <point x="254" y="149"/>
      <point x="289" y="112"/>
      <point x="289" y="65" type="curve" smooth="yes"/>
      <point x="289" y="22"/>
      <point x="252" y="-12"/>
      <point x="207" y="-12" type="curve" smooth="yes"/>
      <point x="165" y="-12"/>
      <point x="131" y="25"/>
    </contour>
  </outline>
</glyph>
<glyph name="at" format="2">
  <advance width="936"/>
  <unicode hex="0040"/>
  <outline>
    <contour>
      <point x="58" y="235" type="curve" smooth="yes"/>
      <point x="58" y="527"/>
      <point x="281" y="687"/>
      <point x="522" y="687" type="curve" smooth="yes"/>
      <point x="739" y="687"/>
      <point x="878" y="570"/>
      <point x="878" y="368" type="curve" smooth="yes"/>
      <point x="878" y="170"/>
      <point x="738" y="50"/>
      <point x="620" y="50" type="curve" smooth="yes"/>
      <point x="559" y="50"/>
      <point x="540" y="83"/>
      <point x="534" y="120" type="curve"/>
      <point x="500" y="84"/>
      <point x="448" y="51"/>
      <point x="397" y="51" type="curve" smooth="yes"/>
      <point x="306" y="51"/>
      <point x="258" y="121"/>
      <point x="258" y="217" type="curve" smooth="yes"/>
      <point x="258" y="366"/>
      <point x="376" y="490"/>
      <point x="521" y="490" type="curve" smooth="yes"/>
      <point x="550" y="490"/>
      <point x="588" y="477"/>
      <point x="612" y="460" type="curve"/>
      <point x="625" y="485" type="line"/>
      <point x="709" y="485" type="line"/>
      <point x="695" y="445"/>
      <point x="690" y="425"/>
      <point x="676" y="361" type="curve" smooth="yes"/>
      <point x="639" y="188" type="line" smooth="yes"/>
      <point x="636" y="172"/>
      <point x="633" y="158"/>
      <point x="633" y="146" type="curve" smooth="yes"/>
      <point x="633" y="126"/>
      <point x="640" y="114"/>
      <point x="662" y="114" type="curve" smooth="yes"/>
      <point x="702" y="114"/>
      <point x="801" y="206"/>
      <point x="801" y="367" type="curve" smooth="yes"/>
      <point x="801" y="556"/>
      <point x="658" y="636"/>
      <point x="535" y="636" type="curve" smooth="yes"/>
      <point x="325" y="636"/>
      <point x="159" y="477"/>
      <point x="159" y="253" type="curve" smooth="yes"/>
      <point x="159" y="48"/>
      <point x="292" y="-101"/>
      <point x="495" y="-101" type="curve" smooth="yes"/>
      <point x="600" y="-101"/>
      <point x="683" y="-64"/>
      <point x="768" y="-17" type="curve"/>
      <point x="789" y="-67" type="line"/>
      <point x="699" y="-114"/>
      <point x="598" y="-157"/>
      <point x="471" y="-157" type="curve" smooth="yes"/>
      <point x="238" y="-157"/>
      <point x="58" y="-3"/>
    </contour>
    <contour>
      <point x="378" y="226" type="curve" smooth="yes"/>
      <point x="378" y="151"/>
      <point x="411" y="122"/>
      <point x="442" y="122" type="curve" smooth="yes"/>
      <point x="485" y="122"/>
      <point x="514" y="156"/>
      <point x="530" y="183" type="curve"/>
      <point x="570" y="388" type="line"/>
      <point x="571" y="392"/>
      <point x="571" y="396"/>
      <point x="571" y="400" type="curve" smooth="yes"/>
      <point x="571" y="425"/>
      <point x="555" y="441"/>
      <point x="525" y="441" type="curve" smooth="yes"/>
      <point x="445" y="441"/>
      <point x="378" y="350"/>
    </contour>
  </outline>
</glyph>
<glyph name="I" format="2">
  <advance width="358"/>
  <unicode hex="0049"/>
  <outline>
    <contour>
      <point x="23" y="0" type="line"/>
      <point x="23" y="51" type="line"/>
      <point x="85" y="56" type="line" smooth="yes"/>
      <point x="97" y="57"/>
      <point x="107" y="65"/>
      <point x="107" y="78" type="curve" smooth="yes"/>
      <point x="107" y="593" type="line" smooth="yes"/>
      <point x="107" y="606"/>
      <point x="97" y="614"/>
      <point x="85" y="615" type="curve" smooth="yes"/>
      <point x="23" y="620" type="line"/>
      <point x="23" y="671" type="line"/>
      <point x="335" y="671" type="line"/>
      <point x="335" y="620" type="line"/>
      <point x="273" y="615" type="line" smooth="yes"/>
      <point x="262" y="614"/>
      <point x="250" y="606"/>
      <point x="250" y="593" type="curve" smooth="yes"/>
      <point x="250" y="78" type="line" smooth="yes"/>
      <point x="250" y="65"/>
      <point x="262" y="57"/>
      <point x="273" y="56" type="curve" smooth="yes"/>
      <point x="335" y="51" type="line"/>
      <point x="335" y="0" type="line"/>
    </contour>
  </outline>
</glyph>
<glyph name="bracketright" format="2">
  <advance width="588"/>
  <unicode hex="005D"/>
  <outline>
    <contour>
      <point x="36" y="-74" type="line"/>
      <point x="189" y="-74" type="line"/>
      <point x="189" y="648" type="line"/>
      <point x="36" y="648" type="line"/>
      <point x="36" y="708" type="line"/>
      <point x="313" y="708" type="line"/>
      <point x="313" y="-132" type="line"/>
      <point x="36" y="-132" type="line"/>
    </contour>
  </outline>
</glyph>
<glyph name="underscore" format="2">
  <advance width="339"/>
  <unicode hex="005F"/>
  <outline>
    <contour>
      <point x="0" y="-85" type="line"/>
      <point x="340" y="-85" type="line"/>
      <point x="340" y="-166" type="line"/>
      <point x="0" y="-166" type="line"/>
    </contour>
  </outline>
</glyph>
<glyph name="grave" format="2">
  <advance width="374"/>
  <unicode hex="0060"/>
  <outline>
    <contour>
      <point x="0" y="681" type="curve" smooth="yes"/>
      <point x="0" y="705"/>
      <point x="14" y="734"/>
      <point x="57" y="734" type="curve" smooth="yes"/>
      <point x="84" y="734"/>
      <point x="97" y="727"/>
      <point x="120" y="702" type="curve" smooth="yes"/>
      <point x="257" y="551" type="line"/>
      <point x="187" y="551" type="line"/>
      <point x="25" y="639" type="line" smooth="yes"/>
      <point x="11" y="647"/>
      <point x="0" y="668"/>
    </contour>
  </outline>
</glyph>
<glyph name="d" format="2">
  <advance width="608"/>
  <unicode hex="0064"/>
  <outline>
    <contour>
      <point x="32" y="233" type="curve" smooth="yes"/>
      <point x="32" y="405"/>
      <point x="142" y="500"/>
      <point x="293" y="500" type="curve" smooth="yes"/>
      <point x="323" y="500"/>
      <point x="365" y="495"/>
      <point x="386" y="488" type="curve"/>
      <point x="386" y="649" type="line"/>
      <point x="312" y="649" type="line"/>
      <point x="312" y="690" type="line"/>
      <point x="468" y="740" type="line"/>
      <point x="519" y="740" type="line"/>
      <point x="519" y="73" type="line" smooth="yes"/>
      <point x="519" y="61"/>
      <point x="529" y="51"/>
      <point x="541" y="50" type="curve" smooth="yes"/>
      <point x="583" y="47" type="line"/>
      <point x="583" y="0" type="line"/>
      <point x="386" y="0" type="line"/>
      <point x="386" y="58" type="line"/>
      <point x="346" y="20"/>
      <point x="273" y="-12"/>
      <point x="228" y="-12" type="curve" smooth="yes"/>
      <point x="106" y="-12"/>
      <point x="32" y="92"/>
    </contour>
    <contour>
      <point x="178" y="256" type="curve" smooth="yes"/>
      <point x="178" y="151"/>
      <point x="221" y="80"/>
      <point x="308" y="80" type="curve" smooth="yes"/>
      <point x="338" y="80"/>
      <point x="366" y="87"/>
      <point x="386" y="99" type="curve"/>
      <point x="386" y="422" type="line"/>
      <point x="372" y="432"/>
      <point x="341" y="440"/>
      <point x="315" y="440" type="curve" smooth="yes"/>
      <point x="222" y="440"/>
      <point x="178" y="359"/>
    </contour>
  </outline>
</glyph>
<glyph name="exclamdown" format="2">
  <advance width="339"/>
  <unicode hex="00A1"/>
  <outline>
    <contour>
      <point x="89" y="418" type="curve" smooth="yes"/>
      <point x="89" y="464"/>
      <point x="126" y="500"/>
      <point x="169" y="500" type="curve" smooth="yes"/>
      <point x="202" y="500"/>
      <point x="250" y="477"/>
      <point x="250" y="418" type="curve" smooth="yes"/>
      <point x="250" y="366"/>
      <point x="207" y="339"/>
      <point x="169" y="339" type="curve" smooth="yes"/>
      <point x="132" y="339"/>
      <point x="89" y="369"/>
    </contour>
    <contour>
      <point x="88" y="-118" type="curve"/>
      <point x="142" y="280" type="line"/>
      <point x="196" y="280" type="line"/>
      <point x="251" y="-118" type="line"/>
      <point x="251" y="-173"/>
      <point x="214" y="-199"/>
      <point x="169" y="-199" type="curve" smooth="yes"/>
      <point x="125" y="-199"/>
      <point x="88" y="-174"/>
    </contour>
  </outline>
</glyph>
<glyph name="sterling" format="2">
  <advance width="586"/>
  <unicode hex="00A3"/>
  <outline>
    <contour>
      <point x="42" y="0" type="line"/>
      <point x="42" y="76" type="line"/>
      <point x="73" y="76"/>
      <point x="145" y="102"/>
      <point x="145" y="253" type="curve" smooth="yes"/>
      <point x="145" y="297" type="line"/>
      <point x="75" y="297" type="line"/>
      <point x="75" y="361" type="line"/>
      <point x="144" y="361" type="line"/>
      <point x="144" y="361"/>
      <point x="140" y="403"/>
      <point x="140" y="431" type="curve" smooth="yes"/>
      <point x="140" y="577"/>
      <point x="209" y="687"/>
      <point x="372" y="687" type="curve" smooth="yes"/>
      <point x="443" y="687"/>
      <point x="544" y="652"/>
      <point x="544" y="567" type="curve" smooth="yes"/>
      <point x="544" y="521"/>
      <point x="504" y="497"/>
      <point x="463" y="497" type="curve" smooth="yes"/>
      <point x="446" y="497"/>
      <point x="420" y="506"/>
      <point x="420" y="506" type="curve"/>
      <point x="420" y="628" type="line"/>
      <point x="420" y="628"/>
      <point x="413" y="632"/>
      <point x="390" y="632" type="curve" smooth="yes"/>
      <point x="276" y="632"/>
      <point x="270" y="493"/>
      <point x="270" y="435" type="curve" smooth="yes"/>
      <point x="270" y="391"/>
      <point x="275" y="361"/>
      <point x="275" y="361" type="curve"/>
      <point x="456" y="361" type="line"/>
      <point x="456" y="297" type="line"/>
      <point x="277" y="297" type="line"/>
      <point x="277" y="239"/>
      <point x="268" y="185"/>
      <point x="213" y="133" type="curve"/>
      <point x="201" y="121"/>
      <point x="186" y="110"/>
      <point x="169" y="98" type="curve"/>
      <point x="169" y="98"/>
      <point x="229" y="106"/>
      <point x="235" y="106" type="curve" smooth="yes"/>
      <point x="544" y="106" type="line"/>
      <point x="544" y="0" type="line"/>
    </contour>
  </outline>
</glyph>
<glyph name="ordfeminine" format="2">
  <advance width="358"/>
  <unicode hex="00AA"/>
  <outline>
    <contour>
      <point x="21" y="453" type="curve" smooth="yes"/>
      <point x="21" y="494"/>
      <point x="32" y="520"/>
      <point x="115" y="545" type="curve" smooth="yes"/>
      <point x="142" y="553"/>
      <point x="176" y="561"/>
      <point x="220" y="570" type="curve"/>
      <point x="220" y="593" type="line" smooth="yes"/>
      <point x="220" y="616"/>
      <point x="212" y="649"/>
      <point x="159" y="649" type="curve" smooth="yes"/>
      <point x="142" y="649"/>
      <point x="136" y="648"/>
      <point x="131" y="647" type="curve"/>
      <point x="131" y="590" type="line"/>
      <point x="64" y="590" type="line" smooth="yes"/>
      <point x="57" y="590"/>
      <point x="35" y="590"/>
      <point x="35" y="612" type="curve" smooth="yes"/>
      <point x="35" y="656"/>
      <point x="111" y="683"/>
      <point x="180" y="683" type="curve" smooth="yes"/>
      <point x="255" y="683"/>
      <point x="306" y="667"/>
      <point x="306" y="581" type="curve" smooth="yes"/>
      <point x="306" y="427" type="line" smooth="yes"/>
      <point x="306" y="419"/>
      <point x="312" y="413"/>
      <point x="320" y="413" type="curve"/>
      <point x="349" y="411" type="line"/>
      <point x="349" y="383" type="line"/>
      <point x="227" y="383" type="line"/>
      <point x="219" y="413" type="line"/>
      <point x="219" y="413"/>
      <point x="163" y="376"/>
      <point x="105" y="376" type="curve" smooth="yes"/>
      <point x="59" y="376"/>
      <point x="21" y="405"/>
    </contour>
    <contour>
      <point x="48" y="301" type="line"/>
      <point x="48" y="336" type="line"/>
      <point x="347" y="336" type="line"/>
      <point x="347" y="301" type="line"/>
    </contour>
    <contour>
      <point x="113" y="470" type="curve" smooth="yes"/>
      <point x="113" y="445"/>
      <point x="132" y="426"/>
      <point x="159" y="426" type="curve" smooth="yes"/>
      <point x="187" y="426"/>
      <point x="219" y="438"/>
      <point x="219" y="438" type="curve"/>
      <point x="219" y="538" type="line"/>
      <point x="175" y="530"/>
      <point x="148" y="521"/>
      <point x="132" y="510" type="curve" smooth="yes"/>
      <point x="118" y="500"/>
      <point x="113" y="487"/>
    </contour>
  </outline>
</glyph>
<glyph name="paragraph" format="2">
  <advance width="520"/>
  <unicode hex="00B6"/>
  <outline>
    <contour>
      <point x="27" y="469" type="curve" smooth="yes"/>
      <point x="27" y="621"/>
      <point x="121" y="671"/>
      <point x="273" y="671" type="curve" smooth="yes"/>
      <point x="493" y="671" type="line"/>
      <point x="493" y="614" type="line"/>
      <point x="431" y="605" type="line"/>
      <point x="431" y="-79" type="line"/>
      <point x="358" y="-79" type="line"/>
      <point x="358" y="608" type="line"/>
      <point x="296" y="608" type="line"/>
      <point x="296" y="269" type="line"/>
      <point x="138" y="269"/>
      <point x="27" y="309"/>
    </contour>
  </outline>
</glyph>
<glyph name="cedilla" format="2">
  <advance width="246"/>
  <unicode hex="00B8"/>
  <outline>
    <contour>
      <point x="42" y="-220" type="curve"/>
      <point x="42" y="-170" type="line"/>
      <point x="42" y="-170"/>
      <point x="81" y="-178"/>
      <point x="105" y="-178" type="curve" smooth="yes"/>
      <point x="131" y="-178"/>
      <point x="164" y="-172"/>
      <point x="164" y="-144" type="curve" smooth="yes"/>
      <point x="164" y="-120"/>
      <point x="143" y="-110"/>
      <point x="120" y="-110" type="curve" smooth="yes"/>
      <point x="113" y="-110"/>
      <point x="98" y="-112"/>
      <point x="98" y="-112" type="curve"/>
      <point x="98" y="25" type="line"/>
      <point x="148" y="25" type="line"/>
      <point x="148" y="-57" type="line"/>
      <point x="151" y="-56"/>
      <point x="154" y="-55"/>
      <point x="162" y="-55" type="curve" smooth="yes"/>
      <point x="208" y="-55"/>
      <point x="246" y="-78"/>
      <point x="246" y="-131" type="curve" smooth="yes"/>
      <point x="246" y="-196"/>
      <point x="194" y="-231"/>
      <point x="123" y="-231" type="curve" smooth="yes"/>
      <point x="82" y="-231"/>
      <point x="42" y="-220"/>
    </contour>
  </outline>
</glyph>
<glyph name="onequarter" format="2">
  <advance width="907"/>
  <unicode hex="00BC"/>
  <outline>
    <contour>
      <point x="43" y="627" type="line"/>
      <point x="43" y="658" type="line"/>
      <point x="184" y="703" type="line"/>
      <point x="232" y="703" type="line"/>
      <point x="232" y="343" type="line" smooth="yes"/>
      <point x="232" y="335"/>
      <point x="238" y="330"/>
      <point x="246" y="330" type="curve"/>
      <point x="297" y="326" type="line"/>
      <point x="297" y="295" type="line"/>
      <point x="70" y="295" type="line"/>
      <point x="70" y="326" type="line"/>
      <point x="126" y="330" type="line"/>
      <point x="134" y="330"/>
      <point x="140" y="335"/>
      <point x="140" y="343" type="curve" smooth="yes"/>
      <point x="140" y="639" type="line"/>
    </contour>
    <contour>
      <point x="204" y="0" type="line"/>
      <point x="646" y="695" type="line"/>
      <point x="719" y="695" type="line"/>
      <point x="277" y="0" type="line"/>
    </contour>
    <contour>
      <point x="507" y="107" type="line"/>
      <point x="507" y="158" type="line"/>
      <point x="721" y="406" type="line"/>
      <point x="791" y="406" type="line"/>
      <point x="791" y="156" type="line"/>
      <point x="864" y="156" type="line"/>
      <point x="864" y="107" type="line"/>
      <point x="791" y="107" type="line"/>
      <point x="791" y="-18" type="line"/>
      <point x="708" y="-18" type="line"/>
      <point x="708" y="107" type="line"/>
    </contour>
    <contour>
      <point x="570" y="156" type="line"/>
      <point x="708" y="156" type="line"/>
      <point x="708" y="319" type="line"/>
    </contour>
  </outline>
</glyph>
<glyph name="onehalf" format="2">
  <advance width="907"/>
  <unicode hex="00BD"/>
  <outline>
    <contour>
      <point x="46" y="627" type="line"/>
      <point x="46" y="658" type="line"/>
      <point x="187" y="703" type="line"/>
      <point x="234" y="703" type="line"/>
      <point x="234" y="343" type="line" smooth="yes"/>
      <point x="234" y="335"/>
      <point x="241" y="330"/>
      <point x="249" y="330" type="curve"/>
      <point x="300" y="326" type="line"/>
      <point x="300" y="295" type="line"/>
      <point x="73" y="295" type="line"/>
      <point x="73" y="326" type="line"/>
      <point x="129" y="330" type="line"/>
      <point x="137" y="330"/>
      <point x="143" y="335"/>
      <point x="143" y="343" type="curve" smooth="yes"/>
      <point x="143" y="639" type="line"/>
    </contour>
    <contour>
      <point x="182" y="0" type="line"/>
      <point x="624" y="695" type="line"/>
      <point x="697" y="695" type="line"/>
      <point x="255" y="0" type="line"/>
    </contour>
    <contour>
      <point x="544" y="0" type="line"/>
      <point x="544" y="50" type="line"/>
      <point x="596" y="83"/>
      <point x="752" y="182"/>
      <point x="752" y="288" type="curve" smooth="yes"/>
      <point x="752" y="335"/>
      <point x="724" y="370"/>
      <point x="675" y="370" type="curve" smooth="yes"/>
      <point x="657" y="370"/>
      <point x="656" y="368"/>
      <point x="641" y="364" type="curve"/>
      <point x="641" y="283" type="line"/>
      <point x="641" y="283"/>
      <point x="618" y="272"/>
      <point x="597" y="272" type="curve" smooth="yes"/>
      <point x="565" y="272"/>
      <point x="548" y="290"/>
      <point x="548" y="316" type="curve" smooth="yes"/>
      <point x="548" y="392"/>
      <point x="647" y="410"/>
      <point x="704" y="410" type="curve" smooth="yes"/>
      <point x="786" y="410"/>
      <point x="849" y="366"/>
      <point x="849" y="294" type="curve" smooth="yes"/>
      <point x="849" y="208"/>
      <point x="758" y="142"/>
      <point x="629" y="64" type="curve"/>
      <point x="808" y="64" type="line"/>
      <point x="819" y="118" type="line"/>
      <point x="862" y="118" type="line"/>
      <point x="862" y="0" type="line"/>
    </contour>
  </outline>
</glyph>
<glyph name="questiondown" format="2">
  <advance width="521"/>
  <unicode hex="00BF"/>
  <outline>
    <contour>
      <point x="64" y="-9" type="curve" smooth="yes"/>
      <point x="64" y="161"/>
      <point x="281" y="205"/>
      <point x="281" y="205" type="curve"/>
      <point x="281" y="290" type="line"/>
      <point x="349" y="290" type="line"/>
      <point x="349" y="157" type="line"/>
      <point x="349" y="157"/>
      <point x="204" y="126"/>
      <point x="204" y="-11" type="curve" smooth="yes"/>
      <point x="204" y="-85"/>
      <point x="247" y="-138"/>
      <point x="335" y="-138" type="curve"/>
      <point x="379" y="-21" type="line"/>
      <point x="384" y="-19"/>
      <point x="395" y="-16"/>
      <point x="412" y="-16" type="curve" smooth="yes"/>
      <point x="454" y="-16"/>
      <point x="478" y="-39"/>
      <point x="478" y="-80" type="curve" smooth="yes"/>
      <point x="478" y="-167"/>
      <point x="372" y="-199"/>
      <point x="291" y="-199" type="curve" smooth="yes"/>
      <point x="162" y="-199"/>
      <point x="64" y="-125"/>
    </contour>
    <contour>
      <point x="233" y="423" type="curve" smooth="yes"/>
      <point x="233" y="467"/>
      <point x="271" y="500"/>
      <point x="315" y="500" type="curve" smooth="yes"/>
      <point x="358" y="500"/>
      <point x="391" y="462"/>
      <point x="391" y="419" type="curve" smooth="yes"/>
      <point x="391" y="375"/>
      <point x="357" y="339"/>
      <point x="314" y="339" type="curve" smooth="yes"/>
      <point x="266" y="339"/>
      <point x="233" y="378"/>
    </contour>
  </outline>
</glyph>
<glyph name="atilde" format="2">
  <advance width="553"/>
  <unicode hex="00E3"/>
  <outline>
    <contour>
      <point x="32" y="117" type="curve" smooth="yes"/>
      <point x="32" y="207"/>
      <point x="62" y="251"/>
      <point x="337" y="312" type="curve"/>
      <point x="337" y="351" type="line" smooth="yes"/>
      <point x="337" y="389"/>
      <point x="325" y="444"/>
      <point x="245" y="444" type="curve" smooth="yes"/>
      <point x="218" y="444"/>
      <point x="206" y="441"/>
      <point x="202" y="440" type="curve"/>
      <point x="202" y="345" type="line"/>
      <point x="94" y="345" type="line" smooth="yes"/>
      <point x="83" y="345"/>
      <point x="54" y="348"/>
      <point x="54" y="381" type="curve" smooth="yes"/>
      <point x="54" y="455"/>
      <point x="171" y="500"/>
      <point x="277" y="500" type="curve" smooth="yes"/>
      <point x="392" y="500"/>
      <point x="470" y="474"/>
      <point x="470" y="330" type="curve" smooth="yes"/>
      <point x="470" y="73" type="line" smooth="yes"/>
      <point x="470" y="61"/>
      <point x="480" y="51"/>
      <point x="492" y="50" type="curve" smooth="yes"/>
      <point x="536" y="47" type="line"/>
      <point x="536" y="0" type="line"/>
      <point x="350" y="0" type="line"/>
      <point x="337" y="50" type="line"/>
      <point x="337" y="50"/>
      <point x="251" y="-12"/>
      <point x="163" y="-12" type="curve" smooth="yes"/>
      <point x="91" y="-12"/>
      <point x="32" y="38"/>
    </contour>
    <contour>
      <point x="102" y="560" type="line"/>
      <point x="119" y="629"/>
      <point x="155" y="684"/>
      <point x="222" y="684" type="curve" smooth="yes"/>
      <point x="248" y="684"/>
      <point x="265" y="673"/>
      <point x="284" y="661" type="curve"/>
      <point x="303" y="648"/>
      <point x="324" y="637"/>
      <point x="354" y="637" type="curve" smooth="yes"/>
      <point x="375" y="637"/>
      <point x="395" y="658"/>
      <point x="398" y="684" type="curve"/>
      <point x="452" y="684" type="line"/>
      <point x="435" y="615"/>
      <point x="400" y="560"/>
      <point x="332" y="560" type="curve" smooth="yes"/>
      <point x="307" y="560"/>
      <point x="288" y="571"/>
      <point x="270" y="583" type="curve" smooth="yes"/>
      <point x="250" y="596"/>
      <point x="230" y="608"/>
      <point x="200" y="608" type="curve" smooth="yes"/>
      <point x="178" y="608"/>
      <point x="159" y="587"/>
      <point x="156" y="560" type="curve"/>
    </contour>
    <contour>
      <point x="174" y="145" type="curve" smooth="yes"/>
      <point x="174" y="104"/>
      <point x="203" y="71"/>
      <point x="245" y="71" type="curve" smooth="yes"/>
      <point x="288" y="71"/>
      <point x="330" y="89"/>
      <point x="337" y="93" type="curve"/>
      <point x="337" y="258" type="line"/>
      <point x="208" y="232"/>
      <point x="174" y="205"/>
    </contour>
  </outline>
</glyph>
<glyph name="ntilde" format="2">
  <advance width="625"/>
  <unicode hex="00F1"/>
  <outline>
    <contour>
      <point x="21" y="396" type="line"/>
      <point x="21" y="437" type="line"/>
      <point x="171" y="488" type="line"/>
      <point x="223" y="488" type="line"/>
      <point x="223" y="439" type="line"/>
      <point x="272" y="476"/>
      <point x="340" y="500"/>
      <point x="398" y="500" type="curve" smooth="yes"/>
      <point x="490" y="500"/>
      <point x="534" y="443"/>
      <point x="534" y="326" type="curve" smooth="yes"/>
      <point x="534" y="73" type="line" smooth="yes"/>
      <point x="534" y="61"/>
      <point x="545" y="51"/>
      <point x="557" y="50" type="curve" smooth="yes"/>
      <point x="588" y="47" type="line"/>
      <point x="588" y="0" type="line"/>
      <point x="342" y="0" type="line"/>
      <point x="342" y="47" type="line"/>
      <point x="379" y="50" type="line" smooth="yes"/>
      <point x="391" y="51"/>
      <point x="401" y="61"/>
      <point x="401" y="73" type="curve" smooth="yes"/>
      <point x="401" y="308" type="line" smooth="yes"/>
      <point x="401" y="370"/>
      <point x="370" y="408"/>
      <point x="319" y="408" type="curve" smooth="yes"/>
      <point x="264" y="408"/>
      <point x="223" y="395"/>
      <point x="223" y="395" type="curve"/>
      <point x="223" y="73" type="line" smooth="yes"/>
      <point x="223" y="61"/>
      <point x="234" y="51"/>
      <point x="246" y="50" type="curve" smooth="yes"/>
      <point x="276" y="47" type="line"/>
      <point x="276" y="0" type="line"/>
      <point x="32" y="0" type="line"/>
      <point x="32" y="47" type="line"/>
      <point x="68" y="50" type="line" smooth="yes"/>
      <point x="80" y="51"/>
      <point x="90" y="61"/>
      <point x="90" y="73" type="curve" smooth="yes"/>
      <point x="90" y="396" type="line"/>
    </contour>
    <contour>
      <point x="129" y="560" type="line"/>
      <point x="146" y="629"/>
      <point x="182" y="684"/>
      <point x="249" y="684" type="curve" smooth="yes"/>
      <point x="275" y="684"/>
      <point x="293" y="673"/>
      <point x="312" y="661" type="curve"/>
      <point x="331" y="648"/>
      <point x="352" y="637"/>
      <point x="382" y="637" type="curve" smooth="yes"/>
      <point x="403" y="637"/>
      <point x="423" y="658"/>
      <point x="426" y="684" type="curve"/>
      <point x="480" y="684" type="line"/>
      <point x="463" y="615"/>
      <point x="427" y="560"/>
      <point x="359" y="560" type="curve" smooth="yes"/>
      <point x="334" y="560"/>
      <point x="315" y="571"/>
      <point x="297" y="583" type="curve" smooth="yes"/>
      <point x="277" y="596"/>
      <point x="257" y="608"/>
      <point x="227" y="608" type="curve" smooth="yes"/>
      <point x="205" y="608"/>
      <point x="186" y="587"/>
      <point x="183" y="560" type="curve"/>
    </contour>
  </outline>
</glyph>
<glyph name="abreve" format="2">
  <advance width="553"/>
  <unicode hex="0103"/>
  <outline>
    <contour>
      <point x="32" y="117" type="curve" smooth="yes"/>
      <point x="32" y="207"/>
      <point x="62" y="251"/>
      <point x="337" y="312" type="curve"/>
      <point x="337" y="351" type="line" smooth="yes"/>
      <point x="337" y="389"/>
      <point x="325" y="444"/>
      <point x="245" y="444" type="curve" smooth="yes"/>
      <point x="218" y="444"/>
      <point x="206" y="441"/>
      <point x="202" y="440" type="curve"/>
      <point x="202" y="345" type="line"/>
      <point x="94" y="345" type="line" smooth="yes"/>
      <point x="83" y="345"/>
      <point x="54" y="348"/>
      <point x="54" y="381" type="curve" smooth="yes"/>
      <point x="54" y="455"/>
      <point x="171" y="500"/>
      <point x="277" y="500" type="curve" smooth="yes"/>
      <point x="392" y="500"/>
      <point x="470" y="474"/>
      <point x="470" y="330" type="curve" smooth="yes"/>
      <point x="470" y="73" type="line" smooth="yes"/>
      <point x="470" y="61"/>
      <point x="480" y="51"/>
      <point x="492" y="50" type="curve" smooth="yes"/>
      <point x="536" y="47" type="line"/>
      <point x="536" y="0" type="line"/>
      <point x="350" y="0" type="line"/>
      <point x="337" y="50" type="line"/>
      <point x="337" y="50"/>
      <point x="251" y="-12"/>
      <point x="163" y="-12" type="curve" smooth="yes"/>
      <point x="91" y="-12"/>
      <point x="32" y="38"/>
    </contour>
    <contour>
      <point x="120" y="723" type="curve"/>
      <point x="172" y="723" type="line"/>
      <point x="183" y="672"/>
      <point x="222" y="641"/>
      <point x="276" y="641" type="curve" smooth="yes"/>
      <point x="330" y="641"/>
      <point x="369" y="671"/>
      <point x="380" y="723" type="curve"/>
      <point x="434" y="723" type="line"/>
      <point x="434" y="623"/>
      <point x="372" y="560"/>
      <point x="276" y="560" type="curve" smooth="yes"/>
      <point x="180" y="560"/>
      <point x="120" y="623"/>
    </contour>
    <contour>
      <point x="174" y="145" type="curve" smooth="yes"/>
      <point x="174" y="104"/>
      <point x="203" y="71"/>
      <point x="245" y="71" type="curve" smooth="yes"/>
      <point x="288" y="71"/>
      <point x="330" y="89"/>
      <point x="337" y="93" type="curve"/>
      <point x="337" y="258" type="line"/>
      <point x="208" y="232"/>
      <point x="174" y="205"/>
    </contour>
  </outline>
</glyph>
<glyph name="Aogonek" format="2">
  <advance width="686"/>
  <unicode hex="0104"/>
  <outline>
    <contour>
      <point x="5" y="0" type="line"/>
      <point x="5" y="51" type="line"/>
      <point x="61" y="59" type="line"/>
      <point x="285" y="687" type="line"/>
      <point x="399" y="687" type="line"/>
      <point x="621" y="77" type="line"/>
      <point x="626" y="65"/>
      <point x="629" y="61"/>
      <point x="643" y="58" type="curve"/>
      <point x="681" y="51" type="line"/>
      <point x="681" y="0" type="line"/>
      <point x="405" y="0" type="line"/>
      <point x="405" y="51" type="line"/>
      <point x="464" y="58" type="line"/>
      <point x="469" y="59"/>
      <point x="474" y="65"/>
      <point x="474" y="71" type="curve"/>
      <point x="474" y="72"/>
      <point x="474" y="74"/>
      <point x="473" y="75" type="curve"/>
      <point x="419" y="234" type="line"/>
      <point x="205" y="234" type="line"/>
      <point x="150" y="79" type="line"/>
      <point x="149" y="78"/>
      <point x="149" y="76"/>
      <point x="149" y="75" type="curve"/>
      <point x="149" y="67"/>
      <point x="158" y="59"/>
      <point x="164" y="58" type="curve"/>
      <point x="220" y="51" type="line"/>
      <point x="220" y="0" type="line"/>
    </contour>
    <contour>
      <point x="224" y="293" type="line"/>
      <point x="394" y="293" type="line"/>
      <point x="308" y="533" type="line"/>
    </contour>
    <contour>
      <point x="450" y="-118" type="curve" smooth="yes"/>
      <point x="450" y="-76"/>
      <point x="481" y="-28"/>
      <point x="531" y="7" type="curve"/>
      <point x="594" y="7" type="line"/>
      <point x="552" y="-25"/>
      <point x="531" y="-57"/>
      <point x="531" y="-92" type="curve" smooth="yes"/>
      <point x="531" y="-124"/>
      <point x="551" y="-144"/>
      <point x="581" y="-144" type="curve" smooth="yes"/>
      <point x="597" y="-144"/>
      <point x="618" y="-135"/>
      <point x="628" y="-125" type="curve"/>
      <point x="656" y="-171" type="line"/>
      <point x="628" y="-192"/>
      <point x="598" y="-202"/>
      <point x="561" y="-202" type="curve" smooth="yes"/>
      <point x="494" y="-202"/>
      <point x="450" y="-168"/>
    </contour>
  </outline>
</glyph>
<glyph name="Cacute" format="2">
  <advance width="636"/>
  <unicode hex="0106"/>
  <outline>
    <contour>
      <point x="37" y="336" type="curve" smooth="yes"/>
      <point x="37" y="539"/>
      <point x="186" y="687"/>
      <point x="389" y="687" type="curve" smooth="yes"/>
      <point x="456" y="687"/>
      <point x="492" y="680"/>
      <point x="600" y="645" type="curve"/>
      <point x="600" y="475" type="line"/>
      <point x="522" y="475" type="line"/>
      <point x="500" y="587" type="line" smooth="yes"/>
      <point x="497" y="603"/>
      <point x="455" y="619"/>
      <point x="416" y="619" type="curve" smooth="yes"/>
      <point x="280" y="619"/>
      <point x="194" y="508"/>
      <point x="194" y="334" type="curve" smooth="yes"/>
      <point x="194" y="160"/>
      <point x="284" y="49"/>
      <point x="424" y="49" type="curve" smooth="yes"/>
      <point x="468" y="49"/>
      <point x="496" y="61"/>
      <point x="499" y="81" type="curve"/>
      <point x="521" y="199" type="line"/>
      <point x="600" y="199" type="line"/>
      <point x="600" y="24" type="line"/>
      <point x="542" y="1"/>
      <point x="454" y="-16"/>
      <point x="388" y="-16" type="curve" smooth="yes"/>
      <point x="183" y="-16"/>
      <point x="37" y="130"/>
    </contour>
    <contour>
      <point x="354" y="747" type="line"/>
      <point x="491" y="898" type="line" smooth="yes"/>
      <point x="514" y="923"/>
      <point x="527" y="930"/>
      <point x="554" y="930" type="curve" smooth="yes"/>
      <point x="597" y="930"/>
      <point x="612" y="901"/>
      <point x="612" y="877" type="curve" smooth="yes"/>
      <point x="612" y="864"/>
      <point x="600" y="843"/>
      <point x="586" y="835" type="curve" smooth="yes"/>
      <point x="424" y="747" type="line"/>
    </contour>
  </outline>
</glyph>
<glyph name="gcommaaccent" format="2">
  <advance width="555"/>
  <unicode hex="0123"/>
  <outline>
    <contour>
      <point x="184" y="664" type="curve" smooth="yes"/>
      <point x="184" y="755.5"/>
      <point x="241" y="829"/>
      <point x="348" y="872" type="curve"/>
      <point x="362" y="834" type="line"/>
      <point x="348" y="829"/>
      <point x="268" y="781"/>
      <point x="268" y="698" type="curve" smooth="yes"/>
      <point x="268" y="687" type="line"/>
      <point x="326" y="687" type="line"/>
      <point x="336" y="674.5"/>
      <point x="346" y="647"/>
      <point x="346" y="632" type="curve" smooth="yes"/>
      <point x="346" y="586"/>
      <point x="314" y="560"/>
      <point x="274" y="560" type="curve" smooth="yes"/>
      <point x="218" y="560"/>
      <point x="184" y="606"/>
    </contour>
    <contour>
      <point x="32" y="-76" type="curve" smooth="yes"/>
      <point x="32" y="2"/>
      <point x="96" y="29"/>
      <point x="132" y="29" type="curve"/>
      <point x="123" y="47"/>
      <point x="119" y="69"/>
      <point x="119" y="82" type="curve" smooth="yes"/>
      <point x="119" y="116"/>
      <point x="137" y="141"/>
      <point x="175" y="175" type="curve"/>
      <point x="140" y="183"/>
      <point x="52" y="221"/>
      <point x="52" y="325" type="curve" smooth="yes"/>
      <point x="52" y="445"/>
      <point x="151" y="500"/>
      <point x="273" y="500" type="curve" smooth="yes"/>
      <point x="317" y="500"/>
      <point x="383" y="484"/>
      <point x="416" y="469" type="curve"/>
      <point x="546" y="469" type="line"/>
      <point x="546" y="410" type="line"/>
      <point x="458" y="410" type="line"/>
      <point x="462" y="404"/>
      <point x="478" y="375"/>
      <point x="478" y="334" type="curve" smooth="yes"/>
      <point x="478" y="209"/>
      <point x="351" y="167"/>
      <point x="258" y="167" type="curve" smooth="yes"/>
      <point x="251" y="167"/>
      <point x="245" y="167"/>
      <point x="239" y="168" type="curve"/>
      <point x="221" y="156"/>
      <point x="208" y="143"/>
      <point x="208" y="126" type="curve" smooth="yes"/>
      <point x="208" y="120"/>
      <point x="209" y="115"/>
      <point x="212" y="108" type="curve"/>
      <point x="431" y="90"/>
      <point x="516" y="44"/>
      <point x="516" y="-40" type="curve" smooth="yes"/>
      <point x="516" y="-156"/>
      <point x="377" y="-231"/>
      <point x="246" y="-231" type="curve" smooth="yes"/>
      <point x="141" y="-231"/>
      <point x="32" y="-183"/>
    </contour>
    <contour>
      <point x="164" y="-64" type="curve" smooth="yes"/>
      <point x="164" y="-127"/>
      <point x="221" y="-176"/>
      <point x="274" y="-176" type="curve" smooth="yes"/>
      <point x="337" y="-176"/>
      <point x="387" y="-134"/>
      <point x="387" y="-69" type="curve" smooth="yes"/>
      <point x="387" y="-3"/>
      <point x="254" y="15"/>
      <point x="195" y="15" type="curve"/>
      <point x="179" y="-5"/>
      <point x="164" y="-24"/>
    </contour>
    <contour>
      <point x="190" y="335" type="curve" smooth="yes"/>
      <point x="190" y="276"/>
      <point x="214" y="215"/>
      <point x="269" y="215" type="curve" smooth="yes"/>
      <point x="323" y="215"/>
      <point x="346" y="277"/>
      <point x="346" y="336" type="curve" smooth="yes"/>
      <point x="346" y="391"/>
      <point x="321" y="451"/>
      <point x="271" y="451" type="curve" smooth="yes"/>
      <point x="211" y="451"/>
      <point x="190" y="392"/>
    </contour>
  </outline>
</glyph>
<glyph name="iogonek" format="2">
  <advance width="333"/>
  <unicode hex="012F"/>
  <outline>
    <contour>
      <point x="32" y="0" type="line"/>
      <point x="32" y="47" type="line"/>
      <point x="78" y="50" type="line" smooth="yes"/>
      <point x="90" y="51"/>
      <point x="100" y="61"/>
      <point x="100" y="73" type="curve" smooth="yes"/>
      <point x="100" y="409" type="line"/>
      <point x="36" y="409" type="line"/>
      <point x="36" y="450" type="line"/>
      <point x="182" y="500" type="line"/>
      <point x="233" y="500" type="line"/>
      <point x="233" y="73" type="line" smooth="yes"/>
      <point x="233" y="61"/>
      <point x="244" y="51"/>
      <point x="256" y="50" type="curve" smooth="yes"/>
      <point x="304" y="47" type="line"/>
      <point x="304" y="0" type="line"/>
    </contour>
    <contour>
      <point x="56" y="-118" type="curve" smooth="yes"/>
      <point x="56" y="-76"/>
      <point x="86" y="-28"/>
      <point x="136" y="7" type="curve"/>
      <point x="200" y="7" type="line"/>
      <point x="158" y="-25"/>
      <point x="136" y="-57"/>
      <point x="136" y="-92" type="curve" smooth="yes"/>
      <point x="136" y="-124"/>
      <point x="156" y="-144"/>
      <point x="186" y="-144" type="curve" smooth="yes"/>
      <point x="202" y="-144"/>
      <point x="224" y="-135"/>
      <point x="234" y="-125" type="curve"/>
      <point x="262" y="-171" type="line"/>
      <point x="234" y="-192"/>
      <point x="203" y="-202"/>
      <point x="166" y="-202" type="curve" smooth="yes"/>
      <point x="99" y="-202"/>
      <point x="56" y="-168"/>
    </contour>
    <contour>
      <point x="92" y="663" type="curve" smooth="yes"/>
      <point x="92" y="706"/>
      <point x="126" y="740"/>
      <point x="169" y="740" type="curve" smooth="yes"/>
      <point x="212" y="740"/>
      <point x="247" y="706"/>
      <point x="247" y="663" type="curve" smooth="yes"/>
      <point x="247" y="620"/>
      <point x="212" y="585"/>
      <point x="169" y="585" type="curve" smooth="yes"/>
      <point x="126" y="585"/>
      <point x="92" y="620"/>
    </contour>
  </outline>
</glyph>
<glyph name="ij" format="2">
  <advance width="657"/>
  <unicode hex="0133"/>
  <outline>
    <contour>
      <point x="32" y="0" type="line"/>
      <point x="32" y="47" type="line"/>
      <point x="78" y="50" type="line" smooth="yes"/>
      <point x="90" y="51"/>
      <point x="100" y="61"/>
      <point x="100" y="73" type="curve" smooth="yes"/>
      <point x="100" y="409" type="line"/>
      <point x="36" y="409" type="line"/>
      <point x="36" y="450" type="line"/>
      <point x="182" y="500" type="line"/>
      <point x="233" y="500" type="line"/>
      <point x="233" y="73" type="line" smooth="yes"/>
      <point x="233" y="61"/>
      <point x="244" y="51"/>
      <point x="256" y="50" type="curve" smooth="yes"/>
      <point x="304" y="47" type="line"/>
      <point x="304" y="0" type="line"/>
    </contour>
    <contour>
      <point x="92" y="663" type="curve" smooth="yes"/>
      <point x="92" y="706"/>
      <point x="126" y="740"/>
      <point x="169" y="740" type="curve" smooth="yes"/>
      <point x="212" y="740"/>
      <point x="247" y="706"/>
      <point x="247" y="663" type="curve" smooth="yes"/>
      <point x="247" y="620"/>
      <point x="212" y="585"/>
      <point x="169" y="585" type="curve" smooth="yes"/>
      <point x="126" y="585"/>
      <point x="92" y="620"/>
    </contour>
    <contour>
      <point x="243" y="-155" type="curve" smooth="yes"/>
      <point x="243" y="-119"/>
      <point x="273" y="-91"/>
      <point x="307" y="-88" type="curve"/>
      <point x="405" y="-187" type="line"/>
      <point x="433" y="-135"/>
      <point x="433" y="-23"/>
      <point x="433" y="-5" type="curve" smooth="yes"/>
      <point x="433" y="409" type="line"/>
      <point x="362" y="409" type="line"/>
      <point x="362" y="450" type="line"/>
      <point x="515" y="500" type="line"/>
      <point x="566" y="500" type="line"/>
      <point x="566" y="47" type="line" smooth="yes"/>
      <point x="566" y="-102"/>
      <point x="497" y="-231"/>
      <point x="343" y="-231" type="curve" smooth="yes"/>
      <point x="289" y="-231"/>
      <point x="243" y="-204"/>
    </contour>
    <contour>
      <point x="421" y="663" type="curve" smooth="yes"/>
      <point x="421" y="706"/>
      <point x="456" y="740"/>
      <point x="499" y="740" type="curve" smooth="yes"/>
      <point x="542" y="740"/>
      <point x="576" y="706"/>
      <point x="576" y="663" type="curve" smooth="yes"/>
      <point x="576" y="620"/>
      <point x="542" y="585"/>
      <point x="499" y="585" type="curve" smooth="yes"/>
      <point x="456" y="585"/>
      <point x="421" y="620"/>
    </contour>
  </outline>
</glyph>
<glyph name="Lacute" format="2">
  <advance width="554"/>
  <unicode hex="0139"/>
  <outline>
    <contour>
      <point x="27" y="0" type="line"/>
      <point x="27" y="51" type="line"/>
      <point x="82" y="56" type="line" smooth="yes"/>
      <point x="94" y="57"/>
      <point x="104" y="65"/>
      <point x="104" y="78" type="curve" smooth="yes"/>
      <point x="104" y="593" type="line" smooth="yes"/>
      <point x="104" y="606"/>
      <point x="94" y="614"/>
      <point x="82" y="615" type="curve" smooth="yes"/>
      <point x="27" y="620" type="line"/>
      <point x="27" y="671" type="line"/>
      <point x="325" y="671" type="line"/>
      <point x="325" y="620" type="line"/>
      <point x="269" y="615" type="line" smooth="yes"/>
      <point x="257" y="614"/>
      <point x="247" y="606"/>
      <point x="247" y="593" type="curve" smooth="yes"/>
      <point x="247" y="61" type="line"/>
      <point x="421" y="61" type="line" smooth="yes"/>
      <point x="435" y="61"/>
      <point x="444" y="76"/>
      <point x="445" y="84" type="curve" smooth="yes"/>
      <point x="458" y="199" type="line"/>
      <point x="538" y="199" type="line"/>
      <point x="538" y="0" type="line"/>
    </contour>
    <contour>
      <point x="105" y="747" type="line"/>
      <point x="242" y="898" type="line" smooth="yes"/>
      <point x="265" y="923"/>
      <point x="278" y="930"/>
      <point x="305" y="930" type="curve" smooth="yes"/>
      <point x="348" y="930"/>
      <point x="363" y="901"/>
      <point x="363" y="877" type="curve" smooth="yes"/>
      <point x="363" y="864"/>
      <point x="351" y="843"/>
      <point x="337" y="835" type="curve" smooth="yes"/>
      <point x="175" y="747" type="line"/>
    </contour>
  </outline>
</glyph>
<glyph name="lacute" format="2">
  <advance width="333"/>
  <unicode hex="013A"/>
  <outline>
    <contour>
      <point x="29" y="649" type="line"/>
      <point x="29" y="690" type="line"/>
      <point x="182" y="740" type="line"/>
      <point x="233" y="740" type="line"/>
      <point x="233" y="73" type="line" smooth="yes"/>
      <point x="233" y="60"/>
      <point x="242" y="51"/>
      <point x="255" y="50" type="curve" smooth="yes"/>
      <point x="305" y="47" type="line"/>
      <point x="305" y="0" type="line"/>
      <point x="29" y="0" type="line"/>
      <point x="29" y="47" type="line"/>
      <point x="78" y="50" type="line" smooth="yes"/>
      <point x="91" y="51"/>
      <point x="100" y="60"/>
      <point x="100" y="73" type="curve" smooth="yes"/>
      <point x="100" y="649" type="line"/>
    </contour>
    <contour>
      <point x="96" y="800" type="line"/>
      <point x="233" y="951" type="line" smooth="yes"/>
      <point x="256" y="976"/>
      <point x="269" y="983"/>
      <point x="296" y="983" type="curve" smooth="yes"/>
      <point x="339" y="983"/>
      <point x="354" y="954"/>
      <point x="354" y="930" type="curve" smooth="yes"/>
      <point x="354" y="917"/>
      <point x="342" y="896"/>
      <point x="328" y="888" type="curve" smooth="yes"/>
      <point x="166" y="800" type="line"/>
    </contour>
  </outline>
</glyph>
<glyph name="obreve" format="2">
  <advance width="582"/>
  <unicode hex="014F"/>
  <outline>
    <contour>
      <point x="30" y="242" type="curve" smooth="yes"/>
      <point x="30" y="406"/>
      <point x="139" y="500"/>
      <point x="294" y="500" type="curve" smooth="yes"/>
      <point x="459" y="500"/>
      <point x="552" y="393"/>
      <point x="552" y="241" type="curve" smooth="yes"/>
      <point x="552" y="92"/>
      <point x="453" y="-12"/>
      <point x="287" y="-12" type="curve" smooth="yes"/>
      <point x="135" y="-12"/>
      <point x="30" y="84"/>
    </contour>
    <contour>
      <point x="138" y="723" type="curve"/>
      <point x="190" y="723" type="line"/>
      <point x="201" y="672"/>
      <point x="240" y="641"/>
      <point x="294" y="641" type="curve" smooth="yes"/>
      <point x="348" y="641"/>
      <point x="387" y="671"/>
      <point x="398" y="723" type="curve"/>
      <point x="450" y="723" type="line"/>
      <point x="450" y="623"/>
      <point x="390" y="560"/>
      <point x="294" y="560" type="curve" smooth="yes"/>
      <point x="198" y="560"/>
      <point x="138" y="623"/>
    </contour>
    <contour>
      <point x="180" y="246" type="curve" smooth="yes"/>
      <point x="180" y="160"/>
      <point x="198" y="45"/>
      <point x="291" y="45" type="curve" smooth="yes"/>
      <point x="382" y="45"/>
      <point x="402" y="153"/>
      <point x="402" y="242" type="curve" smooth="yes"/>
      <point x="402" y="327"/>
      <point x="382" y="443"/>
      <point x="290" y="443" type="curve" smooth="yes"/>
      <point x="200" y="443"/>
      <point x="180" y="332"/>
    </contour>
  </outline>
</glyph>
<glyph name="oe" format="2">
  <advance width="866"/>
  <unicode hex="0153"/>
  <outline>
    <contour>
      <point x="32" y="243" type="curve" smooth="yes"/>
      <point x="32" y="385"/>
      <point x="116" y="501"/>
      <point x="280" y="501" type="curve" smooth="yes"/>
      <point x="413" y="501"/>
      <point x="465" y="409"/>
      <point x="465" y="409" type="curve"/>
      <point x="465" y="409"/>
      <point x="507" y="501"/>
      <point x="640" y="501" type="curve" smooth="yes"/>
      <point x="776" y="501"/>
      <point x="834" y="396"/>
      <point x="834" y="275" type="curve" smooth="yes"/>
      <point x="834" y="271.133"/>
      <point x="834" y="256.59"/>
      <point x="834" y="253" type="curve"/>
      <point x="522" y="253" type="line"/>
      <point x="522" y="173"/>
      <point x="564" y="76"/>
      <point x="677" y="76" type="curve" smooth="yes"/>
      <point x="771" y="76"/>
      <point x="834" y="129"/>
      <point x="834" y="129" type="curve"/>
      <point x="834" y="50" type="line"/>
      <point x="834" y="50"/>
      <point x="764" y="-7"/>
      <point x="642" y="-7" type="curve" smooth="yes"/>
      <point x="494" y="-7"/>
      <point x="460" y="84"/>
      <point x="459" y="88" type="curve"/>
      <point x="458" y="84"/>
      <point x="425" y="-7"/>
      <point x="270" y="-7" type="curve" smooth="yes"/>
      <point x="112" y="-7"/>
      <point x="32" y="110"/>
    </contour>
    <contour>
      <point x="177" y="255" type="curve" smooth="yes"/>
      <point x="177" y="157"/>
      <point x="193" y="48"/>
      <point x="284" y="48" type="curve" smooth="yes"/>
      <point x="369" y="48"/>
      <point x="387" y="156"/>
      <point x="387" y="234" type="curve" smooth="yes"/>
      <point x="387" y="346"/>
      <point x="363" y="446"/>
      <point x="285" y="446" type="curve" smooth="yes"/>
      <point x="192" y="446"/>
      <point x="177" y="326"/>
    </contour>
    <contour>
      <point x="527" y="309" type="curve"/>
      <point x="693" y="309" type="line"/>
      <point x="693" y="328" type="line" smooth="yes"/>
      <point x="693" y="388"/>
      <point x="675" y="446"/>
      <point x="614" y="446" type="curve" smooth="yes"/>
      <point x="548" y="446"/>
      <point x="527" y="363"/>
    </contour>
  </outline>
</glyph>
<glyph name="rcommaaccent" format="2">
  <advance width="432"/>
  <unicode hex="0157"/>
  <outline>
    <contour>
      <point x="17" y="408" type="line"/>
      <point x="17" y="449" type="line"/>
      <point x="172" y="500" type="line"/>
      <point x="224" y="500" type="line"/>
      <point x="224" y="394" type="line"/>
      <point x="249" y="426"/>
      <point x="313" y="500"/>
      <point x="359" y="500" type="curve" smooth="yes"/>
      <point x="382" y="500"/>
      <point x="410" y="491"/>
      <point x="422" y="482" type="curve"/>
      <point x="422" y="330" type="line"/>
      <point x="354" y="330" type="line"/>
      <point x="346" y="343"/>
      <point x="328" y="370"/>
      <point x="289" y="370" type="curve" smooth="yes"/>
      <point x="251" y="370"/>
      <point x="224" y="352"/>
      <point x="224" y="352" type="curve"/>
      <point x="224" y="72" type="line" smooth="yes"/>
      <point x="224" y="60"/>
      <point x="233" y="49"/>
      <point x="246" y="49" type="curve"/>
      <point x="310" y="46" type="line"/>
      <point x="310" y="-1" type="line"/>
      <point x="24" y="-1" type="line"/>
      <point x="24" y="46" type="line"/>
      <point x="68" y="49" type="line" smooth="yes"/>
      <point x="80" y="50"/>
      <point x="90" y="60"/>
      <point x="90" y="72" type="curve" smooth="yes"/>
      <point x="90" y="408" type="line"/>
    </contour>
    <contour>
      <point x="90" y="-119" type="curve" smooth="yes"/>
      <point x="90" y="-80"/>
      <point x="123" y="-61"/>
      <point x="158" y="-61" type="curve" smooth="yes"/>
      <point x="209" y="-61"/>
      <point x="244" y="-99"/>
      <point x="244" y="-146" type="curve" smooth="yes"/>
      <point x="244" y="-214"/>
      <point x="180" y="-262"/>
      <point x="103" y="-277" type="curve"/>
      <point x="103" y="-237" type="line"/>
      <point x="142" y="-226"/>
      <point x="173" y="-195"/>
      <point x="173" y="-163" type="curve"/>
      <point x="110" y="-163" type="line"/>
      <point x="97" y="-151"/>
      <point x="90" y="-135"/>
    </contour>
  </outline>
</glyph>
<glyph name="Scedilla" format="2">
  <advance width="536"/>
  <unicode hex="015E"/>
  <outline>
    <contour>
      <point x="37" y="22" type="curve"/>
      <point x="37" y="205" type="line"/>
      <point x="116" y="205" type="line"/>
      <point x="133" y="84" type="line"/>
      <point x="135" y="65"/>
      <point x="173" y="52"/>
      <point x="223" y="52" type="curve" smooth="yes"/>
      <point x="298" y="52"/>
      <point x="352" y="91"/>
      <point x="352" y="146" type="curve" smooth="yes"/>
      <point x="352" y="203"/>
      <point x="310" y="248"/>
      <point x="213" y="294" type="curve" smooth="yes"/>
      <point x="187" y="306" type="line" smooth="yes"/>
      <point x="95" y="350"/>
      <point x="51" y="407"/>
      <point x="51" y="484" type="curve" smooth="yes"/>
      <point x="51" y="603"/>
      <point x="150" y="687"/>
      <point x="292" y="687" type="curve" smooth="yes"/>
      <point x="394" y="687"/>
      <point x="481" y="647"/>
      <point x="481" y="647" type="curve"/>
      <point x="481" y="483" type="line"/>
      <point x="404" y="483" type="line"/>
      <point x="387" y="590" type="line"/>
      <point x="383" y="609"/>
      <point x="356" y="620"/>
      <point x="313" y="620" type="curve" smooth="yes"/>
      <point x="240" y="620"/>
      <point x="190" y="584"/>
      <point x="190" y="530" type="curve" smooth="yes"/>
      <point x="190" y="476"/>
      <point x="225" y="440"/>
      <point x="325" y="391" type="curve" smooth="yes"/>
      <point x="350" y="379" type="line" smooth="yes"/>
      <point x="455" y="328"/>
      <point x="499" y="273"/>
      <point x="499" y="196" type="curve" smooth="yes"/>
      <point x="499" y="70"/>
      <point x="391" y="-16"/>
      <point x="232" y="-16" type="curve" smooth="yes"/>
      <point x="128" y="-16"/>
      <point x="37" y="22"/>
    </contour>
    <contour>
      <point x="151" y="-252" type="curve"/>
      <point x="151" y="-202" type="line"/>
      <point x="151" y="-202"/>
      <point x="190" y="-210"/>
      <point x="214" y="-210" type="curve" smooth="yes"/>
      <point x="240" y="-210"/>
      <point x="273" y="-204"/>
      <point x="273" y="-176" type="curve" smooth="yes"/>
      <point x="273" y="-152"/>
      <point x="252" y="-142"/>
      <point x="229" y="-142" type="curve" smooth="yes"/>
      <point x="222" y="-142"/>
      <point x="207" y="-144"/>
      <point x="207" y="-144" type="curve"/>
      <point x="207" y="-7" type="line"/>
      <point x="257" y="-7" type="line"/>
      <point x="257" y="-89" type="line"/>
      <point x="260" y="-88"/>
      <point x="263" y="-87"/>
      <point x="271" y="-87" type="curve" smooth="yes"/>
      <point x="317" y="-87"/>
      <point x="355" y="-110"/>
      <point x="355" y="-163" type="curve" smooth="yes"/>
      <point x="355" y="-228"/>
      <point x="303" y="-263"/>
      <point x="232" y="-263" type="curve" smooth="yes"/>
      <point x="191" y="-263"/>
      <point x="151" y="-252"/>
    </contour>
  </outline>
</glyph>
<glyph name="uni0163" format="2">
  <advance width="375"/>
  <unicode hex="0163"/>
  <outline>
    <contour>
      <point x="130" y="-248" type="curve"/>
      <point x="130" y="-198" type="line"/>
      <point x="149.5" y="-202"/>
      <point x="181" y="-206"/>
      <point x="193" y="-206" type="curve" smooth="yes"/>
      <point x="219" y="-206"/>
      <point x="252" y="-200"/>
      <point x="252" y="-172" type="curve" smooth="yes"/>
      <point x="252" y="-148"/>
      <point x="231" y="-138"/>
      <point x="208" y="-138" type="curve" smooth="yes"/>
      <point x="201" y="-138"/>
      <point x="186" y="-140"/>
      <point x="186" y="-140" type="curve"/>
      <point x="186" y="-3" type="line"/>
      <point x="236" y="-3" type="line"/>
      <point x="236" y="-85" type="line"/>
      <point x="239" y="-84"/>
      <point x="242" y="-83"/>
      <point x="250" y="-83" type="curve" smooth="yes"/>
      <point x="296" y="-83"/>
      <point x="334" y="-106"/>
      <point x="334" y="-159" type="curve" smooth="yes"/>
      <point x="334" y="-224"/>
      <point x="282" y="-259"/>
      <point x="211" y="-259" type="curve" smooth="yes"/>
      <point x="190.5" y="-259"/>
      <point x="150" y="-253.5"/>
    </contour>
    <contour>
      <point x="24" y="424" type="line"/>
      <point x="24" y="464" type="line"/>
      <point x="101" y="510" type="line"/>
      <point x="155" y="616" type="line"/>
      <point x="224" y="616" type="line"/>
      <point x="224" y="488" type="line"/>
      <point x="363" y="488" type="line"/>
      <point x="363" y="424" type="line"/>
      <point x="224" y="424" type="line"/>
      <point x="224" y="152" type="line" smooth="yes"/>
      <point x="224" y="88"/>
      <point x="253" y="65"/>
      <point x="306" y="65" type="curve" smooth="yes"/>
      <point x="338" y="65"/>
      <point x="371" y="72"/>
      <point x="371" y="72" type="curve"/>
      <point x="371" y="22" type="line"/>
      <point x="371" y="22"/>
      <point x="292" y="-12"/>
      <point x="211" y="-12" type="curve" smooth="yes"/>
      <point x="122" y="-12"/>
      <point x="90" y="27"/>
      <point x="90" y="111" type="curve" smooth="yes"/>
      <point x="90" y="424" type="line"/>
    </contour>
  </outline>
</glyph>
<glyph name="ubreve" format="2">
  <advance width="620"/>
  <unicode hex="016D"/>
  <outline>
    <contour>
      <point x="25" y="396" type="line"/>
      <point x="25" y="437" type="line"/>
      <point x="172" y="488" type="line"/>
      <point x="224" y="488" type="line"/>
      <point x="224" y="190" type="line" smooth="yes"/>
      <point x="224" y="141"/>
      <point x="231" y="79"/>
      <point x="316" y="79" type="curve" smooth="yes"/>
      <point x="358" y="79"/>
      <point x="396" y="96"/>
      <point x="396" y="96" type="curve"/>
      <point x="396" y="396" type="line"/>
      <point x="333" y="396" type="line"/>
      <point x="333" y="437" type="line"/>
      <point x="479" y="488" type="line"/>
      <point x="530" y="488" type="line"/>
      <point x="530" y="73" type="line" smooth="yes"/>
      <point x="530" y="61"/>
      <point x="541" y="51"/>
      <point x="553" y="50" type="curve" smooth="yes"/>
      <point x="597" y="47" type="line"/>
      <point x="597" y="0" type="line"/>
      <point x="396" y="0" type="line"/>
      <point x="396" y="55" type="line"/>
      <point x="396" y="55"/>
      <point x="311" y="-12"/>
      <point x="238" y="-12" type="curve" smooth="yes"/>
      <point x="124" y="-12"/>
      <point x="90" y="49"/>
      <point x="90" y="151" type="curve" smooth="yes"/>
      <point x="90" y="396" type="line"/>
    </contour>
    <contour>
      <point x="154" y="723" type="curve"/>
      <point x="206" y="723" type="line"/>
      <point x="217" y="672"/>
      <point x="256" y="641"/>
      <point x="310" y="641" type="curve" smooth="yes"/>
      <point x="364" y="641"/>
      <point x="403" y="671"/>
      <point x="414" y="723" type="curve"/>
      <point x="468" y="723" type="line"/>
      <point x="468" y="623"/>
      <point x="406" y="560"/>
      <point x="310" y="560" type="curve" smooth="yes"/>
      <point x="214" y="560"/>
      <point x="154" y="623"/>
    </contour>
  </outline>
</glyph>
<glyph name="wcircumflex" format="2">
  <advance width="840"/>
  <unicode hex="0175"/>
  <outline>
    <contour>
      <point x="10" y="441" type="line"/>
      <point x="10" y="488" type="line"/>
      <point x="266" y="488" type="line"/>
      <point x="266" y="441" type="line"/>
      <point x="223" y="438" type="line"/>
      <point x="214" y="437"/>
      <point x="207" y="430"/>
      <point x="207" y="421" type="curve"/>
      <point x="207" y="419"/>
      <point x="208" y="418"/>
      <point x="208" y="416" type="curve"/>
      <point x="286" y="141" type="line"/>
      <point x="398" y="488" type="line"/>
      <point x="508" y="488" type="line"/>
      <point x="615" y="139" type="line"/>
      <point x="698" y="416" type="line"/>
      <point x="699" y="418"/>
      <point x="699" y="419"/>
      <point x="699" y="421" type="curve"/>
      <point x="699" y="429"/>
      <point x="693" y="437"/>
      <point x="684" y="438" type="curve"/>
      <point x="640" y="441" type="line"/>
      <point x="640" y="488" type="line"/>
      <point x="832" y="488" type="line"/>
      <point x="832" y="441" type="line"/>
      <point x="776" y="434" type="line"/>
      <point x="642" y="0" type="line"/>
      <point x="531" y="0" type="line"/>
      <point x="422" y="355" type="line"/>
      <point x="307" y="0" type="line"/>
      <point x="198" y="0" type="line"/>
      <point x="69" y="435" type="line"/>
    </contour>
    <contour>
      <point x="251" y="560" type="line"/>
      <point x="362" y="731" type="line"/>
      <point x="480" y="731" type="line"/>
      <point x="591" y="560" type="line"/>
      <point x="508" y="560" type="line"/>
      <point x="421" y="655" type="line"/>
      <point x="334" y="560" type="line"/>
    </contour>
  </outline>
</glyph>
<glyph name="Zdotaccent" format="2">
  <advance width="581"/>
  <unicode hex="017B"/>
  <outline>
    <contour>
      <point x="37" y="0" type="line"/>
      <point x="37" y="59" type="line"/>
      <point x="380" y="610" type="line"/>
      <point x="159" y="610" type="line" smooth="yes"/>
      <point x="151" y="610"/>
      <point x="146" y="606"/>
      <point x="145" y="598" type="curve"/>
      <point x="127" y="489" type="line"/>
      <point x="54" y="489" type="line"/>
      <point x="54" y="671" type="line"/>
      <point x="539" y="671" type="line"/>
      <point x="539" y="612" type="line"/>
      <point x="197" y="62" type="line"/>
      <point x="436" y="62" type="line" smooth="yes"/>
      <point x="444" y="62"/>
      <point x="449" y="66"/>
      <point x="451" y="73" type="curve"/>
      <point x="471" y="197" type="line"/>
      <point x="544" y="197" type="line"/>
      <point x="544" y="0" type="line"/>
    </contour>
    <contour>
      <point x="228" y="820" type="curve" smooth="yes"/>
      <point x="228" y="857"/>
      <point x="256" y="888"/>
      <point x="296" y="888" type="curve" smooth="yes"/>
      <point x="334" y="888"/>
      <point x="364" y="858"/>
      <point x="364" y="820" type="curve" smooth="yes"/>
      <point x="364" y="783"/>
      <point x="335" y="752"/>
      <point x="296" y="752" type="curve" smooth="yes"/>
      <point x="257" y="752"/>
      <point x="228" y="781"/>
    </contour>
  </outline>
</glyph>
<glyph name="Zcaron" format="2">
  <advance width="581"/>
  <unicode hex="017D"/>
  <outline>
    <contour>
      <point x="37" y="0" type="line"/>
      <point x="37" y="59" type="line"/>
      <point x="380" y="610" type="line"/>
      <point x="159" y="610" type="line" smooth="yes"/>
      <point x="151" y="610"/>
      <point x="146" y="606"/>
      <point x="145" y="598" type="curve"/>
      <point x="127" y="489" type="line"/>
      <point x="54" y="489" type="line"/>
      <point x="54" y="671" type="line"/>
      <point x="539" y="671" type="line"/>
      <point x="539" y="612" type="line"/>
      <point x="197" y="62" type="line"/>
      <point x="436" y="62" type="line" smooth="yes"/>
      <point x="444" y="62"/>
      <point x="449" y="66"/>
      <point x="451" y="73" type="curve"/>
      <point x="471" y="197" type="line"/>
      <point x="544" y="197" type="line"/>
      <point x="544" y="0" type="line"/>
    </contour>
    <contour>
      <point x="126" y="918" type="line"/>
      <point x="210" y="918" type="line"/>
      <point x="296" y="824" type="line"/>
      <point x="384" y="918" type="line"/>
      <point x="466" y="918" type="line"/>
      <point x="356" y="747" type="line"/>
      <point x="238" y="747" type="line"/>
    </contour>
  </outline>
</glyph>
<glyph name="uni0183" format="2">
  <advance width="598"/>
  <unicode hex="0183"/>
  <outline>
    <contour>
      <point x="90" y="0" type="line"/>
      <point x="90" y="740" type="line"/>
      <point x="521" y="740" type="line"/>
      <point x="521" y="576" type="line"/>
      <point x="449" y="576" type="line"/>
      <point x="436" y="661" type="line"/>
      <point x="433" y="677"/>
      <point x="427" y="683"/>
      <point x="414" y="683" type="curve" smooth="yes"/>
      <point x="239" y="683" type="line" smooth="yes"/>
      <point x="229" y="683"/>
      <point x="224" y="674"/>
      <point x="224" y="668" type="curve" smooth="yes"/>
      <point x="224" y="454" type="line"/>
      <point x="239" y="464"/>
      <point x="293" y="500"/>
      <point x="369" y="500" type="curve" smooth="yes"/>
      <point x="476" y="500"/>
      <point x="566" y="417"/>
      <point x="566" y="274" type="curve" smooth="yes"/>
      <point x="566" y="120"/>
      <point x="460" y="0"/>
      <point x="273" y="0" type="curve" smooth="yes"/>
    </contour>
    <contour>
      <point x="224" y="56" type="line"/>
      <point x="232" y="55"/>
      <point x="239" y="55"/>
      <point x="245" y="55" type="curve" smooth="yes"/>
      <point x="356" y="55"/>
      <point x="421" y="102"/>
      <point x="421" y="244" type="curve" smooth="yes"/>
      <point x="421" y="352"/>
      <point x="371" y="417"/>
      <point x="277" y="417" type="curve" smooth="yes"/>
      <point x="253" y="417"/>
      <point x="237" y="414"/>
      <point x="224" y="411" type="curve"/>
    </contour>
  </outline>
</glyph>
<glyph name="florin" format="2">
  <advance width="347"/>
  <unicode hex="0192"/>
  <outline>
    <contour>
      <point x="-99" y="-155" type="curve" smooth="yes"/>
      <point x="-99" y="-124"/>
      <point x="-69" y="-99"/>
      <point x="-37" y="-89" type="curve"/>
      <point x="62" y="-182" type="line"/>
      <point x="82" y="-152"/>
      <point x="93" y="-120"/>
      <point x="93" y="-29" type="curve" smooth="yes"/>
      <point x="93" y="412" type="line"/>
      <point x="29" y="412" type="line"/>
      <point x="29" y="452" type="line"/>
      <point x="93" y="485" type="line"/>
      <point x="93" y="537"/>
      <point x="108" y="583"/>
      <point x="135" y="627" type="curve" smooth="yes"/>
      <point x="175" y="693"/>
      <point x="242" y="740"/>
      <point x="324" y="740" type="curve" smooth="yes"/>
      <point x="364" y="740"/>
      <point x="420" y="717"/>
      <point x="420" y="660" type="curve" smooth="yes"/>
      <point x="420" y="629"/>
      <point x="390" y="605"/>
      <point x="358" y="594" type="curve"/>
      <point x="259" y="687" type="line"/>
      <point x="239" y="657"/>
      <point x="227" y="625"/>
      <point x="227" y="534" type="curve" smooth="yes"/>
      <point x="227" y="476" type="line"/>
      <point x="336" y="476" type="line"/>
      <point x="336" y="412" type="line"/>
      <point x="227" y="412" type="line"/>
      <point x="227" y="27" type="line" smooth="yes"/>
      <point x="227" y="-106"/>
      <point x="133" y="-231"/>
      <point x="-3" y="-231" type="curve" smooth="yes"/>
      <point x="-43" y="-231"/>
      <point x="-99" y="-212"/>
    </contour>
  </outline>
</glyph>
<glyph name="uni0199" format="2">
  <advance width="591"/>
  <unicode hex="0199"/>
  <outline>
    <contour>
      <point x="26" y="0" type="line"/>
      <point x="26" y="47" type="line"/>
      <point x="68" y="50" type="line" smooth="yes"/>
      <point x="80" y="51"/>
      <point x="90" y="61"/>
      <point x="90" y="73" type="curve" smooth="yes"/>
      <point x="90" y="481" type="line" smooth="yes"/>
      <point x="90" y="610"/>
      <point x="184" y="740"/>
      <point x="322" y="740" type="curve" smooth="yes"/>
      <point x="362" y="740"/>
      <point x="418" y="721"/>
      <point x="418" y="664" type="curve" smooth="yes"/>
      <point x="418" y="633"/>
      <point x="388" y="609"/>
      <point x="356" y="598" type="curve"/>
      <point x="257" y="691" type="line"/>
      <point x="237" y="661"/>
      <point x="224" y="629"/>
      <point x="224" y="538" type="curve" smooth="yes"/>
      <point x="224" y="260" type="line"/>
      <point x="246" y="260" type="line"/>
      <point x="380" y="420" type="line"/>
      <point x="382" y="423"/>
      <point x="384" y="425"/>
      <point x="384" y="428" type="curve" smooth="yes"/>
      <point x="384" y="432"/>
      <point x="381" y="436"/>
      <point x="373" y="437" type="curve" smooth="yes"/>
      <point x="335" y="441" type="line"/>
      <point x="335" y="488" type="line"/>
      <point x="543" y="488" type="line"/>
      <point x="543" y="441" type="line"/>
      <point x="477" y="433" type="line"/>
      <point x="370" y="311" type="line"/>
      <point x="524" y="52" type="line"/>
      <point x="583" y="47" type="line"/>
      <point x="583" y="0" type="line"/>
      <point x="381" y="0" type="line"/>
      <point x="381" y="41" type="line"/>
      <point x="271" y="226" type="line"/>
      <point x="224" y="226" type="line"/>
      <point x="224" y="73" type="line" smooth="yes"/>
      <point x="224" y="61"/>
      <point x="233" y="51"/>
      <point x="246" y="50" type="curve" smooth="yes"/>
      <point x="286" y="47" type="line"/>
      <point x="286" y="0" type="line"/>
    </contour>
  </outline>
</glyph>
<glyph name="uni019A" format="2">
  <advance width="333"/>
  <unicode hex="019A"/>
  <outline>
    <contour>
      <point x="0" y="319" type="line"/>
      <point x="0" y="382" type="line"/>
      <point x="333" y="382" type="line"/>
      <point x="333" y="319" type="line"/>
    </contour>
    <contour>
      <point x="29" y="649" type="line"/>
      <point x="29" y="690" type="line"/>
      <point x="182" y="740" type="line"/>
      <point x="233" y="740" type="line"/>
      <point x="233" y="73" type="line" smooth="yes"/>
      <point x="233" y="60"/>
      <point x="242" y="51"/>
      <point x="255" y="50" type="curve" smooth="yes"/>
      <point x="305" y="47" type="line"/>
      <point x="305" y="0" type="line"/>
      <point x="29" y="0" type="line"/>
      <point x="29" y="47" type="line"/>
      <point x="78" y="50" type="line" smooth="yes"/>
      <point x="91" y="51"/>
      <point x="100" y="60"/>
      <point x="100" y="73" type="curve" smooth="yes"/>
      <point x="100" y="649" type="line"/>
    </contour>
  </outline>
</glyph>
<glyph name="uni01A2" format="2">
  <advance width="1062"/>
  <unicode hex="01A2"/>
  <outline>
    <contour>
      <point x="36" y="336" type="curve" smooth="yes"/>
      <point x="36" y="538"/>
      <point x="156" y="687"/>
      <point x="378" y="687" type="curve" smooth="yes"/>
      <point x="483" y="687"/>
      <point x="545" y="676"/>
      <point x="597" y="664" type="curve" smooth="yes"/>
      <point x="635" y="655"/>
      <point x="668" y="650"/>
      <point x="711" y="650" type="curve" smooth="yes"/>
      <point x="763" y="650"/>
      <point x="799" y="659"/>
      <point x="856" y="687" type="curve"/>
      <point x="932" y="687" type="line"/>
      <point x="932" y="-141" type="line" smooth="yes"/>
      <point x="932" y="-152"/>
      <point x="941" y="-162"/>
      <point x="954" y="-163" type="curve"/>
      <point x="1031" y="-166" type="line"/>
      <point x="1031" y="-218" type="line"/>
      <point x="682" y="-218" type="line"/>
      <point x="682" y="-166" type="line"/>
      <point x="767" y="-163" type="line"/>
      <point x="778" y="-162"/>
      <point x="789" y="-154"/>
      <point x="789" y="-141" type="curve" smooth="yes"/>
      <point x="789" y="555" type="line"/>
      <point x="777" y="552"/>
      <point x="756" y="551"/>
      <point x="732" y="551" type="curve" smooth="yes"/>
      <point x="702" y="551"/>
      <point x="670" y="553"/>
      <point x="650" y="557" type="curve"/>
      <point x="650" y="166" type="line" smooth="yes"/>
      <point x="650" y="58"/>
      <point x="511" y="-16"/>
      <point x="383" y="-16" type="curve" smooth="yes"/>
      <point x="155" y="-16"/>
      <point x="36" y="143"/>
    </contour>
    <contour>
      <point x="196" y="337" type="curve" smooth="yes"/>
      <point x="196" y="167"/>
      <point x="264" y="47"/>
      <point x="373" y="47" type="curve" smooth="yes"/>
      <point x="426" y="47"/>
      <point x="507" y="80"/>
      <point x="507" y="188" type="curve" smooth="yes"/>
      <point x="507" y="590" type="line"/>
      <point x="455" y="614"/>
      <point x="441" y="620"/>
      <point x="383" y="620" type="curve" smooth="yes"/>
      <point x="254" y="620"/>
      <point x="196" y="486"/>
    </contour>
  </outline>
</glyph>
<glyph name="uni01AB" format="2">
  <advance width="375"/>
  <unicode hex="01AB"/>
  <outline>
    <contour>
      <point x="24" y="424" type="line"/>
      <point x="24" y="464" type="line"/>
      <point x="101" y="510" type="line"/>
      <point x="155" y="616" type="line"/>
      <point x="224" y="616" type="line"/>
      <point x="224" y="488" type="line"/>
      <point x="363" y="488" type="line"/>
      <point x="363" y="424" type="line"/>
      <point x="224" y="424" type="line"/>
      <point x="224" y="152" type="line" smooth="yes"/>
      <point x="224" y="88"/>
      <point x="253" y="65"/>
      <point x="306" y="65" type="curve" smooth="yes"/>
      <point x="338" y="65"/>
      <point x="371" y="72"/>
      <point x="371" y="72" type="curve"/>
      <point x="371" y="-107" type="line" smooth="yes"/>
      <point x="371" y="-196"/>
      <point x="281" y="-231"/>
      <point x="219" y="-231" type="curve" smooth="yes"/>
      <point x="151" y="-231"/>
      <point x="95" y="-195"/>
      <point x="95" y="-151" type="curve" smooth="yes"/>
      <point x="95" y="-113"/>
      <point x="111" y="-90"/>
      <point x="152" y="-70" type="curve"/>
      <point x="248" y="-161" type="line"/>
      <point x="287" y="-161"/>
      <point x="308" y="-152"/>
      <point x="308" y="-109" type="curve" smooth="yes"/>
      <point x="308" y="3" type="line"/>
      <point x="287" y="-7"/>
      <point x="234" y="-12"/>
      <point x="211" y="-12" type="curve" smooth="yes"/>
      <point x="122" y="-12"/>
      <point x="90" y="27"/>
      <point x="90" y="111" type="curve" smooth="yes"/>
      <point x="90" y="424" type="line"/>
    </contour>
  </outline>
</glyph>
<glyph name="uni01B1" format="2">
  <advance width="729"/>
  <unicode hex="01B1"/>
  <outline>
    <contour>
      <point x="34" y="313" type="curve" smooth="yes"/>
      <point x="34" y="410"/>
      <point x="90" y="541"/>
      <point x="154" y="595" type="curve" smooth="yes"/>
      <point x="159" y="599"/>
      <point x="162" y="604"/>
      <point x="162" y="608" type="curve" smooth="yes"/>
      <point x="162" y="613"/>
      <point x="157" y="616"/>
      <point x="149" y="617" type="curve"/>
      <point x="69" y="621" type="line"/>
      <point x="69" y="671" type="line"/>
      <point x="292" y="671" type="line"/>
      <point x="215" y="525"/>
      <point x="198" y="464"/>
      <point x="198" y="342" type="curve" smooth="yes"/>
      <point x="198" y="160"/>
      <point x="261" y="49"/>
      <point x="365" y="49" type="curve" smooth="yes"/>
      <point x="469" y="49"/>
      <point x="533" y="160"/>
      <point x="533" y="342" type="curve" smooth="yes"/>
      <point x="533" y="461"/>
      <point x="514" y="529"/>
      <point x="439" y="671" type="curve"/>
      <point x="661" y="671" type="line"/>
      <point x="661" y="621" type="line"/>
      <point x="582" y="617" type="line"/>
      <point x="574" y="616"/>
      <point x="569" y="613"/>
      <point x="569" y="609" type="curve" smooth="yes"/>
      <point x="569" y="604"/>
      <point x="572" y="599"/>
      <point x="577" y="595" type="curve" smooth="yes"/>
      <point x="641" y="541"/>
      <point x="696" y="410"/>
      <point x="696" y="313" type="curve" smooth="yes"/>
      <point x="696" y="125"/>
      <point x="554" y="-16"/>
      <point x="365" y="-16" type="curve" smooth="yes"/>
      <point x="177" y="-16"/>
      <point x="34" y="126"/>
    </contour>
  </outline>
</glyph>
<glyph name="uni01C9" format="2">
  <advance width="657"/>
  <unicode hex="01C9"/>
  <outline>
    <contour>
      <point x="29" y="649" type="line"/>
      <point x="29" y="690" type="line"/>
      <point x="182" y="740" type="line"/>
      <point x="233" y="740" type="line"/>
      <point x="233" y="73" type="line" smooth="yes"/>
      <point x="233" y="60"/>
      <point x="242" y="51"/>
      <point x="255" y="50" type="curve" smooth="yes"/>
      <point x="305" y="47" type="line"/>
      <point x="305" y="0" type="line"/>
      <point x="29" y="0" type="line"/>
      <point x="29" y="47" type="line"/>
      <point x="78" y="50" type="line" smooth="yes"/>
      <point x="91" y="51"/>
      <point x="100" y="60"/>
      <point x="100" y="73" type="curve" smooth="yes"/>
      <point x="100" y="649" type="line"/>
    </contour>
    <contour>
      <point x="243" y="-155" type="curve" smooth="yes"/>
      <point x="243" y="-119"/>
      <point x="273" y="-91"/>
      <point x="307" y="-88" type="curve"/>
      <point x="405" y="-187" type="line"/>
      <point x="433" y="-135"/>
      <point x="433" y="-23"/>
      <point x="433" y="-5" type="curve" smooth="yes"/>
      <point x="433" y="409" type="line"/>
      <point x="362" y="409" type="line"/>
      <point x="362" y="450" type="line"/>
      <point x="515" y="500" type="line"/>
      <point x="566" y="500" type="line"/>
      <point x="566" y="47" type="line" smooth="yes"/>
      <point x="566" y="-102"/>
      <point x="497" y="-231"/>
      <point x="343" y="-231" type="curve" smooth="yes"/>
      <point x="289" y="-231"/>
      <point x="243" y="-204"/>
    </contour>
    <contour>
      <point x="421" y="663" type="curve" smooth="yes"/>
      <point x="421" y="706"/>
      <point x="456" y="740"/>
      <point x="499" y="740" type="curve" smooth="yes"/>
      <point x="542" y="740"/>
      <point x="576" y="706"/>
      <point x="576" y="663" type="curve" smooth="yes"/>
      <point x="576" y="620"/>
      <point x="542" y="585"/>
      <point x="499" y="585" type="curve" smooth="yes"/>
      <point x="456" y="585"/>
      <point x="421" y="620"/>
    </contour>
  </outline>
</glyph>
<glyph name="uni01EE" format="2">
  <advance width="649"/>
  <unicode hex="01EE"/>
  <outline>
    <contour>
      <point x="26" y="-68" type="curve" smooth="yes"/>
      <point x="26" y="3"/>
      <point x="73" y="22"/>
      <point x="109" y="22" type="curve" smooth="yes"/>
      <point x="129" y="22"/>
      <point x="147" y="14"/>
      <point x="159" y="7" type="curve"/>
      <point x="196" y="-136" type="line"/>
      <point x="220" y="-155"/>
      <point x="259" y="-163"/>
      <point x="290" y="-163" type="curve" smooth="yes"/>
      <point x="377" y="-163"/>
      <point x="457" y="-25"/>
      <point x="457" y="74" type="curve" smooth="yes"/>
      <point x="457" y="171"/>
      <point x="410" y="253"/>
      <point x="321" y="253" type="curve" smooth="yes"/>
      <point x="303" y="253"/>
      <point x="288" y="250"/>
      <point x="275" y="243" type="curve"/>
      <point x="245" y="276" type="line"/>
      <point x="426" y="544" type="line"/>
      <point x="173" y="544" type="line" smooth="yes"/>
      <point x="162" y="544"/>
      <point x="151" y="528"/>
      <point x="150" y="517" type="curve"/>
      <point x="142" y="391" type="line"/>
      <point x="70" y="391" type="line"/>
      <point x="70" y="671" type="line"/>
      <point x="582" y="671" type="line"/>
      <point x="582" y="618" type="line"/>
      <point x="373" y="316" type="line"/>
      <point x="515" y="316"/>
      <point x="614" y="183"/>
      <point x="614" y="74" type="curve" smooth="yes"/>
      <point x="614" y="-89"/>
      <point x="468" y="-231"/>
      <point x="291" y="-231" type="curve" smooth="yes"/>
      <point x="141" y="-231"/>
      <point x="26" y="-152"/>
    </contour>
    <contour>
      <point x="156" y="918" type="line"/>
      <point x="239" y="918" type="line"/>
      <point x="326" y="824" type="line"/>
      <point x="413" y="918" type="line"/>
      <point x="496" y="918" type="line"/>
      <point x="385" y="747" type="line"/>
      <point x="267" y="747" type="line"/>
    </contour>
  </outline>
</glyph>
<glyph name="uni01F0" format="2">
  <advance width="324"/>
  <unicode hex="01F0"/>
  <outline>
    <contour>
      <point x="-90" y="-155" type="curve" smooth="yes"/>
      <point x="-90" y="-119"/>
      <point x="-60" y="-91"/>
      <point x="-26" y="-88" type="curve"/>
      <point x="72" y="-187" type="line"/>
      <point x="100" y="-135"/>
      <point x="100" y="-29"/>
      <point x="100" y="-6" type="curve" smooth="yes"/>
      <point x="100" y="409" type="line"/>
      <point x="29" y="409" type="line"/>
      <point x="29" y="450" type="line"/>
      <point x="182" y="500" type="line"/>
      <point x="233" y="500" type="line"/>
      <point x="233" y="47" type="line" smooth="yes"/>
      <point x="233" y="-101"/>
      <point x="163" y="-231"/>
      <point x="10" y="-231" type="curve" smooth="yes"/>
      <point x="-44" y="-231"/>
      <point x="-90" y="-204"/>
    </contour>
    <contour>
      <point x="-4" y="731" type="line"/>
      <point x="79" y="731" type="line"/>
      <point x="166" y="637" type="line"/>
      <point x="253" y="731" type="line"/>
      <point x="336" y="731" type="line"/>
      <point x="225" y="560" type="line"/>
      <point x="107" y="560" type="line"/>
    </contour>
  </outline>
</glyph>
<glyph name="uni01F2" format="2">
  <advance width="1215"/>
  <unicode hex="01F2"/>
  <outline>
    <contour>
      <point x="26" y="0" type="line"/>
      <point x="26" y="51" type="line"/>
      <point x="81" y="56" type="line" smooth="yes"/>
      <point x="93" y="57"/>
      <point x="104" y="65"/>
      <point x="104" y="78" type="curve" smooth="yes"/>
      <point x="104" y="593" type="line" smooth="yes"/>
      <point x="104" y="606"/>
      <point x="93" y="614"/>
      <point x="81" y="615" type="curve" smooth="yes"/>
      <point x="26" y="620" type="line"/>
      <point x="26" y="671" type="line"/>
      <point x="332" y="671" type="line" smooth="yes"/>
      <point x="560" y="671"/>
      <point x="687" y="538"/>
      <point x="687" y="343" type="curve" smooth="yes"/>
      <point x="687" y="114"/>
      <point x="550" y="0"/>
      <point x="338" y="0" type="curve" smooth="yes"/>
    </contour>
    <contour>
      <point x="247" y="59" type="line"/>
      <point x="330" y="61" type="line" smooth="yes"/>
      <point x="416" y="63"/>
      <point x="526" y="118"/>
      <point x="526" y="332" type="curve" smooth="yes"/>
      <point x="526" y="562"/>
      <point x="413" y="613"/>
      <point x="310" y="613" type="curve" smooth="yes"/>
      <point x="247" y="613" type="line"/>
    </contour>
    <contour>
      <point x="756" y="0" type="line"/>
      <point x="756" y="65" type="line"/>
      <point x="1012" y="431" type="line"/>
      <point x="861" y="431" type="line" smooth="yes"/>
      <point x="851" y="431"/>
      <point x="842" y="419"/>
      <point x="842" y="410" type="curve"/>
      <point x="835" y="333" type="line"/>
      <point x="764" y="333" type="line"/>
      <point x="764" y="488" type="line"/>
      <point x="1169" y="488" type="line"/>
      <point x="1169" y="432" type="line"/>
      <point x="907" y="59" type="line"/>
      <point x="1079" y="59" type="line" smooth="yes"/>
      <point x="1088" y="59"/>
      <point x="1099" y="73"/>
      <point x="1101" y="83" type="curve"/>
      <point x="1114" y="168" type="line"/>
      <point x="1183" y="168" type="line"/>
      <point x="1183" y="0" type="line"/>
    </contour>
  </outline>
</glyph>
<glyph name="uni01F6" format="2">
  <advance width="1051"/>
  <unicode hex="01F6"/>
  <outline>
    <contour>
      <point x="30" y="0" type="line"/>
      <point x="30" y="51" type="line"/>
      <point x="82" y="56" type="line" smooth="yes"/>
      <point x="94" y="57"/>
      <point x="104" y="65"/>
      <point x="104" y="78" type="curve" smooth="yes"/>
      <point x="104" y="593" type="line" smooth="yes"/>
      <point x="104" y="606"/>
      <point x="94" y="614"/>
      <point x="82" y="615" type="curve" smooth="yes"/>
      <point x="30" y="620" type="line"/>
      <point x="30" y="671" type="line"/>
      <point x="322" y="671" type="line"/>
      <point x="322" y="620" type="line"/>
      <point x="269" y="615" type="line" smooth="yes"/>
      <point x="257" y="614"/>
      <point x="247" y="606"/>
      <point x="247" y="593" type="curve" smooth="yes"/>
      <point x="247" y="384" type="line"/>
      <point x="522" y="384" type="line"/>
      <point x="522" y="593" type="line" smooth="yes"/>
      <point x="522" y="606"/>
      <point x="512" y="614"/>
      <point x="500" y="615" type="curve" smooth="yes"/>
      <point x="448" y="620" type="line"/>
      <point x="448" y="671" type="line"/>
      <point x="739" y="671" type="line"/>
      <point x="739" y="620" type="line"/>
      <point x="687" y="615" type="line" smooth="yes"/>
      <point x="676" y="614"/>
      <point x="665" y="606"/>
      <point x="665" y="593" type="curve" smooth="yes"/>
      <point x="665" y="137" type="line" smooth="yes"/>
      <point x="665" y="90"/>
      <point x="706" y="56"/>
      <point x="757" y="56" type="curve" smooth="yes"/>
      <point x="798" y="56"/>
      <point x="837" y="87"/>
      <point x="837" y="137" type="curve" smooth="yes"/>
      <point x="837" y="409" type="line"/>
      <point x="774" y="409" type="line"/>
      <point x="774" y="450" type="line"/>
      <point x="920" y="500" type="line"/>
      <point x="971" y="500" type="line"/>
      <point x="971" y="144" type="line" smooth="yes"/>
      <point x="971" y="43"/>
      <point x="856" y="-16"/>
      <point x="747" y="-16" type="curve" smooth="yes"/>
      <point x="626" y="-16"/>
      <point x="522" y="43"/>
      <point x="522" y="144" type="curve" smooth="yes"/>
      <point x="522" y="320" type="line"/>
      <point x="247" y="320" type="line"/>
      <point x="247" y="78" type="line" smooth="yes"/>
      <point x="247" y="65"/>
      <point x="257" y="57"/>
      <point x="269" y="56" type="curve" smooth="yes"/>
      <point x="322" y="51" type="line"/>
      <point x="322" y="0" type="line"/>
    </contour>
  </outline>
</glyph>
<glyph name="uni01F8" format="2">
  <advance width="744"/>
  <unicode hex="01F8"/>
  <outline>
    <contour>
      <point x="28" y="620" type="line"/>
      <point x="28" y="671" type="line"/>
      <point x="275" y="671" type="line"/>
      <point x="275" y="644" type="line"/>
      <point x="563" y="193" type="line"/>
      <point x="563" y="593" type="line" smooth="yes"/>
      <point x="563" y="606"/>
      <point x="552" y="614"/>
      <point x="540" y="615" type="curve" smooth="yes"/>
      <point x="483" y="620" type="line"/>
      <point x="483" y="671" type="line"/>
      <point x="715" y="671" type="line"/>
      <point x="715" y="620" type="line"/>
      <point x="661" y="615" type="line" smooth="yes"/>
      <point x="650" y="614"/>
      <point x="639" y="606"/>
      <point x="639" y="593" type="curve" smooth="yes"/>
      <point x="639" y="0" type="line"/>
      <point x="517" y="0" type="line"/>
      <point x="180" y="529" type="line"/>
      <point x="180" y="78" type="line" smooth="yes"/>
      <point x="180" y="65"/>
      <point x="191" y="57"/>
      <point x="202" y="56" type="curve" smooth="yes"/>
      <point x="258" y="51" type="line"/>
      <point x="258" y="0" type="line"/>
      <point x="27" y="0" type="line"/>
      <point x="27" y="51" type="line"/>
      <point x="82" y="56" type="line" smooth="yes"/>
      <point x="94" y="57"/>
      <point x="104" y="65"/>
      <point x="104" y="78" type="curve" smooth="yes"/>
      <point x="104" y="593" type="line" smooth="yes"/>
      <point x="104" y="606"/>
      <point x="94" y="614"/>
      <point x="82" y="615" type="curve" smooth="yes"/>
    </contour>
    <contour>
      <point x="150" y="877" type="curve" smooth="yes"/>
      <point x="150" y="901"/>
      <point x="163" y="930"/>
      <point x="206" y="930" type="curve" smooth="yes"/>
      <point x="233" y="930"/>
      <point x="247" y="923"/>
      <point x="270" y="898" type="curve" smooth="yes"/>
      <point x="406" y="747" type="line"/>
      <point x="336" y="747" type="line"/>
      <point x="174" y="835" type="line" smooth="yes"/>
      <point x="160" y="843"/>
      <point x="150" y="864"/>
    </contour>
  </outline>
</glyph>
<glyph name="uni0201" format="2">
  <advance width="553"/>
  <unicode hex="0201"/>
  <outline>
    <contour>
      <point x="32" y="117" type="curve" smooth="yes"/>
      <point x="32" y="207"/>
      <point x="62" y="251"/>
      <point x="337" y="312" type="curve"/>
      <point x="337" y="351" type="line" smooth="yes"/>
      <point x="337" y="389"/>
      <point x="325" y="444"/>
      <point x="245" y="444" type="curve" smooth="yes"/>
      <point x="218" y="444"/>
      <point x="206" y="441"/>
      <point x="202" y="440" type="curve"/>
      <point x="202" y="345" type="line"/>
      <point x="94" y="345" type="line" smooth="yes"/>
      <point x="83" y="345"/>
      <point x="54" y="348"/>
      <point x="54" y="381" type="curve" smooth="yes"/>
      <point x="54" y="455"/>
      <point x="171" y="500"/>
      <point x="277" y="500" type="curve" smooth="yes"/>
      <point x="392" y="500"/>
      <point x="470" y="474"/>
      <point x="470" y="330" type="curve" smooth="yes"/>
      <point x="470" y="73" type="line" smooth="yes"/>
      <point x="470" y="61"/>
      <point x="480" y="51"/>
      <point x="492" y="50" type="curve" smooth="yes"/>
      <point x="536" y="47" type="line"/>
      <point x="536" y="0" type="line"/>
      <point x="350" y="0" type="line"/>
      <point x="337" y="50" type="line"/>
      <point x="337" y="50"/>
      <point x="251" y="-12"/>
      <point x="163" y="-12" type="curve" smooth="yes"/>
      <point x="91" y="-12"/>
      <point x="32" y="38"/>
    </contour>
    <contour>
      <point x="174" y="145" type="curve" smooth="yes"/>
      <point x="174" y="104"/>
      <point x="203" y="71"/>
      <point x="245" y="71" type="curve" smooth="yes"/>
      <point x="288" y="71"/>
      <point x="330" y="89"/>
      <point x="337" y="93" type="curve"/>
      <point x="337" y="258" type="line"/>
      <point x="208" y="232"/>
      <point x="174" y="205"/>
    </contour>
    <contour>
      <point x="-53" y="690" type="curve" smooth="yes"/>
      <point x="-53" y="722"/>
      <point x="-30" y="743"/>
      <point x="4" y="743" type="curve" smooth="yes"/>
      <point x="31" y="743"/>
      <point x="45" y="736"/>
      <point x="68" y="711" type="curve" smooth="yes"/>
      <point x="204" y="560" type="line"/>
      <point x="135" y="560" type="line"/>
      <point x="-27" y="648" type="line"/>
      <point x="-40" y="656"/>
      <point x="-53" y="676"/>
    </contour>
    <contour>
      <point x="162" y="690" type="curve" smooth="yes"/>
      <point x="162" y="722"/>
      <point x="185" y="743"/>
      <point x="219" y="743" type="curve" smooth="yes"/>
      <point x="246" y="743"/>
      <point x="260" y="736"/>
      <point x="282" y="711" type="curve" smooth="yes"/>
      <point x="419" y="560" type="line"/>
      <point x="349" y="560" type="line"/>
      <point x="188" y="648" type="line"/>
      <point x="174" y="655"/>
      <point x="162" y="675"/>
    </contour>
  </outline>
</glyph>
<glyph name="uni020E" format="2">
  <advance width="755"/>
  <unicode hex="020E"/>
  <outline>
    <contour>
      <point x="218.5" y="747" type="line"/>
      <point x="218.5" y="837"/>
      <point x="269.5" y="910"/>
      <point x="374.5" y="910" type="curve" smooth="yes"/>
      <point x="479.5" y="910"/>
      <point x="531.5" y="837"/>
      <point x="531.5" y="747" type="curve"/>
      <point x="478.5" y="747" type="line"/>
      <point x="465.5" y="807"/>
      <point x="419.5" y="828"/>
      <point x="374.5" y="828" type="curve" smooth="yes"/>
      <point x="330.5" y="828"/>
      <point x="283.5" y="807"/>
      <point x="270.5" y="747" type="curve"/>
    </contour>
    <contour>
      <point x="37" y="340" type="curve" smooth="yes"/>
      <point x="37" y="537"/>
      <point x="162" y="687"/>
      <point x="375" y="687" type="curve" smooth="yes"/>
      <point x="583" y="687"/>
      <point x="720" y="526"/>
      <point x="720" y="332" type="curve" smooth="yes"/>
      <point x="720" y="141"/>
      <point x="585" y="-16"/>
      <point x="384" y="-16" type="curve" smooth="yes"/>
      <point x="184" y="-16"/>
      <point x="37" y="113"/>
    </contour>
    <contour>
      <point x="197" y="337" type="curve" smooth="yes"/>
      <point x="197" y="195"/>
      <point x="251" y="47"/>
      <point x="374" y="47" type="curve" smooth="yes"/>
      <point x="508" y="47"/>
      <point x="559" y="199"/>
      <point x="559" y="328" type="curve" smooth="yes"/>
      <point x="559" y="485"/>
      <point x="500" y="620"/>
      <point x="384" y="620" type="curve" smooth="yes"/>
      <point x="245" y="620"/>
      <point x="197" y="471"/>
    </contour>
  </outline>
</glyph>
<glyph name="uni020F" format="2">
  <advance width="582"/>
  <unicode hex="020F"/>
  <outline>
    <contour>
      <point x="30" y="242" type="curve" smooth="yes"/>
      <point x="30" y="406"/>
      <point x="139" y="500"/>
      <point x="294" y="500" type="curve" smooth="yes"/>
      <point x="459" y="500"/>
      <point x="552" y="393"/>
      <point x="552" y="241" type="curve" smooth="yes"/>
      <point x="552" y="92"/>
      <point x="453" y="-12"/>
      <point x="287" y="-12" type="curve" smooth="yes"/>
      <point x="135" y="-12"/>
      <point x="30" y="84"/>
    </contour>
    <contour>
      <point x="138" y="560" type="line"/>
      <point x="138" y="650"/>
      <point x="189" y="723"/>
      <point x="294" y="723" type="curve" smooth="yes"/>
      <point x="399" y="723"/>
      <point x="450" y="650"/>
      <point x="450" y="560" type="curve"/>
      <point x="398" y="560" type="line"/>
      <point x="385" y="620"/>
      <point x="339" y="641"/>
      <point x="294" y="641" type="curve" smooth="yes"/>
      <point x="250" y="641"/>
      <point x="203" y="620"/>
      <point x="190" y="560" type="curve"/>
    </contour>
    <contour>
      <point x="180" y="246" type="curve" smooth="yes"/>
      <point x="180" y="160"/>
      <point x="198" y="45"/>
      <point x="291" y="45" type="curve" smooth="yes"/>
      <point x="382" y="45"/>
      <point x="402" y="153"/>
      <point x="402" y="242" type="curve" smooth="yes"/>
      <point x="402" y="327"/>
      <point x="382" y="443"/>
      <point x="290" y="443" type="curve" smooth="yes"/>
      <point x="200" y="443"/>
      <point x="180" y="332"/>
    </contour>
  </outline>
</glyph>
<glyph name="uni0214" format="2">
  <advance width="729"/>
  <unicode hex="0214"/>
  <outline>
    <contour>
      <point x="22" y="620" type="line"/>
      <point x="22" y="671" type="line"/>
      <point x="318" y="671" type="line"/>
      <point x="318" y="620" type="line"/>
      <point x="264" y="615" type="line" smooth="yes"/>
      <point x="253" y="614"/>
      <point x="242" y="606"/>
      <point x="242" y="593" type="curve" smooth="yes"/>
      <point x="242" y="246" type="line" smooth="yes"/>
      <point x="242" y="121"/>
      <point x="294" y="67"/>
      <point x="404" y="67" type="curve" smooth="yes"/>
      <point x="509" y="67"/>
      <point x="552" y="138"/>
      <point x="552" y="246" type="curve" smooth="yes"/>
      <point x="552" y="593" type="line" smooth="yes"/>
      <point x="552" y="606"/>
      <point x="542" y="614"/>
      <point x="530" y="615" type="curve" smooth="yes"/>
      <point x="473" y="620" type="line"/>
      <point x="473" y="671" type="line"/>
      <point x="703" y="671" type="line"/>
      <point x="703" y="620" type="line"/>
      <point x="650" y="615" type="line" smooth="yes"/>
      <point x="639" y="614"/>
      <point x="628" y="606"/>
      <point x="628" y="593" type="curve" smooth="yes"/>
      <point x="628" y="254" type="line" smooth="yes"/>
      <point x="628" y="57"/>
      <point x="541" y="-16"/>
      <point x="354" y="-16" type="curve" smooth="yes"/>
      <point x="182" y="-16"/>
      <point x="99" y="78"/>
      <point x="99" y="254" type="curve" smooth="yes"/>
      <point x="99" y="593" type="line" smooth="yes"/>
      <point x="99" y="606"/>
      <point x="88" y="614"/>
      <point x="76" y="615" type="curve" smooth="yes"/>
    </contour>
    <contour>
      <point x="32" y="877" type="curve" smooth="yes"/>
      <point x="32" y="909"/>
      <point x="56" y="930"/>
      <point x="90" y="930" type="curve" smooth="yes"/>
      <point x="117" y="930"/>
      <point x="131" y="923"/>
      <point x="154" y="898" type="curve" smooth="yes"/>
      <point x="290" y="747" type="line"/>
      <point x="220" y="747" type="line"/>
      <point x="58" y="835" type="line"/>
      <point x="45" y="843"/>
      <point x="32" y="863"/>
    </contour>
    <contour>
      <point x="248" y="877" type="curve" smooth="yes"/>
      <point x="248" y="909"/>
      <point x="270" y="930"/>
      <point x="304" y="930" type="curve" smooth="yes"/>
      <point x="331" y="930"/>
      <point x="346" y="923"/>
      <point x="368" y="898" type="curve" smooth="yes"/>
      <point x="504" y="747" type="line"/>
      <point x="434" y="747" type="line"/>
      <point x="274" y="835" type="line"/>
      <point x="260" y="842"/>
      <point x="248" y="862"/>
    </contour>
  </outline>
</glyph>
<glyph name="uni0215" format="2">
  <advance width="620"/>
  <unicode hex="0215"/>
  <outline>
    <contour>
      <point x="25" y="396" type="line"/>
      <point x="25" y="437" type="line"/>
      <point x="172" y="488" type="line"/>
      <point x="224" y="488" type="line"/>
      <point x="224" y="190" type="line" smooth="yes"/>
      <point x="224" y="141"/>
      <point x="231" y="79"/>
      <point x="316" y="79" type="curve" smooth="yes"/>
      <point x="358" y="79"/>
      <point x="396" y="96"/>
      <point x="396" y="96" type="curve"/>
      <point x="396" y="396" type="line"/>
      <point x="333" y="396" type="line"/>
      <point x="333" y="437" type="line"/>
      <point x="479" y="488" type="line"/>
      <point x="530" y="488" type="line"/>
      <point x="530" y="73" type="line" smooth="yes"/>
      <point x="530" y="61"/>
      <point x="541" y="51"/>
      <point x="553" y="50" type="curve" smooth="yes"/>
      <point x="597" y="47" type="line"/>
      <point x="597" y="0" type="line"/>
      <point x="396" y="0" type="line"/>
      <point x="396" y="55" type="line"/>
      <point x="396" y="55"/>
      <point x="311" y="-12"/>
      <point x="238" y="-12" type="curve" smooth="yes"/>
      <point x="124" y="-12"/>
      <point x="90" y="49"/>
      <point x="90" y="151" type="curve" smooth="yes"/>
      <point x="90" y="396" type="line"/>
    </contour>
    <contour>
      <point x="21" y="690" type="curve" smooth="yes"/>
      <point x="21" y="722"/>
      <point x="44" y="743"/>
      <point x="78" y="743" type="curve" smooth="yes"/>
      <point x="105" y="743"/>
      <point x="119" y="736"/>
      <point x="142" y="711" type="curve" smooth="yes"/>
      <point x="278" y="560" type="line"/>
      <point x="209" y="560" type="line"/>
      <point x="47" y="648" type="line"/>
      <point x="34" y="656"/>
      <point x="21" y="676"/>
    </contour>
    <contour>
      <point x="236" y="690" type="curve" smooth="yes"/>
      <point x="236" y="722"/>
      <point x="259" y="743"/>
      <point x="293" y="743" type="curve" smooth="yes"/>
      <point x="320" y="743"/>
      <point x="334" y="736"/>
      <point x="356" y="711" type="curve" smooth="yes"/>
      <point x="493" y="560" type="line"/>
      <point x="423" y="560" type="line"/>
      <point x="262" y="648" type="line"/>
      <point x="248" y="655"/>
      <point x="236" y="675"/>
    </contour>
  </outline>
</glyph>
<glyph name="scommaaccent" format="2">
  <advance width="444"/>
  <unicode hex="0219"/>
  <outline>
    <contour>
      <point x="32" y="15" type="curve"/>
      <point x="32" y="167" type="line"/>
      <point x="95" y="167" type="line"/>
      <point x="107" y="75" type="line"/>
      <point x="122" y="63"/>
      <point x="175" y="47"/>
      <point x="200" y="47" type="curve" smooth="yes"/>
      <point x="249" y="47"/>
      <point x="286" y="74"/>
      <point x="286" y="111" type="curve" smooth="yes"/>
      <point x="286" y="143"/>
      <point x="259" y="166"/>
      <point x="179" y="203" type="curve" smooth="yes"/>
      <point x="143" y="220" type="line" smooth="yes"/>
      <point x="71" y="253"/>
      <point x="38" y="294"/>
      <point x="38" y="348" type="curve" smooth="yes"/>
      <point x="38" y="439"/>
      <point x="119" y="500"/>
      <point x="239" y="500" type="curve" smooth="yes"/>
      <point x="300" y="500"/>
      <point x="362" y="489"/>
      <point x="398" y="473" type="curve"/>
      <point x="398" y="335" type="line"/>
      <point x="336" y="335" type="line"/>
      <point x="325" y="415" type="line"/>
      <point x="312" y="430"/>
      <point x="282" y="440"/>
      <point x="247" y="440" type="curve" smooth="yes"/>
      <point x="200" y="440"/>
      <point x="172" y="420"/>
      <point x="172" y="385" type="curve" smooth="yes"/>
      <point x="172" y="354"/>
      <point x="199" y="329"/>
      <point x="273" y="292" type="curve" smooth="yes"/>
      <point x="297" y="280" type="line" smooth="yes"/>
      <point x="379" y="239"/>
      <point x="414" y="202"/>
      <point x="414" y="156" type="curve" smooth="yes"/>
      <point x="414" y="52"/>
      <point x="336" y="-12"/>
      <point x="210" y="-12" type="curve" smooth="yes"/>
      <point x="112" y="-12"/>
      <point x="32" y="15"/>
    </contour>
    <contour>
      <point x="133" y="-130" type="curve" smooth="yes"/>
      <point x="133" y="-91"/>
      <point x="166" y="-72"/>
      <point x="201" y="-72" type="curve" smooth="yes"/>
      <point x="252" y="-72"/>
      <point x="287" y="-110"/>
      <point x="287" y="-157" type="curve" smooth="yes"/>
      <point x="287" y="-225"/>
      <point x="223" y="-273"/>
      <point x="146" y="-288" type="curve"/>
      <point x="146" y="-248" type="line"/>
      <point x="185" y="-237"/>
      <point x="216" y="-206"/>
      <point x="216" y="-174" type="curve"/>
      <point x="153" y="-174" type="line"/>
      <point x="140" y="-162"/>
      <point x="133" y="-146"/>
    </contour>
  </outline>
</glyph>
<glyph name="uni022A" format="2">
  <advance width="755"/>
  <unicode hex="022A"/>
  <outline>
    <contour>
      <point x="205" y="945" type="line"/>
      <point x="205" y="1026" type="line"/>
      <point x="545" y="1026" type="line"/>
      <point x="545" y="945" type="line"/>
    </contour>
    <contour>
      <point x="201" y="816" type="curve" smooth="yes"/>
      <point x="201" y="854"/>
      <point x="232" y="885"/>
      <point x="270" y="885" type="curve" smooth="yes"/>
      <point x="308" y="885"/>
      <point x="339" y="854"/>
      <point x="339" y="816" type="curve" smooth="yes"/>
      <point x="339" y="778"/>
      <point x="308" y="747"/>
      <point x="270" y="747" type="curve" smooth="yes"/>
      <point x="232" y="747"/>
      <point x="201" y="778"/>
    </contour>
    <contour>
      <point x="411" y="816" type="curve" smooth="yes"/>
      <point x="411" y="854"/>
      <point x="442" y="885"/>
      <point x="480" y="885" type="curve" smooth="yes"/>
      <point x="518" y="885"/>
      <point x="549" y="854"/>
      <point x="549" y="816" type="curve" smooth="yes"/>
      <point x="549" y="778"/>
      <point x="518" y="747"/>
      <point x="480" y="747" type="curve" smooth="yes"/>
      <point x="442" y="747"/>
      <point x="411" y="778"/>
    </contour>
    <contour>
      <point x="37" y="340" type="curve" smooth="yes"/>
      <point x="37" y="537"/>
      <point x="162" y="687"/>
      <point x="375" y="687" type="curve" smooth="yes"/>
      <point x="583" y="687"/>
      <point x="720" y="526"/>
      <point x="720" y="332" type="curve" smooth="yes"/>
      <point x="720" y="141"/>
      <point x="585" y="-16"/>
      <point x="384" y="-16" type="curve" smooth="yes"/>
      <point x="184" y="-16"/>
      <point x="37" y="113"/>
    </contour>
    <contour>
      <point x="197" y="337" type="curve" smooth="yes"/>
      <point x="197" y="195"/>
      <point x="251" y="47"/>
      <point x="374" y="47" type="curve" smooth="yes"/>
      <point x="508" y="47"/>
      <point x="559" y="199"/>
      <point x="559" y="328" type="curve" smooth="yes"/>
      <point x="559" y="485"/>
      <point x="500" y="620"/>
      <point x="384" y="620" type="curve" smooth="yes"/>
      <point x="245" y="620"/>
      <point x="197" y="471"/>
    </contour>
  </outline>
</glyph>
<glyph name="uni0238" format="2">
  <advance width="893"/>
  <unicode hex="0238"/>
  <outline>
    <contour>
      <point x="32" y="233" type="curve" smooth="yes"/>
      <point x="32" y="396"/>
      <point x="133" y="500"/>
      <point x="293" y="500" type="curve" smooth="yes"/>
      <point x="321" y="500"/>
      <point x="360" y="495"/>
      <point x="386" y="488" type="curve"/>
      <point x="386" y="649" type="line"/>
      <point x="312" y="649" type="line"/>
      <point x="312" y="690" type="line"/>
      <point x="468" y="740" type="line"/>
      <point x="519" y="740" type="line"/>
      <point x="519" y="454" type="line"/>
      <point x="560" y="483"/>
      <point x="613" y="500"/>
      <point x="664" y="500" type="curve" smooth="yes"/>
      <point x="780" y="500"/>
      <point x="861" y="407"/>
      <point x="861" y="274" type="curve" smooth="yes"/>
      <point x="861" y="110"/>
      <point x="744" y="0"/>
      <point x="568" y="0" type="curve" smooth="yes"/>
      <point x="386" y="0" type="line"/>
      <point x="386" y="58" type="line"/>
      <point x="346" y="20"/>
      <point x="273" y="-12"/>
      <point x="228" y="-12" type="curve" smooth="yes"/>
      <point x="111" y="-12"/>
      <point x="32" y="86"/>
    </contour>
    <contour>
      <point x="178" y="256" type="curve" smooth="yes"/>
      <point x="178" y="145"/>
      <point x="226" y="80"/>
      <point x="308" y="80" type="curve" smooth="yes"/>
      <point x="335" y="80"/>
      <point x="366" y="87"/>
      <point x="386" y="99" type="curve"/>
      <point x="386" y="422" type="line"/>
      <point x="361" y="433"/>
      <point x="335" y="440"/>
      <point x="315" y="440" type="curve" smooth="yes"/>
      <point x="230" y="440"/>
      <point x="178" y="370"/>
    </contour>
    <contour>
      <point x="519" y="56" type="line"/>
      <point x="525" y="55"/>
      <point x="530" y="55"/>
      <point x="540" y="55" type="curve" smooth="yes"/>
      <point x="662" y="55"/>
      <point x="716" y="113"/>
      <point x="716" y="244" type="curve" smooth="yes"/>
      <point x="716" y="354"/>
      <point x="664" y="417"/>
      <point x="572" y="417" type="curve" smooth="yes"/>
      <point x="551" y="417"/>
      <point x="538" y="416"/>
      <point x="519" y="411" type="curve"/>
    </contour>
  </outline>
</glyph>
<glyph name="uni0246" format="2">
  <advance width="598"/>
  <unicode hex="0246"/>
  <outline>
    <contour>
      <point x="26" y="-57" type="line"/>
      <point x="486" y="748" type="line"/>
      <point x="538" y="719" type="line"/>
      <point x="77" y="-87" type="line"/>
    </contour>
    <contour>
      <point x="26" y="0" type="line"/>
      <point x="26" y="51" type="line"/>
      <point x="81" y="56" type="line" smooth="yes"/>
      <point x="93" y="57"/>
      <point x="104" y="65"/>
      <point x="104" y="78" type="curve" smooth="yes"/>
      <point x="104" y="593" type="line" smooth="yes"/>
      <point x="104" y="606"/>
      <point x="93" y="614"/>
      <point x="81" y="615" type="curve" smooth="yes"/>
      <point x="26" y="620" type="line"/>
      <point x="26" y="671" type="line"/>
      <point x="536" y="671" type="line"/>
      <point x="536" y="511" type="line"/>
      <point x="464" y="511" type="line"/>
      <point x="448" y="594" type="line" smooth="yes"/>
      <point x="446" y="604"/>
      <point x="439" y="613"/>
      <point x="430" y="613" type="curve" smooth="yes"/>
      <point x="244" y="613" type="line"/>
      <point x="244" y="378" type="line"/>
      <point x="363" y="378" type="line" smooth="yes"/>
      <point x="372" y="378"/>
      <point x="379" y="389"/>
      <point x="380" y="396" type="curve" smooth="yes"/>
      <point x="389" y="464" type="line"/>
      <point x="451" y="464" type="line"/>
      <point x="451" y="229" type="line"/>
      <point x="389" y="229" type="line"/>
      <point x="380" y="297" type="line" smooth="yes"/>
      <point x="379" y="304"/>
      <point x="372" y="315"/>
      <point x="363" y="315" type="curve" smooth="yes"/>
      <point x="244" y="315" type="line"/>
      <point x="244" y="60" type="line"/>
      <point x="462" y="60" type="line" smooth="yes"/>
      <point x="470" y="60"/>
      <point x="479" y="72"/>
      <point x="480" y="79" type="curve" smooth="yes"/>
      <point x="495" y="183" type="line"/>
      <point x="568" y="183" type="line"/>
      <point x="568" y="0" type="line"/>
    </contour>
  </outline>
</glyph>
<glyph name="uni024B" format="2">
  <advance width="615"/>
  <unicode hex="024B"/>
  <outline>
    <contour>
      <point x="32" y="229" type="curve" smooth="yes"/>
      <point x="32" y="403"/>
      <point x="148" y="500"/>
      <point x="355" y="500" type="curve" smooth="yes"/>
      <point x="413" y="500"/>
      <point x="486" y="494"/>
      <point x="513" y="488" type="curve"/>
      <point x="513" y="-26" type="line" smooth="yes"/>
      <point x="513" y="-103"/>
      <point x="536" y="-168"/>
      <point x="567" y="-179" type="curve"/>
      <point x="645" y="-79" type="line"/>
      <point x="690" y="-79"/>
      <point x="718" y="-109"/>
      <point x="718" y="-157" type="curve" smooth="yes"/>
      <point x="718" y="-198"/>
      <point x="671" y="-231"/>
      <point x="612" y="-231" type="curve" smooth="yes"/>
      <point x="457" y="-231"/>
      <point x="379" y="-162"/>
      <point x="379" y="-24" type="curve" smooth="yes"/>
      <point x="379" y="39" type="line"/>
      <point x="379" y="39"/>
      <point x="309" y="-12"/>
      <point x="228" y="-12" type="curve" smooth="yes"/>
      <point x="116" y="-12"/>
      <point x="32" y="91"/>
    </contour>
    <contour>
      <point x="178" y="252" type="curve" smooth="yes"/>
      <point x="178" y="142"/>
      <point x="230" y="75"/>
      <point x="315" y="75" type="curve" smooth="yes"/>
      <point x="341" y="75"/>
      <point x="366" y="77"/>
      <point x="379" y="79" type="curve"/>
      <point x="379" y="437" type="line"/>
      <point x="373" y="439"/>
      <point x="353" y="441"/>
      <point x="339" y="441" type="curve" smooth="yes"/>
      <point x="234" y="441"/>
      <point x="178" y="375"/>
    </contour>
  </outline>
</glyph>
<glyph name="uni0261" format="2">
  <advance width="606"/>
  <unicode hex="0261"/>
  <outline>
    <contour>
      <point x="32" y="231" type="curve" smooth="yes"/>
      <point x="32" y="395"/>
      <point x="127" y="500"/>
      <point x="275" y="500" type="curve" smooth="yes"/>
      <point x="312" y="500"/>
      <point x="356" y="482"/>
      <point x="391" y="453" type="curve"/>
      <point x="463" y="500" type="line"/>
      <point x="518" y="500" type="line"/>
      <point x="518" y="10" type="line" smooth="yes"/>
      <point x="518" y="-150"/>
      <point x="432" y="-231"/>
      <point x="264" y="-231" type="curve" smooth="yes"/>
      <point x="150" y="-231"/>
      <point x="66" y="-182"/>
      <point x="66" y="-116" type="curve" smooth="yes"/>
      <point x="66" y="-87"/>
      <point x="99" y="-57"/>
      <point x="131" y="-57" type="curve" smooth="yes"/>
      <point x="144" y="-57"/>
      <point x="157" y="-59"/>
      <point x="167" y="-62" type="curve"/>
      <point x="204" y="-156" type="line"/>
      <point x="228" y="-173"/>
      <point x="245" y="-178"/>
      <point x="276" y="-178" type="curve" smooth="yes"/>
      <point x="340" y="-178"/>
      <point x="385" y="-100"/>
      <point x="385" y="10" type="curve" smooth="yes"/>
      <point x="385" y="57" type="line"/>
      <point x="385" y="57"/>
      <point x="301" y="-12"/>
      <point x="228" y="-12" type="curve" smooth="yes"/>
      <point x="111" y="-12"/>
      <point x="32" y="85"/>
    </contour>
    <contour>
      <point x="177" y="254" type="curve" smooth="yes"/>
      <point x="177" y="143"/>
      <point x="225" y="79"/>
      <point x="307" y="79" type="curve" smooth="yes"/>
      <point x="335" y="79"/>
      <point x="369" y="87"/>
      <point x="385" y="98" type="curve"/>
      <point x="385" y="389" type="line"/>
      <point x="368" y="418"/>
      <point x="329" y="440"/>
      <point x="297" y="440" type="curve" smooth="yes"/>
      <point x="216" y="440"/>
      <point x="177" y="379"/>
    </contour>
  </outline>
</glyph>
<glyph name="uni0263" format="2">
  <advance width="587"/>
  <unicode hex="0263"/>
  <outline>
    <contour>
      <point x="10" y="441" type="line"/>
      <point x="10" y="489" type="line"/>
      <point x="259" y="489" type="line"/>
      <point x="259" y="441" type="line"/>
      <point x="209" y="436" type="line"/>
      <point x="203" y="435"/>
      <point x="200" y="432"/>
      <point x="200" y="427" type="curve"/>
      <point x="200" y="425"/>
      <point x="201" y="423"/>
      <point x="202" y="420" type="curve"/>
      <point x="325" y="158" type="line"/>
      <point x="448" y="420" type="line"/>
      <point x="449" y="423"/>
      <point x="450" y="425"/>
      <point x="450" y="427" type="curve"/>
      <point x="450" y="432"/>
      <point x="446" y="435"/>
      <point x="439" y="436" type="curve" smooth="yes"/>
      <point x="396" y="441" type="line"/>
      <point x="396" y="489" type="line"/>
      <point x="579" y="489" type="line"/>
      <point x="579" y="441" type="line"/>
      <point x="524" y="435" type="line"/>
      <point x="358" y="85" type="line"/>
      <point x="418" y="-44" type="line"/>
      <point x="427" y="-62"/>
      <point x="431" y="-83"/>
      <point x="431" y="-106" type="curve" smooth="yes"/>
      <point x="431" y="-177"/>
      <point x="384" y="-231"/>
      <point x="323" y="-231" type="curve" smooth="yes"/>
      <point x="239" y="-231"/>
      <point x="203" y="-199"/>
      <point x="203" y="-124" type="curve" smooth="yes"/>
      <point x="203" y="-106"/>
      <point x="211" y="-76"/>
      <point x="222" y="-56" type="curve"/>
      <point x="259" y="21" type="line"/>
      <point x="67" y="435" type="line"/>
    </contour>
    <contour>
      <point x="262" y="-130" type="curve" smooth="yes"/>
      <point x="262" y="-150"/>
      <point x="277" y="-168"/>
      <point x="292" y="-168" type="curve" smooth="yes"/>
      <point x="314" y="-168"/>
      <point x="326" y="-157"/>
      <point x="326" y="-136" type="curve" smooth="yes"/>
      <point x="326" y="-128"/>
      <point x="323" y="-119"/>
      <point x="318" y="-107" type="curve"/>
      <point x="292" y="-52" type="line"/>
      <point x="268" y="-107" type="line"/>
      <point x="264" y="-115"/>
      <point x="262" y="-123"/>
    </contour>
  </outline>
</glyph>
<glyph name="uni0271" format="2">
  <advance width="894"/>
  <unicode hex="0271"/>
  <outline>
    <contour>
      <point x="22" y="408" type="line"/>
      <point x="22" y="449" type="line"/>
      <point x="169" y="499" type="line"/>
      <point x="219" y="499" type="line"/>
      <point x="219" y="439" type="line"/>
      <point x="267" y="473"/>
      <point x="338" y="500"/>
      <point x="383" y="500" type="curve" smooth="yes"/>
      <point x="434" y="500"/>
      <point x="475" y="477"/>
      <point x="504" y="432" type="curve"/>
      <point x="552" y="472"/>
      <point x="625" y="500"/>
      <point x="682" y="500" type="curve" smooth="yes"/>
      <point x="764" y="500"/>
      <point x="820" y="438"/>
      <point x="820" y="347" type="curve" smooth="yes"/>
      <point x="820" y="-11" type="line" smooth="yes"/>
      <point x="820" y="-143"/>
      <point x="723" y="-231"/>
      <point x="576" y="-231" type="curve" smooth="yes"/>
      <point x="518" y="-231"/>
      <point x="468" y="-195"/>
      <point x="468" y="-153" type="curve" smooth="yes"/>
      <point x="468" y="-115"/>
      <point x="497" y="-81"/>
      <point x="531" y="-81" type="curve"/>
      <point x="635" y="-181" type="line"/>
      <point x="669" y="-161"/>
      <point x="687" y="-111"/>
      <point x="687" y="-41" type="curve" smooth="yes"/>
      <point x="687" y="314" type="line" smooth="yes"/>
      <point x="687" y="374"/>
      <point x="656" y="408"/>
      <point x="600" y="408" type="curve" smooth="yes"/>
      <point x="576" y="408"/>
      <point x="544" y="402"/>
      <point x="520" y="392" type="curve"/>
      <point x="520" y="73" type="line" smooth="yes"/>
      <point x="520" y="61"/>
      <point x="530" y="51"/>
      <point x="542" y="50" type="curve" smooth="yes"/>
      <point x="573" y="47" type="line"/>
      <point x="573" y="0" type="line"/>
      <point x="333" y="0" type="line"/>
      <point x="333" y="47" type="line"/>
      <point x="364" y="50" type="line" smooth="yes"/>
      <point x="376" y="51"/>
      <point x="386" y="61"/>
      <point x="386" y="73" type="curve" smooth="yes"/>
      <point x="386" y="314" type="line" smooth="yes"/>
      <point x="386" y="372"/>
      <point x="353" y="408"/>
      <point x="300" y="408" type="curve" smooth="yes"/>
      <point x="269" y="408"/>
      <point x="239" y="402"/>
      <point x="219" y="392" type="curve"/>
      <point x="219" y="73" type="line" smooth="yes"/>
      <point x="219" y="61"/>
      <point x="229" y="51"/>
      <point x="242" y="50" type="curve" smooth="yes"/>
      <point x="273" y="47" type="line"/>
      <point x="273" y="0" type="line"/>
      <point x="27" y="0" type="line"/>
      <point x="27" y="47" type="line"/>
      <point x="64" y="50" type="line" smooth="yes"/>
      <point x="76" y="51"/>
      <point x="86" y="61"/>
      <point x="86" y="73" type="curve" smooth="yes"/>
      <point x="86" y="408" type="line"/>
    </contour>
  </outline>
</glyph>
<glyph name="uni0279" format="2">
  <advance width="432"/>
  <unicode hex="0279"/>
  <outline>
    <contour>
      <point x="10" y="6" type="curve"/>
      <point x="10" y="158" type="line"/>
      <point x="79" y="158" type="line"/>
      <point x="87" y="145"/>
      <point x="104" y="118"/>
      <point x="144" y="118" type="curve" smooth="yes"/>
      <point x="182" y="118"/>
      <point x="202" y="130"/>
      <point x="208" y="136" type="curve"/>
      <point x="208" y="415" type="line" smooth="yes"/>
      <point x="208" y="427"/>
      <point x="199" y="437"/>
      <point x="187" y="438" type="curve"/>
      <point x="123" y="441" type="line"/>
      <point x="123" y="488" type="line"/>
      <point x="408" y="488" type="line"/>
      <point x="408" y="441" type="line"/>
      <point x="364" y="438" type="line" smooth="yes"/>
      <point x="352" y="437"/>
      <point x="342" y="427"/>
      <point x="342" y="415" type="curve" smooth="yes"/>
      <point x="342" y="80" type="line"/>
      <point x="415" y="80" type="line"/>
      <point x="415" y="39" type="line"/>
      <point x="260" y="-12" type="line"/>
      <point x="208" y="-12" type="line"/>
      <point x="208" y="94" type="line"/>
      <point x="183" y="62"/>
      <point x="119" y="-12"/>
      <point x="73" y="-12" type="curve" smooth="yes"/>
      <point x="50" y="-12"/>
      <point x="22" y="-3"/>
    </contour>
  </outline>
</glyph>
<glyph name="uni027B" format="2">
  <advance width="432"/>
  <unicode hex="027B"/>
  <outline>
    <contour>
      <point x="10" y="6" type="curve"/>
      <point x="10" y="158" type="line"/>
      <point x="79" y="158" type="line"/>
      <point x="95" y="132"/>
      <point x="117" y="118"/>
      <point x="144" y="118" type="curve" smooth="yes"/>
      <point x="170" y="118"/>
      <point x="193" y="124"/>
      <point x="208" y="136" type="curve"/>
      <point x="208" y="415" type="line" smooth="yes"/>
      <point x="208" y="427"/>
      <point x="199" y="437"/>
      <point x="187" y="438" type="curve"/>
      <point x="123" y="441" type="line"/>
      <point x="123" y="488" type="line"/>
      <point x="408" y="488" type="line"/>
      <point x="408" y="441" type="line"/>
      <point x="364" y="438" type="line" smooth="yes"/>
      <point x="352" y="437"/>
      <point x="342" y="427"/>
      <point x="342" y="415" type="curve" smooth="yes"/>
      <point x="342" y="-29" type="line" smooth="yes"/>
      <point x="342" y="-105"/>
      <point x="351" y="-144"/>
      <point x="376" y="-182" type="curve"/>
      <point x="476" y="-89" type="line"/>
      <point x="513" y="-100"/>
      <point x="538" y="-127"/>
      <point x="538" y="-155" type="curve" smooth="yes"/>
      <point x="538" y="-199"/>
      <point x="498" y="-231"/>
      <point x="442" y="-231" type="curve" smooth="yes"/>
      <point x="304" y="-231"/>
      <point x="208" y="-112"/>
      <point x="208" y="58" type="curve" smooth="yes"/>
      <point x="208" y="94" type="line"/>
      <point x="159" y="31"/>
      <point x="104" y="-12"/>
      <point x="73" y="-12" type="curve" smooth="yes"/>
      <point x="52" y="-12"/>
      <point x="23" y="-4"/>
    </contour>
  </outline>
</glyph>
<glyph name="uni027E" format="2">
  <advance width="431"/>
  <unicode hex="027E"/>
  <outline>
    <contour>
      <point x="23" y="0" type="line"/>
      <point x="23" y="47" type="line"/>
      <point x="68" y="52" type="line" smooth="yes"/>
      <point x="78" y="53"/>
      <point x="90" y="64"/>
      <point x="90" y="72" type="curve" smooth="yes"/>
      <point x="90" y="307" type="line" smooth="yes"/>
      <point x="90" y="420"/>
      <point x="181" y="500"/>
      <point x="309" y="500" type="curve" smooth="yes"/>
      <point x="368" y="500"/>
      <point x="409" y="473"/>
      <point x="409" y="434" type="curve" smooth="yes"/>
      <point x="409" y="407"/>
      <point x="389" y="379"/>
      <point x="356" y="359" type="curve"/>
      <point x="274" y="441" type="line"/>
      <point x="234" y="441"/>
      <point x="223" y="413"/>
      <point x="223" y="307" type="curve" smooth="yes"/>
      <point x="223" y="72" type="line" smooth="yes"/>
      <point x="223" y="64"/>
      <point x="235" y="53"/>
      <point x="244" y="52" type="curve" smooth="yes"/>
      <point x="294" y="47" type="line"/>
      <point x="294" y="0" type="line"/>
    </contour>
  </outline>
</glyph>
<glyph name="uni0285" format="2">
  <advance width="431"/>
  <unicode hex="0285"/>
  <outline>
    <contour>
      <point x="-41" y="423" type="curve" smooth="yes"/>
      <point x="-41" y="469"/>
      <point x="0" y="500"/>
      <point x="59" y="500" type="curve" smooth="yes"/>
      <point x="195" y="500"/>
      <point x="282" y="391"/>
      <point x="282" y="221" type="curve" smooth="yes"/>
      <point x="282" y="-5" type="line" smooth="yes"/>
      <point x="282" y="-85"/>
      <point x="292" y="-153"/>
      <point x="310" y="-187" type="curve"/>
      <point x="408" y="-88" type="line"/>
      <point x="442" y="-88"/>
      <point x="472" y="-119"/>
      <point x="472" y="-155" type="curve" smooth="yes"/>
      <point x="472" y="-200"/>
      <point x="431" y="-231"/>
      <point x="372" y="-231" type="curve" smooth="yes"/>
      <point x="236" y="-231"/>
      <point x="149" y="-123"/>
      <point x="149" y="47" type="curve" smooth="yes"/>
      <point x="149" y="273" type="line" smooth="yes"/>
      <point x="149" y="367"/>
      <point x="141" y="418"/>
      <point x="121" y="455" type="curve"/>
      <point x="23" y="356" type="line"/>
      <point x="-11" y="356"/>
      <point x="-41" y="388"/>
    </contour>
  </outline>
</glyph>
<glyph name="uni0286" format="2">
  <advance width="392"/>
  <unicode hex="0286"/>
  <outline>
    <contour>
      <point x="-6" y="-124" type="curve" smooth="yes"/>
      <point x="-6" y="-62"/>
      <point x="41" y="-23"/>
      <point x="115" y="-23" type="curve" smooth="yes"/>
      <point x="239.117" y="-23"/>
      <point x="318.703" y="-113.498"/>
      <point x="364" y="-210" type="curve"/>
      <point x="309" y="-224" type="line"/>
      <point x="296" y="-201"/>
      <point x="282" y="-181"/>
      <point x="267" y="-163" type="curve"/>
      <point x="237" y="-207"/>
      <point x="188" y="-231"/>
      <point x="129" y="-231" type="curve" smooth="yes"/>
      <point x="39" y="-231"/>
      <point x="-6" y="-195"/>
    </contour>
    <contour>
      <point x="67" y="-127" type="curve" smooth="yes"/>
      <point x="67" y="-159"/>
      <point x="88" y="-178"/>
      <point x="122" y="-178" type="curve" smooth="yes"/>
      <point x="156" y="-178"/>
      <point x="169" y="-153"/>
      <point x="169" y="-89" type="curve"/>
      <point x="153" y="-85"/>
      <point x="132" y="-82"/>
      <point x="116" y="-82" type="curve" smooth="yes"/>
      <point x="86" y="-82"/>
      <point x="67" y="-100"/>
    </contour>
    <contour>
      <point x="283" y="740" type="curve" smooth="yes"/>
      <point x="337" y="740"/>
      <point x="395" y="696"/>
      <point x="395" y="656" type="curve" smooth="yes"/>
      <point x="395" y="626"/>
      <point x="370" y="594"/>
      <point x="333" y="579" type="curve"/>
      <point x="247" y="671" type="line"/>
      <point x="226" y="661"/>
      <point x="218" y="645"/>
      <point x="218" y="608" type="curve" smooth="yes"/>
      <point x="218" y="592"/>
      <point x="220" y="571"/>
      <point x="223" y="547" type="curve" smooth="yes"/>
      <point x="297" y="-28" type="line" smooth="yes"/>
      <point x="298.156" y="-36.98"/>
      <point x="299" y="-47"/>
      <point x="299" y="-56" type="curve" smooth="yes"/>
      <point x="299" y="-83"/>
      <point x="294" y="-109"/>
      <point x="283" y="-132" type="curve"/>
      <point x="168" y="-77" type="line"/>
      <point x="168" y="-66"/>
      <point x="167" y="-54"/>
      <point x="165" y="-38" type="curve" smooth="yes"/>
      <point x="91" y="537" type="line" smooth="yes"/>
      <point x="89.8443" y="545.98"/>
      <point x="89" y="556"/>
      <point x="89" y="566" type="curve" smooth="yes"/>
      <point x="89" y="670"/>
      <point x="167" y="740"/>
    </contour>
  </outline>
</glyph>
<glyph name="uni0291" format="2">
  <advance width="501"/>
  <unicode hex="0291"/>
  <outline>
    <contour>
      <point x="32" y="0" type="line"/>
      <point x="32" y="65" type="line"/>
      <point x="288" y="431" type="line"/>
      <point x="137" y="431" type="line" smooth="yes"/>
      <point x="127" y="431"/>
      <point x="119" y="419"/>
      <point x="118" y="410" type="curve" smooth="yes"/>
      <point x="111" y="333" type="line"/>
      <point x="40" y="333" type="line"/>
      <point x="40" y="488" type="line"/>
      <point x="445" y="488" type="line"/>
      <point x="445" y="432" type="line"/>
      <point x="183" y="59" type="line"/>
      <point x="278" y="59" type="line"/>
      <point x="278" y="0" type="line"/>
    </contour>
    <contour>
      <point x="217" y="-120" type="line"/>
      <point x="220" y="-66"/>
      <point x="228" y="-21"/>
      <point x="241" y="32" type="curve"/>
      <point x="263" y="113"/>
      <point x="303" y="185"/>
      <point x="395" y="185" type="curve" smooth="yes"/>
      <point x="448" y="185"/>
      <point x="501" y="155"/>
      <point x="501" y="99" type="curve" smooth="yes"/>
      <point x="501" y="6"/>
      <point x="420" y="0"/>
      <point x="356" y="0" type="curve" smooth="yes"/>
      <point x="305" y="0" type="line"/>
      <point x="293" y="-45"/>
      <point x="286" y="-91"/>
      <point x="283" y="-120" type="curve"/>
    </contour>
    <contour>
      <point x="325" y="59" type="curve"/>
      <point x="347" y="59" type="line" smooth="yes"/>
      <point x="415" y="59"/>
      <point x="418" y="82"/>
      <point x="418" y="101" type="curve" smooth="yes"/>
      <point x="418" y="112"/>
      <point x="407" y="126"/>
      <point x="395" y="126" type="curve" smooth="yes"/>
      <point x="357" y="126"/>
      <point x="342" y="97"/>
    </contour>
  </outline>
</glyph>
<glyph name="uni0293" format="2">
  <advance width="560"/>
  <unicode hex="0293"/>
  <outline>
    <contour>
      <point x="16" y="-107" type="curve" smooth="yes"/>
      <point x="16" y="-36"/>
      <point x="66" y="9"/>
      <point x="145" y="9" type="curve" smooth="yes"/>
      <point x="252" y="9"/>
      <point x="341" y="-62"/>
      <point x="426" y="-217" type="curve"/>
      <point x="365" y="-251" type="line"/>
      <point x="355" y="-234"/>
      <point x="345" y="-219"/>
      <point x="335" y="-205" type="curve"/>
      <point x="280" y="-222"/>
      <point x="229" y="-230"/>
      <point x="171" y="-230" type="curve" smooth="yes"/>
      <point x="76" y="-230"/>
      <point x="16" y="-182"/>
    </contour>
    <contour>
      <point x="54" y="264" type="line"/>
      <point x="54" y="488" type="line"/>
      <point x="500" y="488" type="line"/>
      <point x="500" y="442" type="line"/>
      <point x="318" y="201" type="line"/>
      <point x="431" y="201"/>
      <point x="528" y="114"/>
      <point x="528" y="14" type="curve" smooth="yes"/>
      <point x="528" y="-75"/>
      <point x="473" y="-143"/>
      <point x="361" y="-194" type="curve"/>
      <point x="327" y="-132" type="line"/>
      <point x="362" y="-101"/>
      <point x="381" y="-45"/>
      <point x="381" y="23" type="curve" smooth="yes"/>
      <point x="381" y="107"/>
      <point x="343" y="152"/>
      <point x="273" y="152" type="curve" smooth="yes"/>
      <point x="256" y="152"/>
      <point x="243" y="149"/>
      <point x="234" y="144" type="curve"/>
      <point x="207" y="170" type="line"/>
      <point x="359" y="374" type="line"/>
      <point x="152" y="374" type="line" smooth="yes"/>
      <point x="143" y="374"/>
      <point x="133" y="363"/>
      <point x="132" y="353" type="curve" smooth="yes"/>
      <point x="125" y="264" type="line"/>
    </contour>
    <contour>
      <point x="104" y="-108" type="curve" smooth="yes"/>
      <point x="104" y="-138"/>
      <point x="144" y="-162"/>
      <point x="192" y="-162" type="curve" smooth="yes"/>
      <point x="223" y="-162"/>
      <point x="255" y="-156"/>
      <point x="292" y="-143" type="curve"/>
      <point x="247" y="-85"/>
      <point x="204" y="-59"/>
      <point x="156" y="-59" type="curve" smooth="yes"/>
      <point x="125" y="-59"/>
      <point x="104" y="-79"/>
    </contour>
  </outline>
</glyph>
<glyph name="uni0295" format="2">
  <advance width="479"/>
  <unicode hex="0295"/>
  <outline>
    <contour>
      <point x="37" y="497" type="curve" smooth="yes"/>
      <point x="37" y="613"/>
      <point x="134" y="687"/>
      <point x="264" y="687" type="curve" smooth="yes"/>
      <point x="345" y="687"/>
      <point x="443" y="662"/>
      <point x="443" y="575" type="curve" smooth="yes"/>
      <point x="443" y="532"/>
      <point x="410" y="522"/>
      <point x="388" y="522" type="curve" smooth="yes"/>
      <point x="366" y="522"/>
      <point x="350" y="528"/>
      <point x="344" y="531" type="curve"/>
      <point x="309" y="616" type="line"/>
      <point x="293" y="626"/>
      <point x="283" y="627"/>
      <point x="263" y="627" type="curve" smooth="yes"/>
      <point x="200" y="627"/>
      <point x="173" y="555"/>
      <point x="173" y="499" type="curve" smooth="yes"/>
      <point x="173" y="356"/>
      <point x="346" y="303"/>
      <point x="346" y="303" type="curve"/>
      <point x="346" y="79" type="line" smooth="yes"/>
      <point x="346" y="66"/>
      <point x="355" y="58"/>
      <point x="368" y="57" type="curve" smooth="yes"/>
      <point x="432" y="52" type="line"/>
      <point x="432" y="0" type="line"/>
      <point x="126" y="0" type="line"/>
      <point x="126" y="52" type="line"/>
      <point x="190" y="57" type="line" smooth="yes"/>
      <point x="203" y="58"/>
      <point x="212" y="66"/>
      <point x="212" y="79" type="curve" smooth="yes"/>
      <point x="212" y="288" type="line"/>
      <point x="212" y="288"/>
      <point x="37" y="325"/>
    </contour>
  </outline>
</glyph>
<glyph name="uni0296" format="2">
  <advance width="479"/>
  <unicode hex="0296"/>
  <outline>
    <contour>
      <point x="37" y="101" type="curve" smooth="yes"/>
      <point x="37" y="132"/>
      <point x="59" y="153"/>
      <point x="92" y="153" type="curve" smooth="yes"/>
      <point x="107" y="153"/>
      <point x="127" y="149"/>
      <point x="136" y="145" type="curve"/>
      <point x="171" y="60" type="line"/>
      <point x="185" y="50"/>
      <point x="194" y="48"/>
      <point x="217" y="48" type="curve"/>
      <point x="268" y="49"/>
      <point x="307" y="104"/>
      <point x="307" y="176" type="curve" smooth="yes"/>
      <point x="307" y="320"/>
      <point x="134" y="372"/>
      <point x="134" y="372" type="curve"/>
      <point x="134" y="592" type="line" smooth="yes"/>
      <point x="134" y="604"/>
      <point x="126" y="613"/>
      <point x="112" y="614" type="curve" smooth="yes"/>
      <point x="48" y="619" type="line"/>
      <point x="48" y="671" type="line"/>
      <point x="354" y="671" type="line"/>
      <point x="354" y="619" type="line"/>
      <point x="290" y="614" type="line" smooth="yes"/>
      <point x="276" y="613"/>
      <point x="268" y="604"/>
      <point x="268" y="592" type="curve" smooth="yes"/>
      <point x="268" y="387" type="line"/>
      <point x="268" y="387"/>
      <point x="443" y="351"/>
      <point x="443" y="178" type="curve" smooth="yes"/>
      <point x="443" y="66"/>
      <point x="350" y="-12"/>
      <point x="216" y="-12" type="curve" smooth="yes"/>
      <point x="107" y="-12"/>
      <point x="37" y="32"/>
    </contour>
  </outline>
</glyph>
<glyph name="uni0298" format="2">
  <advance width="775"/>
  <unicode hex="0298"/>
  <outline>
    <contour>
      <point x="39" y="335" type="curve" smooth="yes"/>
      <point x="39" y="529"/>
      <point x="196" y="687"/>
      <point x="389" y="687" type="curve" smooth="yes"/>
      <point x="581" y="687"/>
      <point x="737" y="529"/>
      <point x="737" y="336" type="curve" smooth="yes"/>
      <point x="737" y="141"/>
      <point x="581" y="-16"/>
      <point x="388" y="-16" type="curve" smooth="yes"/>
      <point x="196" y="-16"/>
      <point x="39" y="141"/>
    </contour>
    <contour>
      <point x="144" y="335" type="curve" smooth="yes"/>
      <point x="144" y="199"/>
      <point x="254" y="89"/>
      <point x="388" y="89" type="curve" smooth="yes"/>
      <point x="523" y="89"/>
      <point x="632" y="199"/>
      <point x="632" y="335" type="curve" smooth="yes"/>
      <point x="632" y="471"/>
      <point x="523" y="582"/>
      <point x="389" y="582" type="curve" smooth="yes"/>
      <point x="254" y="582"/>
      <point x="144" y="472"/>
    </contour>
    <contour>
      <point x="303" y="339" type="curve" smooth="yes"/>
      <point x="303" y="387"/>
      <point x="340" y="424"/>
      <point x="388" y="424" type="curve" smooth="yes"/>
      <point x="436" y="424"/>
      <point x="474" y="387"/>
      <point x="474" y="339" type="curve" smooth="yes"/>
      <point x="474" y="290"/>
      <point x="436" y="250"/>
      <point x="388" y="250" type="curve" smooth="yes"/>
      <point x="341" y="250"/>
      <point x="303" y="290"/>
    </contour>
  </outline>
</glyph>
<glyph name="uni029F" format="2">
  <advance width="455"/>
  <unicode hex="029F"/>
  <outline>
    <contour>
      <point x="25" y="0" type="line"/>
      <point x="25" y="47" type="line"/>
      <point x="78" y="51" type="line"/>
      <point x="86" y="52"/>
      <point x="90" y="57"/>
      <point x="90" y="66" type="curve" smooth="yes"/>
      <point x="90" y="427" type="line" smooth="yes"/>
      <point x="90" y="432"/>
      <point x="86" y="436"/>
      <point x="78" y="437" type="curve"/>
      <point x="25" y="441" type="line"/>
      <point x="25" y="488" type="line"/>
      <point x="273" y="488" type="line"/>
      <point x="273" y="441" type="line"/>
      <point x="225" y="437" type="line"/>
      <point x="217" y="436"/>
      <point x="213" y="432"/>
      <point x="213" y="427" type="curve" smooth="yes"/>
      <point x="213" y="54" type="line"/>
      <point x="340" y="54" type="line" smooth="yes"/>
      <point x="348" y="54"/>
      <point x="353" y="61"/>
      <point x="353" y="68" type="curve"/>
      <point x="366" y="153" type="line"/>
      <point x="439" y="153" type="line"/>
      <point x="439" y="0" type="line"/>
    </contour>
  </outline>
</glyph>
<glyph name="uni02A7" format="2">
  <advance width="638"/>
  <unicode hex="02A7"/>
  <outline>
    <contour>
      <point x="24" y="424" type="line"/>
      <point x="24" y="464" type="line"/>
      <point x="101" y="510" type="line"/>
      <point x="155" y="616" type="line"/>
      <point x="224" y="616" type="line"/>
      <point x="224" y="488" type="line"/>
      <point x="346" y="488" type="line"/>
      <point x="339" y="537" type="line"/>
      <point x="338" y="546"/>
      <point x="337" y="555"/>
      <point x="337" y="564" type="curve" smooth="yes"/>
      <point x="337" y="669"/>
      <point x="415" y="740"/>
      <point x="531" y="740" type="curve" smooth="yes"/>
      <point x="585" y="740"/>
      <point x="643" y="696"/>
      <point x="643" y="656" type="curve" smooth="yes"/>
      <point x="643" y="617"/>
      <point x="622" y="590"/>
      <point x="582" y="579" type="curve"/>
      <point x="495" y="671" type="line"/>
      <point x="474" y="661"/>
      <point x="466" y="645"/>
      <point x="466" y="608" type="curve" smooth="yes"/>
      <point x="466" y="592"/>
      <point x="468" y="572"/>
      <point x="471" y="547" type="curve" smooth="yes"/>
      <point x="545" y="-28" type="line" smooth="yes"/>
      <point x="546" y="-37"/>
      <point x="547" y="-46"/>
      <point x="547" y="-55" type="curve" smooth="yes"/>
      <point x="547" y="-160"/>
      <point x="469" y="-231"/>
      <point x="353" y="-231" type="curve" smooth="yes"/>
      <point x="286" y="-231"/>
      <point x="241" y="-197"/>
      <point x="241" y="-146" type="curve" smooth="yes"/>
      <point x="241" y="-91"/>
      <point x="303" y="-70"/>
      <point x="303" y="-70" type="curve"/>
      <point x="390" y="-162" type="line"/>
      <point x="407" y="-148"/>
      <point x="419" y="-122"/>
      <point x="419" y="-98" type="curve" smooth="yes"/>
      <point x="419" y="-82"/>
      <point x="417" y="-62"/>
      <point x="414" y="-38" type="curve" smooth="yes"/>
      <point x="354" y="424" type="line"/>
      <point x="224" y="424" type="line"/>
      <point x="224" y="152" type="line" smooth="yes"/>
      <point x="224" y="92"/>
      <point x="249" y="65"/>
      <point x="306" y="65" type="curve" smooth="yes"/>
      <point x="338" y="65"/>
      <point x="371" y="72"/>
      <point x="371" y="72" type="curve"/>
      <point x="371" y="22" type="line"/>
      <point x="371" y="22"/>
      <point x="292" y="-12"/>
      <point x="211" y="-12" type="curve" smooth="yes"/>
      <point x="125" y="-12"/>
      <point x="90" y="24"/>
      <point x="90" y="111" type="curve" smooth="yes"/>
      <point x="90" y="424" type="line"/>
    </contour>
  </outline>
</glyph>
<glyph name="uni02AC" format="2">
  <advance width="546"/>
  <unicode hex="02AC"/>
  <outline>
    <contour>
      <point x="6" y="265" type="line"/>
      <point x="6" y="293" type="line"/>
      <point x="173" y="293" type="line"/>
      <point x="173" y="265" type="line"/>
      <point x="145" y="263" type="line"/>
      <point x="137" y="262"/>
      <point x="134" y="260"/>
      <point x="134" y="255" type="curve"/>
      <point x="134" y="254"/>
      <point x="134" y="252"/>
      <point x="135" y="250" type="curve"/>
      <point x="186" y="85" type="line"/>
      <point x="259" y="293" type="line"/>
      <point x="330" y="293" type="line"/>
      <point x="399" y="84" type="line"/>
      <point x="454" y="250" type="line"/>
      <point x="455" y="252"/>
      <point x="455" y="254"/>
      <point x="455" y="255" type="curve"/>
      <point x="455" y="260"/>
      <point x="452" y="262"/>
      <point x="444" y="263" type="curve"/>
      <point x="416" y="265" type="line"/>
      <point x="416" y="293" type="line"/>
      <point x="541" y="293" type="line"/>
      <point x="541" y="265" type="line"/>
      <point x="504" y="260" type="line"/>
      <point x="417" y="0" type="line"/>
      <point x="345" y="0" type="line"/>
      <point x="274" y="213" type="line"/>
      <point x="199" y="0" type="line"/>
      <point x="128" y="0" type="line"/>
      <point x="45" y="261" type="line"/>
    </contour>
    <contour>
      <point x="6" y="643" type="line"/>
      <point x="6" y="671" type="line"/>
      <point x="173" y="671" type="line"/>
      <point x="173" y="643" type="line"/>
      <point x="145" y="642" type="line"/>
      <point x="138" y="642"/>
      <point x="134" y="639"/>
      <point x="134" y="634" type="curve"/>
      <point x="134" y="632"/>
      <point x="134" y="630"/>
      <point x="135" y="628" type="curve"/>
      <point x="186" y="463" type="line"/>
      <point x="259" y="671" type="line"/>
      <point x="330" y="671" type="line"/>
      <point x="399" y="462" type="line"/>
      <point x="454" y="628" type="line"/>
      <point x="455" y="630"/>
      <point x="455" y="632"/>
      <point x="455" y="634" type="curve"/>
      <point x="455" y="639"/>
      <point x="451" y="642"/>
      <point x="444" y="642" type="curve"/>
      <point x="416" y="643" type="line"/>
      <point x="416" y="671" type="line"/>
      <point x="541" y="671" type="line"/>
      <point x="541" y="643" type="line"/>
      <point x="504" y="639" type="line"/>
      <point x="417" y="379" type="line"/>
      <point x="345" y="379" type="line"/>
      <point x="274" y="592" type="line"/>
      <point x="199" y="379" type="line"/>
      <point x="128" y="379" type="line"/>
      <point x="45" y="640" type="line"/>
    </contour>
  </outline>
</glyph>
<glyph name="uni02AD" format="2">
  <advance width="471"/>
  <unicode hex="02AD"/>
  <outline>
    <contour>
      <point x="29" y="466" type="line"/>
      <point x="29" y="688" type="line"/>
      <point x="461" y="688" type="line"/>
      <point x="461" y="466" type="line"/>
      <point x="413" y="466" type="line"/>
      <point x="413" y="602" type="line"/>
      <point x="78" y="602" type="line"/>
      <point x="78" y="466" type="line"/>
    </contour>
    <contour>
      <point x="34" y="0" type="line"/>
      <point x="34" y="222" type="line"/>
      <point x="466" y="222" type="line"/>
      <point x="466" y="0" type="line"/>
      <point x="418" y="0" type="line"/>
      <point x="418" y="135" type="line"/>
      <point x="83" y="135" type="line"/>
      <point x="83" y="0" type="line"/>
    </contour>
  </outline>
</glyph>
<glyph name="uni02B0" format="2">
  <advance width="403"/>
  <unicode hex="02B0"/>
  <outline>
    <contour>
      <point x="13" y="772" type="line"/>
      <point x="13" y="797" type="line"/>
      <point x="113" y="827" type="line"/>
      <point x="146" y="827" type="line"/>
      <point x="146" y="646" type="line"/>
      <point x="174" y="667"/>
      <point x="224" y="683"/>
      <point x="261" y="683" type="curve" smooth="yes"/>
      <point x="316" y="683"/>
      <point x="349" y="647"/>
      <point x="349" y="588" type="curve" smooth="yes"/>
      <point x="349" y="427" type="line" smooth="yes"/>
      <point x="349" y="419"/>
      <point x="355" y="413"/>
      <point x="363" y="413" type="curve"/>
      <point x="391" y="411" type="line"/>
      <point x="391" y="383" type="line"/>
      <point x="227" y="383" type="line"/>
      <point x="227" y="411" type="line"/>
      <point x="248" y="413" type="line"/>
      <point x="256" y="413"/>
      <point x="263" y="419"/>
      <point x="263" y="427" type="curve" smooth="yes"/>
      <point x="263" y="568" type="line" smooth="yes"/>
      <point x="263" y="604"/>
      <point x="241" y="628"/>
      <point x="208" y="628" type="curve" smooth="yes"/>
      <point x="186" y="628"/>
      <point x="164" y="625"/>
      <point x="146" y="620" type="curve"/>
      <point x="146" y="427" type="line" smooth="yes"/>
      <point x="146" y="419"/>
      <point x="153" y="413"/>
      <point x="161" y="413" type="curve"/>
      <point x="184" y="411" type="line"/>
      <point x="184" y="383" type="line"/>
      <point x="19" y="383" type="line"/>
      <point x="19" y="411" type="line"/>
      <point x="45" y="413" type="line"/>
      <point x="53" y="413"/>
      <point x="60" y="419"/>
      <point x="60" y="427" type="curve" smooth="yes"/>
      <point x="60" y="772" type="line"/>
    </contour>
  </outline>
</glyph>
<glyph name="uni02B7" format="2">
  <advance width="546"/>
  <unicode hex="02B7"/>
  <outline>
    <contour>
      <point x="6" y="648" type="line"/>
      <point x="6" y="676" type="line"/>
      <point x="173" y="676" type="line"/>
      <point x="173" y="648" type="line"/>
      <point x="145" y="646" type="line"/>
      <point x="139" y="646"/>
      <point x="134" y="642"/>
      <point x="134" y="637" type="curve"/>
      <point x="134" y="636"/>
      <point x="135" y="634"/>
      <point x="135" y="633" type="curve"/>
      <point x="186" y="468" type="line"/>
      <point x="259" y="676" type="line"/>
      <point x="330" y="676" type="line"/>
      <point x="400" y="467" type="line"/>
      <point x="454" y="633" type="line"/>
      <point x="454" y="634"/>
      <point x="455" y="636"/>
      <point x="455" y="637" type="curve"/>
      <point x="455" y="642"/>
      <point x="451" y="646"/>
      <point x="445" y="646" type="curve"/>
      <point x="416" y="648" type="line"/>
      <point x="416" y="676" type="line"/>
      <point x="541" y="676" type="line"/>
      <point x="541" y="648" type="line"/>
      <point x="504" y="644" type="line"/>
      <point x="417" y="383" type="line"/>
      <point x="345" y="383" type="line"/>
      <point x="274" y="596" type="line"/>
      <point x="200" y="383" type="line"/>
      <point x="129" y="383" type="line"/>
      <point x="45" y="645" type="line"/>
    </contour>
  </outline>
</glyph>
<glyph name="uni02BC" format="2">
  <advance width="274"/>
  <unicode hex="02BC"/>
  <outline>
    <contour>
      <point x="59" y="421" type="line"/>
      <point x="136" y="464"/>
      <point x="154" y="508"/>
      <point x="154" y="557" type="curve" smooth="yes"/>
      <point x="154" y="567" type="line"/>
      <point x="95" y="567" type="line"/>
      <point x="90" y="573"/>
      <point x="75" y="591"/>
      <point x="75" y="622" type="curve" smooth="yes"/>
      <point x="75" y="664"/>
      <point x="98" y="695"/>
      <point x="148" y="695" type="curve" smooth="yes"/>
      <point x="201" y="695"/>
      <point x="238" y="650"/>
      <point x="238" y="591" type="curve" smooth="yes"/>
      <point x="238" y="443"/>
      <point x="123" y="394"/>
      <point x="74" y="383" type="curve"/>
    </contour>
  </outline>
</glyph>
<glyph name="uni02C0" format="2">
  <advance width="312"/>
  <unicode hex="02C0"/>
  <outline>
    <contour>
      <point x="24" y="640" type="curve" smooth="yes"/>
      <point x="24" y="681"/>
      <point x="69" y="707"/>
      <point x="141" y="707" type="curve" smooth="yes"/>
      <point x="222" y="707"/>
      <point x="278" y="665"/>
      <point x="278" y="603" type="curve" smooth="yes"/>
      <point x="278" y="549"/>
      <point x="234" y="508"/>
      <point x="174" y="498" type="curve"/>
      <point x="174" y="442" type="line"/>
      <point x="87" y="442" type="line"/>
      <point x="87" y="507" type="line"/>
      <point x="87" y="507"/>
      <point x="189" y="533"/>
      <point x="189" y="604" type="curve" smooth="yes"/>
      <point x="189" y="642"/>
      <point x="169" y="671"/>
      <point x="141" y="671" type="curve" smooth="yes"/>
      <point x="125" y="671"/>
      <point x="119" y="670"/>
      <point x="111" y="664" type="curve"/>
      <point x="88" y="613" type="line"/>
      <point x="82" y="610"/>
      <point x="73" y="608"/>
      <point x="60" y="608" type="curve" smooth="yes"/>
      <point x="38" y="608"/>
      <point x="24" y="621"/>
    </contour>
  </outline>
</glyph>
<glyph name="uni02C5" format="2">
  <advance width="476"/>
  <unicode hex="02C5"/>
  <outline>
    <contour>
      <point x="50" y="775" type="line"/>
      <point x="95" y="775" type="line"/>
      <point x="238" y="453" type="line"/>
      <point x="381" y="775" type="line"/>
      <point x="426" y="775" type="line"/>
      <point x="260" y="415" type="line"/>
      <point x="216" y="415" type="line"/>
    </contour>
  </outline>
</glyph>
<glyph name="uni02D4" format="2">
  <advance width="415"/>
  <unicode hex="02D4"/>
  <outline>
    <contour>
      <point x="53" y="101" type="line"/>
      <point x="53" y="169" type="line"/>
      <point x="173" y="169" type="line"/>
      <point x="173" y="370" type="line"/>
      <point x="242" y="370" type="line"/>
      <point x="242" y="169" type="line"/>
      <point x="361" y="169" type="line"/>
      <point x="361" y="101" type="line"/>
    </contour>
  </outline>
</glyph>
<glyph name="uni02E6" format="2">
  <advance width="418"/>
  <unicode hex="02E6"/>
  <outline>
    <contour>
      <point x="39" y="486" type="line"/>
      <point x="39" y="562" type="line"/>
      <point x="273" y="562" type="line"/>
      <point x="273" y="723" type="line"/>
      <point x="348" y="723" type="line"/>
      <point x="348" y="0" type="line"/>
      <point x="273" y="0" type="line"/>
      <point x="273" y="486" type="line"/>
    </contour>
  </outline>
</glyph>
<glyph name="uni02F0" format="2">
  <advance width="237"/>
  <unicode hex="02F0"/>
  <outline>
    <contour>
      <point x="25" y="-244" type="line"/>
      <point x="108" y="-64" type="line"/>
      <point x="130" y="-64" type="line"/>
      <point x="213" y="-244" type="line"/>
      <point x="190" y="-244" type="line"/>
      <point x="119" y="-83" type="line"/>
      <point x="47" y="-244" type="line"/>
    </contour>
  </outline>
</glyph>
<glyph name="uni02F6" format="2">
  <advance width="472"/>
  <unicode hex="02F6"/>
  <outline>
    <contour>
      <point x="0" y="312" type="line"/>
      <point x="137" y="463" type="line" smooth="yes"/>
      <point x="159" y="488"/>
      <point x="173" y="495"/>
      <point x="200" y="495" type="curve" smooth="yes"/>
      <point x="234" y="495"/>
      <point x="257" y="474"/>
      <point x="257" y="442" type="curve" smooth="yes"/>
      <point x="257" y="427"/>
      <point x="245" y="407"/>
      <point x="231" y="400" type="curve"/>
      <point x="70" y="312" type="line"/>
    </contour>
    <contour>
      <point x="215" y="312" type="line"/>
      <point x="352" y="463" type="line" smooth="yes"/>
      <point x="374" y="488"/>
      <point x="388" y="495"/>
      <point x="415" y="495" type="curve" smooth="yes"/>
      <point x="449" y="495"/>
      <point x="472" y="474"/>
      <point x="472" y="442" type="curve" smooth="yes"/>
      <point x="472" y="427"/>
      <point x="460" y="407"/>
      <point x="446" y="400" type="curve"/>
      <point x="285" y="312" type="line"/>
    </contour>
  </outline>
</glyph>
<glyph name="gravecomb" format="2">
  <unicode hex="0300"/>
  <outline>
    <contour>
      <point x="-451" y="681" type="curve" smooth="yes"/>
      <point x="-451" y="713"/>
      <point x="-428" y="734"/>
      <point x="-394" y="734" type="curve" smooth="yes"/>
      <point x="-367" y="734"/>
      <point x="-354" y="727"/>
      <point x="-331" y="702" type="curve" smooth="yes"/>
      <point x="-194" y="551" type="line"/>
      <point x="-264" y="551" type="line"/>
      <point x="-426" y="639" type="line" smooth="yes"/>
      <point x="-439" y="646"/>
      <point x="-451" y="667"/>
    </contour>
  </outline>
</glyph>
<glyph name="uni030A" format="2">
  <unicode hex="030A"/>
  <outline>
    <contour>
      <point x="-418" y="677" type="curve" smooth="yes"/>
      <point x="-418" y="747"/>
      <point x="-361" y="803"/>
      <point x="-292" y="803" type="curve" smooth="yes"/>
      <point x="-222" y="803"/>
      <point x="-166" y="747"/>
      <point x="-166" y="677" type="curve" smooth="yes"/>
      <point x="-166" y="607"/>
      <point x="-222" y="551"/>
      <point x="-292" y="551" type="curve" smooth="yes"/>
      <point x="-361" y="551"/>
      <point x="-418" y="607"/>
    </contour>
    <contour>
      <point x="-355" y="677" type="curve" smooth="yes"/>
      <point x="-355" y="642"/>
      <point x="-326" y="614"/>
      <point x="-292" y="614" type="curve" smooth="yes"/>
      <point x="-257" y="614"/>
      <point x="-229" y="642"/>
      <point x="-229" y="677" type="curve" smooth="yes"/>
      <point x="-229" y="712"/>
      <point x="-257" y="740"/>
      <point x="-292" y="740" type="curve" smooth="yes"/>
      <point x="-326" y="740"/>
      <point x="-355" y="712"/>
    </contour>
  </outline>
</glyph>
<glyph name="uni030B" format="2">
  <unicode hex="030B"/>
  <outline>
    <contour>
      <point x="-485" y="551" type="line"/>
      <point x="-348" y="702" type="line" smooth="yes"/>
      <point x="-326" y="727"/>
      <point x="-312" y="734"/>
      <point x="-285" y="734" type="curve" smooth="yes"/>
      <point x="-251" y="734"/>
      <point x="-229" y="713"/>
      <point x="-229" y="681" type="curve" smooth="yes"/>
      <point x="-229" y="666"/>
      <point x="-241" y="646"/>
      <point x="-254" y="639" type="curve" smooth="yes"/>
      <point x="-416" y="551" type="line"/>
    </contour>
    <contour>
      <point x="-271" y="551" type="line"/>
      <point x="-133" y="702" type="line" smooth="yes"/>
      <point x="-111" y="727"/>
      <point x="-97" y="734"/>
      <point x="-70" y="734" type="curve" smooth="yes"/>
      <point x="-36" y="734"/>
      <point x="-13" y="713"/>
      <point x="-13" y="681" type="curve" smooth="yes"/>
      <point x="-13" y="667"/>
      <point x="-26" y="646"/>
      <point x="-40" y="639" type="curve"/>
      <point x="-200" y="551" type="line"/>
    </contour>
  </outline>
</glyph>
<glyph name="uni0319" format="2">
  <unicode hex="0319"/>
  <outline>
    <contour>
      <point x="-362" y="-61" type="line"/>
      <point x="-307" y="-61" type="line"/>
      <point x="-307" y="-131" type="line"/>
      <point x="-222" y="-131" type="line"/>
      <point x="-222" y="-186" type="line"/>
      <point x="-307" y="-186" type="line"/>
      <point x="-307" y="-255" type="line"/>
      <point x="-362" y="-255" type="line"/>
    </contour>
  </outline>
</glyph>
<glyph name="uni0320" format="2">
  <unicode hex="0320"/>
  <outline>
    <contour>
      <point x="-404" y="-61" type="line"/>
      <point x="-180" y="-61" type="line"/>
      <point x="-180" y="-116" type="line"/>
      <point x="-404" y="-116" type="line"/>
    </contour>
  </outline>
</glyph>
<glyph name="uni0321" format="2">
  <unicode hex="0321"/>
  <outline>
    <contour>
      <point x="-315" y="-162" type="curve" smooth="yes"/>
      <point x="-315" y="-118"/>
      <point x="-299" y="-93"/>
      <point x="-257" y="-70" type="curve"/>
      <point x="-162" y="-161" type="line"/>
      <point x="-118" y="-161"/>
      <point x="-102" y="-147"/>
      <point x="-102" y="-109" type="curve" smooth="yes"/>
      <point x="-102" y="70" type="line"/>
      <point x="-39" y="70" type="line"/>
      <point x="-39" y="-107" type="line" smooth="yes"/>
      <point x="-39" y="-177"/>
      <point x="-106" y="-231"/>
      <point x="-191" y="-231" type="curve" smooth="yes"/>
      <point x="-259" y="-231"/>
      <point x="-315" y="-200"/>
    </contour>
  </outline>
</glyph>
<glyph name="uni0328" format="2">
  <unicode hex="0328"/>
  <outline>
    <contour>
      <point x="-352" y="-124" type="curve" smooth="yes"/>
      <point x="-352" y="-65"/>
      <point x="-301" y="-20"/>
      <point x="-271" y="1" type="curve"/>
      <point x="-208" y="1" type="line"/>
      <point x="-245" y="-27"/>
      <point x="-271" y="-59"/>
      <point x="-271" y="-98" type="curve" smooth="yes"/>
      <point x="-271" y="-127"/>
      <point x="-254" y="-150"/>
      <point x="-221" y="-150" type="curve" smooth="yes"/>
      <point x="-208" y="-150"/>
      <point x="-183" y="-131"/>
      <point x="-177" y="-125" type="curve"/>
      <point x="-146" y="-177" type="line"/>
      <point x="-173" y="-196"/>
      <point x="-200" y="-208"/>
      <point x="-241" y="-208" type="curve" smooth="yes"/>
      <point x="-304" y="-208"/>
      <point x="-352" y="-177"/>
    </contour>
  </outline>
</glyph>
<glyph name="uni032D" format="2">
  <unicode hex="032D"/>
  <outline>
    <contour>
      <point x="-462" y="-246" type="line"/>
      <point x="-351" y="-75" type="line"/>
      <point x="-233" y="-75" type="line"/>
      <point x="-122" y="-246" type="line"/>
      <point x="-205" y="-246" type="line"/>
      <point x="-292" y="-151" type="line"/>
      <point x="-379" y="-246" type="line"/>
    </contour>
  </outline>
</glyph>
<glyph name="uni0334" format="2">
  <unicode hex="0334"/>
  <outline>
    <contour>
      <point x="-470" y="183" type="line"/>
      <point x="-450" y="264"/>
      <point x="-408" y="308"/>
      <point x="-350" y="308" type="curve" smooth="yes"/>
      <point x="-331" y="308"/>
      <point x="-315" y="302"/>
      <point x="-287" y="284" type="curve" smooth="yes"/>
      <point x="-257" y="265"/>
      <point x="-240" y="259"/>
      <point x="-217" y="259" type="curve" smooth="yes"/>
      <point x="-196" y="259"/>
      <point x="-176" y="281"/>
      <point x="-173" y="308" type="curve"/>
      <point x="-119" y="308" type="line"/>
      <point x="-139" y="226"/>
      <point x="-181" y="183"/>
      <point x="-240" y="183" type="curve" smooth="yes"/>
      <point x="-259" y="183"/>
      <point x="-275" y="188"/>
      <point x="-302" y="205" type="curve" smooth="yes"/>
      <point x="-332" y="223"/>
      <point x="-349" y="230"/>
      <point x="-372" y="230" type="curve" smooth="yes"/>
      <point x="-394" y="230"/>
      <point x="-413" y="210"/>
      <point x="-416" y="183" type="curve"/>
    </contour>
  </outline>
</glyph>
<glyph name="uni0335" format="2">
  <unicode hex="0335"/>
  <outline>
    <contour>
      <point x="-462" y="217" type="line"/>
      <point x="-462" y="281" type="line"/>
      <point x="-122" y="281" type="line"/>
      <point x="-122" y="217" type="line"/>
    </contour>
  </outline>
</glyph>
<glyph name="uni0336" format="2">
  <unicode hex="0336"/>
  <outline>
    <contour>
      <point x="-604" y="217" type="line"/>
      <point x="-604" y="281" type="line"/>
      <point x="0" y="281" type="line"/>
      <point x="0" y="217" type="line"/>
    </contour>
  </outline>
</glyph>
<glyph name="uni0338" format="2">
  <unicode hex="0338"/>
  <outline>
    <contour>
      <point x="-494" y="-128" type="line"/>
      <point x="-142" y="647" type="line"/>
      <point x="-98" y="622" type="line"/>
      <point x="-450" y="-156" type="line"/>
    </contour>
  </outline>
</glyph>
<glyph name="uni033A" format="2">
  <unicode hex="033A"/>
  <outline>
    <contour>
      <point x="-415" y="-61" type="line"/>
      <point x="-360" y="-61" type="line"/>
      <point x="-360" y="-157" type="line"/>
      <point x="-224" y="-157" type="line"/>
      <point x="-224" y="-61" type="line"/>
      <point x="-169" y="-61" type="line"/>
      <point x="-169" y="-212" type="line"/>
      <point x="-415" y="-212" type="line"/>
    </contour>
  </outline>
</glyph>
<glyph name="uni0349" format="2">
  <unicode hex="0349"/>
  <outline>
    <contour>
      <point x="-394" y="-61" type="line"/>
      <point x="-190" y="-61" type="line"/>
      <point x="-190" y="-274" type="line"/>
      <point x="-239" y="-274" type="line"/>
      <point x="-239" y="-110" type="line"/>
      <point x="-394" y="-110" type="line"/>
    </contour>
  </outline>
</glyph>
<glyph name="uni034B" format="2">
  <unicode hex="034B"/>
  <outline>
    <contour>
      <point x="-467" y="626" type="line"/>
      <point x="-450" y="695"/>
      <point x="-414" y="750"/>
      <point x="-347" y="750" type="curve" smooth="yes"/>
      <point x="-321" y="750"/>
      <point x="-303" y="739"/>
      <point x="-284" y="727" type="curve"/>
      <point x="-265" y="714"/>
      <point x="-244" y="703"/>
      <point x="-214" y="703" type="curve" smooth="yes"/>
      <point x="-193" y="703"/>
      <point x="-173" y="724"/>
      <point x="-170" y="750" type="curve"/>
      <point x="-116" y="750" type="line"/>
      <point x="-133" y="681"/>
      <point x="-169" y="626"/>
      <point x="-237" y="626" type="curve" smooth="yes"/>
      <point x="-262" y="626"/>
      <point x="-281" y="637"/>
      <point x="-299" y="649" type="curve"/>
      <point x="-319" y="661"/>
      <point x="-339" y="674"/>
      <point x="-369" y="674" type="curve" smooth="yes"/>
      <point x="-391" y="674"/>
      <point x="-410" y="653"/>
      <point x="-413" y="626" type="curve"/>
    </contour>
    <contour>
      <point x="-382" y="593" type="curve" smooth="yes"/>
      <point x="-382" y="615"/>
      <point x="-368" y="629"/>
      <point x="-346" y="629" type="curve" smooth="yes"/>
      <point x="-324" y="629"/>
      <point x="-310" y="615"/>
      <point x="-310" y="593" type="curve" smooth="yes"/>
      <point x="-310" y="571"/>
      <point x="-324" y="557"/>
      <point x="-346" y="557" type="curve" smooth="yes"/>
      <point x="-368" y="557"/>
      <point x="-382" y="571"/>
    </contour>
    <contour>
      <point x="-270" y="785" type="curve" smooth="yes"/>
      <point x="-270" y="806"/>
      <point x="-255" y="821"/>
      <point x="-233" y="821" type="curve" smooth="yes"/>
      <point x="-212" y="821"/>
      <point x="-198" y="807"/>
      <point x="-198" y="785" type="curve" smooth="yes"/>
      <point x="-198" y="763"/>
      <point x="-212" y="749"/>
      <point x="-233" y="749" type="curve" smooth="yes"/>
      <point x="-255" y="749"/>
      <point x="-270" y="764"/>
    </contour>
  </outline>
</glyph>
<glyph name="uni0360" format="2">
  <unicode hex="0360"/>
  <outline>
    <contour>
      <point x="-507" y="797" type="line"/>
      <point x="-476" y="853"/>
      <point x="-412" y="922"/>
      <point x="-277" y="922" type="curve" smooth="yes"/>
      <point x="-159" y="922"/>
      <point x="-81" y="905"/>
      <point x="-2" y="888" type="curve" smooth="yes"/>
      <point x="77" y="871"/>
      <point x="157" y="854"/>
      <point x="277" y="854" type="curve" smooth="yes"/>
      <point x="386" y="854"/>
      <point x="460" y="896"/>
      <point x="479" y="934" type="curve"/>
      <point x="507" y="897" type="line"/>
      <point x="479" y="845"/>
      <point x="399" y="781"/>
      <point x="271" y="781" type="curve" smooth="yes"/>
      <point x="154" y="781"/>
      <point x="75" y="798"/>
      <point x="-4" y="815" type="curve" smooth="yes"/>
      <point x="-83" y="832"/>
      <point x="-163" y="849"/>
      <point x="-282" y="849" type="curve" smooth="yes"/>
      <point x="-400" y="849"/>
      <point x="-456" y="801"/>
      <point x="-480" y="761" type="curve"/>
    </contour>
  </outline>
</glyph>
<glyph name="uni0366" format="2">
  <unicode hex="0366"/>
  <outline>
    <contour>
      <point x="-461" y="711" type="curve" smooth="yes"/>
      <point x="-461" y="809"/>
      <point x="-390" y="866"/>
      <point x="-289" y="866" type="curve" smooth="yes"/>
      <point x="-182" y="866"/>
      <point x="-123" y="802"/>
      <point x="-123" y="710" type="curve" smooth="yes"/>
      <point x="-123" y="621"/>
      <point x="-186" y="559"/>
      <point x="-294" y="559" type="curve" smooth="yes"/>
      <point x="-393" y="559"/>
      <point x="-461" y="616"/>
    </contour>
    <contour>
      <point x="-364" y="713" type="curve" smooth="yes"/>
      <point x="-364" y="662"/>
      <point x="-352" y="592"/>
      <point x="-291" y="592" type="curve" smooth="yes"/>
      <point x="-232" y="592"/>
      <point x="-219" y="658"/>
      <point x="-219" y="711" type="curve" smooth="yes"/>
      <point x="-219" y="762"/>
      <point x="-233" y="832"/>
      <point x="-292" y="832" type="curve" smooth="yes"/>
      <point x="-351" y="832"/>
      <point x="-364" y="765"/>
    </contour>
  </outline>
</glyph>
<glyph name="uni036F" format="2">
  <unicode hex="036F"/>
  <outline>
    <contour>
      <point x="-463" y="566" type="line"/>
      <point x="-463" y="594" type="line"/>
      <point x="-423" y="599" type="line"/>
      <point x="-330" y="703" type="line"/>
      <point x="-427" y="826" type="line"/>
      <point x="-461" y="830" type="line"/>
      <point x="-461" y="858" type="line"/>
      <point x="-301" y="858" type="line"/>
      <point x="-301" y="830" type="line"/>
      <point x="-321" y="829" type="line"/>
      <point x="-325" y="829"/>
      <point x="-327" y="827"/>
      <point x="-327" y="824" type="curve"/>
      <point x="-327" y="822"/>
      <point x="-326" y="820"/>
      <point x="-325" y="818" type="curve"/>
      <point x="-280" y="760" type="line"/>
      <point x="-227" y="818" type="line"/>
      <point x="-226" y="820"/>
      <point x="-225" y="821"/>
      <point x="-225" y="823" type="curve"/>
      <point x="-225" y="826"/>
      <point x="-227" y="829"/>
      <point x="-232" y="829" type="curve"/>
      <point x="-252" y="830" type="line"/>
      <point x="-252" y="858" type="line"/>
      <point x="-132" y="858" type="line"/>
      <point x="-132" y="830" type="line"/>
      <point x="-168" y="826" type="line"/>
      <point x="-255" y="728" type="line"/>
      <point x="-154" y="599" type="line"/>
      <point x="-120" y="594" type="line"/>
      <point x="-120" y="566" type="line"/>
      <point x="-285" y="566" type="line"/>
      <point x="-285" y="594" type="line"/>
      <point x="-260" y="596" type="line"/>
      <point x="-255" y="596"/>
      <point x="-253" y="598"/>
      <point x="-253" y="601" type="curve"/>
      <point x="-253" y="603"/>
      <point x="-254" y="604"/>
      <point x="-255" y="606" type="curve"/>
      <point x="-305" y="671" type="line"/>
      <point x="-364" y="606" type="line"/>
      <point x="-365" y="605"/>
      <point x="-366" y="603"/>
      <point x="-366" y="602" type="curve"/>
      <point x="-366" y="599"/>
      <point x="-364" y="597"/>
      <point x="-358" y="596" type="curve"/>
      <point x="-336" y="594" type="line"/>
      <point x="-336" y="566" type="line"/>
    </contour>
  </outline>
</glyph>
<glyph name="Epsilontonos" format="2">
  <advance width="808"/>
  <unicode hex="0388"/>
  <outline>
    <contour>
      <point x="20" y="484" type="line"/>
      <point x="78" y="633" type="line" smooth="yes"/>
      <point x="92" y="670"/>
      <point x="112" y="687"/>
      <point x="141" y="687" type="curve" smooth="yes"/>
      <point x="176" y="687"/>
      <point x="201" y="666"/>
      <point x="201" y="637" type="curve" smooth="yes"/>
      <point x="201" y="621"/>
      <point x="192" y="600"/>
      <point x="180" y="586" type="curve" smooth="yes"/>
      <point x="90" y="484" type="line"/>
    </contour>
    <contour>
      <point x="236" y="0" type="line"/>
      <point x="236" y="51" type="line"/>
      <point x="291" y="56" type="line" smooth="yes"/>
      <point x="303" y="57"/>
      <point x="314" y="65"/>
      <point x="314" y="78" type="curve" smooth="yes"/>
      <point x="314" y="593" type="line" smooth="yes"/>
      <point x="314" y="606"/>
      <point x="303" y="614"/>
      <point x="291" y="615" type="curve" smooth="yes"/>
      <point x="236" y="620" type="line"/>
      <point x="236" y="671" type="line"/>
      <point x="746" y="671" type="line"/>
      <point x="746" y="511" type="line"/>
      <point x="674" y="511" type="line"/>
      <point x="658" y="594" type="line" smooth="yes"/>
      <point x="656" y="604"/>
      <point x="649" y="613"/>
      <point x="640" y="613" type="curve" smooth="yes"/>
      <point x="454" y="613" type="line"/>
      <point x="454" y="378" type="line"/>
      <point x="573" y="378" type="line" smooth="yes"/>
      <point x="582" y="378"/>
      <point x="589" y="389"/>
      <point x="590" y="396" type="curve" smooth="yes"/>
      <point x="599" y="464" type="line"/>
      <point x="661" y="464" type="line"/>
      <point x="661" y="229" type="line"/>
      <point x="599" y="229" type="line"/>
      <point x="590" y="297" type="line" smooth="yes"/>
      <point x="589" y="304"/>
      <point x="582" y="315"/>
      <point x="573" y="315" type="curve" smooth="yes"/>
      <point x="454" y="315" type="line"/>
      <point x="454" y="60" type="line"/>
      <point x="672" y="60" type="line" smooth="yes"/>
      <point x="680" y="60"/>
      <point x="689" y="72"/>
      <point x="690" y="79" type="curve" smooth="yes"/>
      <point x="705" y="183" type="line"/>
      <point x="778" y="183" type="line"/>
      <point x="778" y="0" type="line"/>
    </contour>
  </outline>
</glyph>
<glyph name="Omegatonos" format="2">
  <advance width="904"/>
  <unicode hex="038F"/>
  <outline>
    <contour>
      <point x="10" y="484" type="line"/>
      <point x="68" y="633" type="line" smooth="yes"/>
      <point x="82" y="670"/>
      <point x="102" y="687"/>
      <point x="131" y="687" type="curve" smooth="yes"/>
      <point x="166" y="687"/>
      <point x="191" y="666"/>
      <point x="191" y="637" type="curve" smooth="yes"/>
      <point x="191" y="621"/>
      <point x="182" y="600"/>
      <point x="170" y="586" type="curve" smooth="yes"/>
      <point x="80" y="484" type="line"/>
    </contour>
    <contour>
      <point x="174" y="405" type="curve" smooth="yes"/>
      <point x="174" y="579"/>
      <point x="288" y="687"/>
      <point x="518" y="687" type="curve" smooth="yes"/>
      <point x="748" y="687"/>
      <point x="859" y="579"/>
      <point x="859" y="405" type="curve" smooth="yes"/>
      <point x="859" y="235"/>
      <point x="725" y="159"/>
      <point x="614" y="152" type="curve"/>
      <point x="614" y="90" type="line"/>
      <point x="728" y="90" type="line" smooth="yes"/>
      <point x="753" y="90"/>
      <point x="795" y="108"/>
      <point x="795" y="158" type="curve"/>
      <point x="856" y="158" type="line"/>
      <point x="856" y="0" type="line"/>
      <point x="557" y="0" type="line"/>
      <point x="557" y="212" type="line"/>
      <point x="627" y="242"/>
      <point x="699" y="304"/>
      <point x="699" y="404" type="curve" smooth="yes"/>
      <point x="699" y="514"/>
      <point x="648" y="620"/>
      <point x="518" y="620" type="curve" smooth="yes"/>
      <point x="388" y="620"/>
      <point x="337" y="514"/>
      <point x="337" y="404" type="curve" smooth="yes"/>
      <point x="337" y="304"/>
      <point x="409" y="242"/>
      <point x="479" y="212" type="curve"/>
      <point x="479" y="0" type="line"/>
      <point x="188" y="0" type="line"/>
      <point x="188" y="158" type="line"/>
      <point x="249" y="158" type="line"/>
      <point x="249" y="108"/>
      <point x="292" y="90"/>
      <point x="316" y="90" type="curve" smooth="yes"/>
      <point x="422" y="90" type="line"/>
      <point x="422" y="152" type="line"/>
      <point x="301" y="159"/>
      <point x="174" y="235"/>
    </contour>
  </outline>
</glyph>
<glyph name="iotadieresistonos" format="2">
  <advance width="370"/>
  <unicode hex="0390"/>
  <outline>
    <contour>
      <point x="70" y="488" type="line"/>
      <point x="203" y="488" type="line"/>
      <point x="203" y="134" type="line" smooth="yes"/>
      <point x="203" y="87"/>
      <point x="226" y="87"/>
      <point x="233" y="87" type="curve" smooth="yes"/>
      <point x="240" y="87"/>
      <point x="268" y="87"/>
      <point x="287" y="126" type="curve"/>
      <point x="360" y="126" type="line"/>
      <point x="324" y="24"/>
      <point x="245" y="-12"/>
      <point x="193" y="-12" type="curve" smooth="yes"/>
      <point x="135" y="-12"/>
      <point x="70" y="16"/>
      <point x="70" y="123" type="curve" smooth="yes"/>
    </contour>
    <contour>
      <point x="192.5" y="629" type="curve" smooth="yes"/>
      <point x="192.5" y="667"/>
      <point x="223.5" y="698"/>
      <point x="261.5" y="698" type="curve" smooth="yes"/>
      <point x="299.5" y="698"/>
      <point x="330.5" y="667"/>
      <point x="330.5" y="629" type="curve" smooth="yes"/>
      <point x="330.5" y="591"/>
      <point x="299.5" y="560"/>
      <point x="261.5" y="560" type="curve" smooth="yes"/>
      <point x="223.5" y="560"/>
      <point x="192.5" y="591"/>
    </contour>
    <contour>
      <point x="-57.5" y="629" type="curve" smooth="yes"/>
      <point x="-57.5" y="667"/>
      <point x="-26.5" y="698"/>
      <point x="11.5" y="698" type="curve" smooth="yes"/>
      <point x="49.5" y="698"/>
      <point x="80.5" y="667"/>
      <point x="80.5" y="629" type="curve" smooth="yes"/>
      <point x="80.5" y="591"/>
      <point x="49.5" y="560"/>
      <point x="11.5" y="560" type="curve" smooth="yes"/>
      <point x="-26.5" y="560"/>
      <point x="-57.5" y="591"/>
    </contour>
    <contour>
      <point x="85.5" y="691" type="line"/>
      <point x="192.5" y="842" type="line" smooth="yes"/>
      <point x="212.453" y="870.159"/>
      <point x="228.5" y="874"/>
      <point x="255.5" y="874" type="curve" smooth="yes"/>
      <point x="290.5" y="874"/>
      <point x="313.5" y="853"/>
      <point x="313.5" y="821" type="curve" smooth="yes"/>
      <point x="313.5" y="807"/>
      <point x="300.645" y="787.763"/>
      <point x="287.5" y="779" type="curve" smooth="yes"/>
      <point x="155.5" y="691" type="line"/>
    </contour>
  </outline>
</glyph>
<glyph name="Alpha" format="2">
  <advance width="686"/>
  <unicode hex="0391"/>
  <outline>
    <contour>
      <point x="5" y="0" type="line"/>
      <point x="5" y="51" type="line"/>
      <point x="61" y="59" type="line"/>
      <point x="285" y="687" type="line"/>
      <point x="399" y="687" type="line"/>
      <point x="621" y="77" type="line"/>
      <point x="626" y="65"/>
      <point x="629" y="61"/>
      <point x="643" y="58" type="curve"/>
      <point x="681" y="51" type="line"/>
      <point x="681" y="0" type="line"/>
      <point x="405" y="0" type="line"/>
      <point x="405" y="51" type="line"/>
      <point x="464" y="58" type="line" smooth="yes"/>
      <point x="470.019" y="58.7141"/>
      <point x="474" y="62.9231"/>
      <point x="474" y="69" type="curve"/>
      <point x="474" y="70.5"/>
      <point x="473.373" y="73.6829"/>
      <point x="473" y="75" type="curve"/>
      <point x="419" y="234" type="line"/>
      <point x="205" y="234" type="line"/>
      <point x="150" y="79" type="line"/>
      <point x="149.546" y="77.7218"/>
      <point x="149" y="74.5"/>
      <point x="149" y="73" type="curve"/>
      <point x="149" y="63.9412"/>
      <point x="157" y="58.8751"/>
      <point x="164" y="58" type="curve" smooth="yes"/>
      <point x="220" y="51" type="line"/>
      <point x="220" y="0" type="line"/>
    </contour>
    <contour>
      <point x="224" y="293" type="line"/>
      <point x="394" y="293" type="line"/>
      <point x="308" y="533" type="line"/>
    </contour>
  </outline>
</glyph>
<glyph name="uni03A9" format="2">
  <advance width="764"/>
  <unicode hex="03A9"/>
  <outline>
    <contour>
      <point x="34" y="405" type="curve" smooth="yes"/>
      <point x="34" y="579"/>
      <point x="148" y="687"/>
      <point x="378" y="687" type="curve" smooth="yes"/>
      <point x="608" y="687"/>
      <point x="719" y="579"/>
      <point x="719" y="405" type="curve" smooth="yes"/>
      <point x="719" y="235"/>
      <point x="585" y="159"/>
      <point x="474" y="152" type="curve"/>
      <point x="474" y="90" type="line"/>
      <point x="588" y="90" type="line" smooth="yes"/>
      <point x="613" y="90"/>
      <point x="655" y="108"/>
      <point x="655" y="158" type="curve"/>
      <point x="716" y="158" type="line"/>
      <point x="716" y="0" type="line"/>
      <point x="417" y="0" type="line"/>
      <point x="417" y="212" type="line"/>
      <point x="487" y="242"/>
      <point x="559" y="304"/>
      <point x="559" y="404" type="curve" smooth="yes"/>
      <point x="559" y="514"/>
      <point x="508" y="620"/>
      <point x="378" y="620" type="curve" smooth="yes"/>
      <point x="248" y="620"/>
      <point x="197" y="514"/>
      <point x="197" y="404" type="curve" smooth="yes"/>
      <point x="197" y="304"/>
      <point x="269" y="242"/>
      <point x="339" y="212" type="curve"/>
      <point x="339" y="0" type="line"/>
      <point x="48" y="0" type="line"/>
      <point x="48" y="158" type="line"/>
      <point x="109" y="158" type="line"/>
      <point x="109" y="108"/>
      <point x="152" y="90"/>
      <point x="176" y="90" type="curve" smooth="yes"/>
      <point x="282" y="90" type="line"/>
      <point x="282" y="152" type="line"/>
      <point x="161" y="159"/>
      <point x="34" y="235"/>
    </contour>
  </outline>
</glyph>
<glyph name="tau" format="2">
  <advance width="522"/>
  <unicode hex="03C4"/>
  <outline>
    <contour>
      <point x="20" y="321" type="line"/>
      <point x="20" y="424"/>
      <point x="76" y="488"/>
      <point x="168" y="488" type="curve" smooth="yes"/>
      <point x="435" y="488" type="line" smooth="yes"/>
      <point x="458" y="488"/>
      <point x="476" y="499"/>
      <point x="476" y="517" type="curve"/>
      <point x="508" y="517" type="line"/>
      <point x="508" y="419"/>
      <point x="459" y="400"/>
      <point x="413" y="400" type="curve" smooth="yes"/>
      <point x="147" y="400" type="line" smooth="yes"/>
      <point x="89" y="400"/>
      <point x="70" y="369"/>
      <point x="52" y="321" type="curve"/>
    </contour>
    <contour>
      <point x="192" y="123" type="curve" smooth="yes"/>
      <point x="192" y="448" type="line"/>
      <point x="325" y="448" type="line"/>
      <point x="325" y="134" type="line" smooth="yes"/>
      <point x="325" y="87"/>
      <point x="348" y="87"/>
      <point x="355" y="87" type="curve" smooth="yes"/>
      <point x="362" y="87"/>
      <point x="390" y="87"/>
      <point x="409" y="126" type="curve"/>
      <point x="482" y="126" type="line"/>
      <point x="446" y="24"/>
      <point x="367" y="-12"/>
      <point x="315" y="-12" type="curve" smooth="yes"/>
      <point x="257" y="-12"/>
      <point x="192" y="16"/>
    </contour>
  </outline>
</glyph>
<glyph name="iotadieresis" format="2">
  <advance width="370"/>
  <unicode hex="03CA"/>
  <outline>
    <contour>
      <point x="70" y="488" type="line"/>
      <point x="203" y="488" type="line"/>
      <point x="203" y="134" type="line" smooth="yes"/>
      <point x="203" y="87"/>
      <point x="226" y="87"/>
      <point x="233" y="87" type="curve" smooth="yes"/>
      <point x="240" y="87"/>
      <point x="268" y="87"/>
      <point x="287" y="126" type="curve"/>
      <point x="360" y="126" type="line"/>
      <point x="324" y="24"/>
      <point x="245" y="-12"/>
      <point x="193" y="-12" type="curve" smooth="yes"/>
      <point x="135" y="-12"/>
      <point x="70" y="16"/>
      <point x="70" y="123" type="curve" smooth="yes"/>
    </contour>
    <contour>
      <point x="-37.5" y="629" type="curve" smooth="yes"/>
      <point x="-37.5" y="667"/>
      <point x="-6.5" y="698"/>
      <point x="31.5" y="698" type="curve" smooth="yes"/>
      <point x="69.5" y="698"/>
      <point x="100.5" y="667"/>
      <point x="100.5" y="629" type="curve" smooth="yes"/>
      <point x="100.5" y="591"/>
      <point x="69.5" y="560"/>
      <point x="31.5" y="560" type="curve" smooth="yes"/>
      <point x="-6.5" y="560"/>
      <point x="-37.5" y="591"/>
    </contour>
    <contour>
      <point x="172.5" y="629" type="curve" smooth="yes"/>
      <point x="172.5" y="667"/>
      <point x="203.5" y="698"/>
      <point x="241.5" y="698" type="curve" smooth="yes"/>
      <point x="279.5" y="698"/>
      <point x="310.5" y="667"/>
      <point x="310.5" y="629" type="curve" smooth="yes"/>
      <point x="310.5" y="591"/>
      <point x="279.5" y="560"/>
      <point x="241.5" y="560" type="curve" smooth="yes"/>
      <point x="203.5" y="560"/>
      <point x="172.5" y="591"/>
    </contour>
  </outline>
</glyph>
<glyph name="theta1" format="2">
  <advance width="608"/>
  <unicode hex="03D1"/>
  <outline>
    <contour>
      <point x="15" y="396" type="line"/>
      <point x="46" y="418"/>
      <point x="91" y="447"/>
      <point x="137" y="447" type="curve" smooth="yes"/>
      <point x="203" y="447"/>
      <point x="255" y="424"/>
      <point x="255" y="338" type="curve" smooth="yes"/>
      <point x="255" y="329"/>
      <point x="254" y="319"/>
      <point x="253" y="308" type="curve" smooth="yes"/>
      <point x="244" y="211" type="line" smooth="yes"/>
      <point x="243" y="199"/>
      <point x="242" y="187"/>
      <point x="242" y="176" type="curve" smooth="yes"/>
      <point x="242" y="91"/>
      <point x="280" y="54"/>
      <point x="324" y="54" type="curve" smooth="yes"/>
      <point x="360" y="54"/>
      <point x="458" y="86"/>
      <point x="458" y="260" type="curve" smooth="yes"/>
      <point x="458" y="341"/>
      <point x="442" y="450"/>
      <point x="427" y="515" type="curve"/>
      <point x="440" y="508" type="line"/>
      <point x="395" y="479"/>
      <point x="348" y="466"/>
      <point x="292" y="466" type="curve" smooth="yes"/>
      <point x="131" y="466"/>
      <point x="85" y="548"/>
      <point x="85" y="620" type="curve" smooth="yes"/>
      <point x="85" y="666"/>
      <point x="115" y="742"/>
      <point x="311" y="742" type="curve" smooth="yes"/>
      <point x="401" y="742"/>
      <point x="482" y="711"/>
      <point x="534" y="602" type="curve"/>
      <point x="515" y="602" type="line"/>
      <point x="554" y="657" type="line"/>
      <point x="589" y="627" type="line"/>
      <point x="538" y="559" type="line"/>
      <point x="543" y="567" type="line"/>
      <point x="564" y="502"/>
      <point x="581" y="411"/>
      <point x="581" y="325" type="curve" smooth="yes"/>
      <point x="581" y="187"/>
      <point x="443" y="-12"/>
      <point x="290" y="-12" type="curve" smooth="yes"/>
      <point x="191" y="-12"/>
      <point x="100" y="23"/>
      <point x="100" y="146" type="curve" smooth="yes"/>
      <point x="100" y="156"/>
      <point x="101" y="167"/>
      <point x="102" y="178" type="curve" smooth="yes"/>
      <point x="111" y="273" type="line"/>
      <point x="113" y="289"/>
      <point x="114" y="302"/>
      <point x="114" y="314" type="curve" smooth="yes"/>
      <point x="114" y="367"/>
      <point x="96" y="382"/>
      <point x="79" y="382" type="curve" smooth="yes"/>
      <point x="56" y="382"/>
      <point x="38" y="368"/>
      <point x="31" y="362" type="curve"/>
    </contour>
    <contour>
      <point x="219" y="632" type="curve" smooth="yes"/>
      <point x="219" y="553"/>
      <point x="267" y="518"/>
      <point x="326" y="518" type="curve" smooth="yes"/>
      <point x="371" y="518"/>
      <point x="405" y="530"/>
      <point x="443" y="564" type="curve"/>
      <point x="420" y="525" type="line"/>
      <point x="395" y="636"/>
      <point x="361" y="705"/>
      <point x="288" y="705" type="curve" smooth="yes"/>
      <point x="257" y="705"/>
      <point x="219" y="686"/>
    </contour>
  </outline>
</glyph>
<glyph name="phi1" format="2">
  <advance width="761"/>
  <unicode hex="03D5"/>
  <outline>
    <contour>
      <point x="32" y="241" type="curve" smooth="yes"/>
      <point x="32" y="382"/>
      <point x="110" y="496"/>
      <point x="263" y="496" type="curve" smooth="yes"/>
      <point x="281" y="496"/>
      <point x="299" y="494"/>
      <point x="314" y="491" type="curve"/>
      <point x="314" y="659" type="line"/>
      <point x="238" y="659" type="line"/>
      <point x="238" y="699" type="line"/>
      <point x="377" y="740" type="line"/>
      <point x="447" y="740" type="line"/>
      <point x="447" y="491" type="line"/>
      <point x="462" y="494"/>
      <point x="480" y="496"/>
      <point x="498" y="496" type="curve" smooth="yes"/>
      <point x="651" y="496"/>
      <point x="729" y="382"/>
      <point x="729" y="241" type="curve" smooth="yes"/>
      <point x="729" y="100"/>
      <point x="651" y="-14"/>
      <point x="499" y="-14" type="curve" smooth="yes"/>
      <point x="480" y="-14"/>
      <point x="462" y="-12"/>
      <point x="447" y="-9" type="curve"/>
      <point x="447" y="-146" type="line" smooth="yes"/>
      <point x="447" y="-158"/>
      <point x="457" y="-168"/>
      <point x="469" y="-169" type="curve" smooth="yes"/>
      <point x="505" y="-172" type="line"/>
      <point x="505" y="-219" type="line"/>
      <point x="256" y="-219" type="line"/>
      <point x="256" y="-172" type="line"/>
      <point x="292" y="-169" type="line" smooth="yes"/>
      <point x="304" y="-168"/>
      <point x="314" y="-158"/>
      <point x="314" y="-146" type="curve" smooth="yes"/>
      <point x="314" y="-9" type="line"/>
      <point x="299" y="-12"/>
      <point x="281" y="-14"/>
      <point x="263" y="-14" type="curve" smooth="yes"/>
      <point x="110" y="-14"/>
      <point x="32" y="100"/>
    </contour>
    <contour>
      <point x="173" y="241" type="curve" smooth="yes"/>
      <point x="173" y="133"/>
      <point x="231" y="42"/>
      <point x="270" y="42" type="curve" smooth="yes"/>
      <point x="284" y="42"/>
      <point x="304" y="48"/>
      <point x="314" y="56" type="curve"/>
      <point x="314" y="426" type="line"/>
      <point x="305" y="433"/>
      <point x="285" y="439"/>
      <point x="270" y="439" type="curve" smooth="yes"/>
      <point x="231" y="439"/>
      <point x="173" y="349"/>
    </contour>
    <contour>
      <point x="447" y="426" type="curve"/>
      <point x="447" y="56" type="line"/>
      <point x="459" y="47"/>
      <point x="476" y="42"/>
      <point x="492" y="42" type="curve" smooth="yes"/>
      <point x="531" y="42"/>
      <point x="588" y="133"/>
      <point x="588" y="241" type="curve" smooth="yes"/>
      <point x="588" y="349"/>
      <point x="531" y="439"/>
      <point x="491" y="439" type="curve" smooth="yes"/>
      <point x="477" y="439"/>
      <point x="456" y="433"/>
    </contour>
  </outline>
</glyph>
<glyph name="uni03EA" format="2">
  <advance width="639"/>
  <unicode hex="03EA"/>
  <outline>
    <contour>
      <point x="27" y="579" type="curve" smooth="yes"/>
      <point x="27" y="617"/>
      <point x="63" y="687"/>
      <point x="163" y="687" type="curve" smooth="yes"/>
      <point x="233" y="687"/>
      <point x="297" y="676"/>
      <point x="317" y="636" type="curve"/>
      <point x="320" y="629" type="line"/>
      <point x="324" y="636" type="line"/>
      <point x="343" y="674"/>
      <point x="374" y="687"/>
      <point x="416" y="687" type="curve" smooth="yes"/>
      <point x="486" y="687"/>
      <point x="512" y="617"/>
      <point x="512" y="579" type="curve" smooth="yes"/>
      <point x="512" y="534"/>
      <point x="479" y="519"/>
      <point x="448" y="519" type="curve" smooth="yes"/>
      <point x="427" y="519"/>
      <point x="406" y="526"/>
      <point x="393" y="536" type="curve"/>
      <point x="421" y="651" type="line"/>
      <point x="416" y="654"/>
      <point x="411" y="656"/>
      <point x="406" y="656" type="curve" smooth="yes"/>
      <point x="393" y="656"/>
      <point x="374" y="647"/>
      <point x="359" y="617" type="curve" smooth="yes"/>
      <point x="343" y="584" type="line"/>
      <point x="635" y="0" type="line"/>
      <point x="6" y="0" type="line"/>
      <point x="247" y="483" type="line"/>
      <point x="180" y="617" type="line" smooth="yes"/>
      <point x="165" y="647"/>
      <point x="146" y="656"/>
      <point x="133" y="656" type="curve" smooth="yes"/>
      <point x="128" y="656"/>
      <point x="123" y="654"/>
      <point x="118" y="651" type="curve"/>
      <point x="146" y="536" type="line"/>
      <point x="133" y="526"/>
      <point x="112" y="519"/>
      <point x="91" y="519" type="curve" smooth="yes"/>
      <point x="60" y="519"/>
      <point x="27" y="534"/>
    </contour>
    <contour>
      <point x="81" y="60" type="line"/>
      <point x="459" y="60" type="line"/>
      <point x="270" y="438" type="line"/>
    </contour>
  </outline>
</glyph>
<glyph name="uni03F2" format="2">
  <advance width="593"/>
  <unicode hex="03F2"/>
  <outline>
    <contour>
      <point x="35" y="240" type="curve" smooth="yes"/>
      <point x="35" y="383"/>
      <point x="136" y="500"/>
      <point x="314" y="500" type="curve" smooth="yes"/>
      <point x="436" y="500"/>
      <point x="529" y="420"/>
      <point x="558" y="312" type="curve"/>
      <point x="480" y="312" type="line"/>
      <point x="462" y="384"/>
      <point x="415" y="449"/>
      <point x="328" y="449" type="curve" smooth="yes"/>
      <point x="223" y="449"/>
      <point x="185" y="330"/>
      <point x="185" y="240" type="curve" smooth="yes"/>
      <point x="185" y="150"/>
      <point x="224" y="34"/>
      <point x="329" y="34" type="curve" smooth="yes"/>
      <point x="398" y="34"/>
      <point x="441" y="76"/>
      <point x="464" y="129" type="curve"/>
      <point x="545" y="129" type="line"/>
      <point x="507" y="46"/>
      <point x="424" y="-12"/>
      <point x="318" y="-12" type="curve" smooth="yes"/>
      <point x="139" y="-12"/>
      <point x="35" y="101"/>
    </contour>
  </outline>
</glyph>
